<svg xmlns="http://www.w3.org/2000/svg" viewBox="0 0 628.89 455.61"><defs><style>.cls-1{fill:#010101;}</style></defs><title>Asset 1</title><g id="Layer_2" data-name="Layer 2"><g id="Layer_6" data-name="Layer 6"><path class="cls-1" d="M85.67,182.62v-5.51q16.31-.51,21.7-5.77T112.76,150V46.66q0-17.05-14.55-17.06a53.15,53.15,0,0,0-9.78,1.26c-1.51.33-2.93.58-4.27.75V26.09L149.89,0h13V158.54q0,10.8,4.27,14.55t17.31,4v5.51Z"/><path class="cls-1" d="M243.2,75.76q10-9.78,17.69-14.18t19.19-4.38q15.56,0,25.21,9T315,95.33v68.23q0,11.3,13.55,13.55v5.51H261.27v-5.51a12.75,12.75,0,0,0,7.15-4.39c1.58-2.09,2.38-5.15,2.38-9.16V97.08q0-10.27-2-14.55T261,78.27a15.68,15.68,0,0,0-9.16,2.88,27.45,27.45,0,0,0-7.15,7.4v75c0,4,.79,7.07,2.39,9.16a12.62,12.62,0,0,0,7.14,4.39v5.51H185.51v-5.51q13.55-2.27,13.54-13.55V79.27q0-11.3-13.54-13.54V60.21H243.2Z"/><path class="cls-1" d="M444.39,145.5q-7.51,18.81-21.82,29.47T387.2,185.63a56.56,56.56,0,0,1-23.08-4.76,55.77,55.77,0,0,1-18.82-13.55,62.15,62.15,0,0,1-12.41-20.57,71.92,71.92,0,0,1-4.39-25.33,69.54,69.54,0,0,1,4.13-23.58,64,64,0,0,1,12.17-20.7,58.57,58.57,0,0,1,19.69-14.55,61.86,61.86,0,0,1,26.22-5.39,67.73,67.73,0,0,1,21.19,3,41.51,41.51,0,0,1,14.81,8,34,34,0,0,1,8.4,10.92,27.35,27.35,0,0,1,2.76,11.66q0,10-5.39,15.81t-14.93,5.76q-8.79,0-14.05-5.64a18.41,18.41,0,0,1-5.27-12.92q0-2.76.51-7.78.5-4.76.49-7.52a13.67,13.67,0,0,0-2.75-8.91q-2.78-3.37-6.28-3.38-7,0-11.53,9.28t-4.52,31.36q0,26.09,8.91,40.89t25.71,14.8q7.53,0,15.81-5.77a40.46,40.46,0,0,0,12.79-14.3Z"/><path class="cls-1" d="M484,117.9A63.55,63.55,0,0,0,487.28,135a54.66,54.66,0,0,0,7.28,14.3A36.08,36.08,0,0,0,504.72,159a22.13,22.13,0,0,0,11.91,3.52,26.25,26.25,0,0,0,16.69-5.4,45.87,45.87,0,0,0,11.91-14.67l7,3q-7.53,18.81-21.83,29.47t-35.37,10.66a48,48,0,0,1-22.45-5.39,57.37,57.37,0,0,1-18.06-14.67,71.14,71.14,0,0,1-11.91-20.82,65.87,65.87,0,0,1,0-46.66,71.19,71.19,0,0,1,11.91-20.83,57.65,57.65,0,0,1,18.06-14.67,48.14,48.14,0,0,1,22.45-5.39q14.81,0,25.47,5a48.62,48.62,0,0,1,17.55,13.67,56.13,56.13,0,0,1,10,19.45,80.44,80.44,0,0,1,3.14,22.57Zm28.1-9q0-23.82-3.64-33.24t-10.41-9.4q-6.76,0-10.41,9.4T484,108.87Z"/><path class="cls-1" d="M0,414v-5.52q7.79-.75,12.17-5.39t9.66-18.44L79.27,235.36H96.83L160.3,395.41q3.25,8,5.89,10.28t8.91,2.76V414H84.79v-5.52H96.08a10.83,10.83,0,0,0,7.4-2.51,8.51,8.51,0,0,0,2.89-6.77,21.91,21.91,0,0,0-.76-5.64c-.5-1.92-1.17-4.06-2-6.4L91.82,357.28H44.4l-9,25.84a78.85,78.85,0,0,0-2.51,7.77,25.88,25.88,0,0,0-.75,6.27,9.51,9.51,0,0,0,4.39,8.28q4.38,3,15.18,3V414ZM68,294.56,47.91,347.24H87.8Z"/><path class="cls-1" d="M290.24,305.1H271.67q11.06,10.29,11,25.84,0,20.82-15.8,31.35T226,372.83q-15.56,0-20.57,1.76t-5,6q0,3.25,3.51,4.76t12.8,1.51h24.84q25.59,0,37.87,7.27T291.75,419q0,19.06-15.81,27.84t-47.41,8.78a179.82,179.82,0,0,1-28.22-1.88q-11.67-1.87-18.69-5t-10.16-7.28a14.46,14.46,0,0,1-3.13-8.9q0-8,4.51-12.17t12.54-4.89V415a37.73,37.73,0,0,1-10.28-8.91,18.56,18.56,0,0,1-3.76-11.67A22.72,22.72,0,0,1,179,376.72a32.91,32.91,0,0,1,18.94-8.15v-.5a49.56,49.56,0,0,1-20.45-14.93,35.49,35.49,0,0,1-7.65-22.7q0-19.81,16-30.86t39.39-11a84.3,84.3,0,0,1,15.8,1.76,67.21,67.21,0,0,0,7.53,1.25h41.64Zm-68,116.9q-13.8,0-18.32,3.14a10.44,10.44,0,0,0-4.51,9.15q0,6.27,7.4,8.78t21.45,2.51q29.34,0,29.35-11.29,0-6.53-5.52-9.41T233.8,422Zm-6.65-115.4q-3.63,7-3.64,24.09t3.64,24.08q3.63,7,10.66,7t10.67-7q3.63-7,3.63-24.08t-3.63-24.09q-3.65-7-10.67-7T215.61,306.6Z"/><path class="cls-1" d="M400.62,386.38c0,4.51.46,7.57,1.38,9.15a4.49,4.49,0,0,0,4.14,2.39,5.72,5.72,0,0,0,3.26-1.26,7.54,7.54,0,0,1,4-1.25c1.83,0,2.75,1,2.75,3q0,2.76-2.75,6a29.71,29.71,0,0,1-7.66,6.14,50.93,50.93,0,0,1-10.4,4.65A35.17,35.17,0,0,1,384.81,417c-6.51,0-11.62-1.5-15.29-4.51a51.62,51.62,0,0,1-10.29-11.79,3.23,3.23,0,0,0-.75-1.26A84.75,84.75,0,0,1,339,412.22a48.39,48.39,0,0,1-20.7,4.76q-12.79,0-20.45-7.9t-7.64-20.95A26.65,26.65,0,0,1,297,370.57a64.45,64.45,0,0,1,16.8-13.92,149.16,149.16,0,0,1,20.07-9.91q10-4,20.83-7.52l1.75-.51V316.39q0-9.28-3.26-14.05c-2.18-3.17-5.94-4.77-11.29-4.77a13.23,13.23,0,0,0-8.65,2.76,8.44,8.44,0,0,0-3.39,6.78q0,2.76,2.26,8.27,2.75,6.78,2.75,11.29A12.12,12.12,0,0,1,329,337.33q-5.89,3.9-14.67,3.89-9.29,0-14.93-5.39t-5.64-15.68q0-14.55,14.92-23.08t38.76-8.53q16.05,0,26.47,2.76t16.3,8.15a28.17,28.17,0,0,1,8.15,13.05,65.58,65.58,0,0,1,2.26,18.44ZM356.47,349l-3,1.51c-6.19,3-10.91,6.23-14.18,9.65s-4.88,8.83-4.88,16.18q0,7.79,2.63,11.67c1.76,2.59,4.8,3.89,9.15,3.89a10.82,10.82,0,0,0,5.9-1.38,22.84,22.84,0,0,0,4.39-3.89Z"/><path class="cls-1" d="M413.41,414v-5.52Q427,406.2,427,394.91V310.62q0-11.3-13.55-13.55v-5.52h59.2V394.91q0,11.28,13.55,13.54V414ZM433.1,239.25a23.64,23.64,0,1,1-6.89,16.68A22.73,22.73,0,0,1,433.1,239.25Z"/><path class="cls-1" d="M543.6,307.11q10-9.8,17.69-14.18t19.19-4.39q15.56,0,25.21,9t9.66,29.1v68.24q0,11.28,13.54,13.54V414H561.67v-5.52a12.58,12.58,0,0,0,7.14-4.39q2.38-3.13,2.39-9.15V328.43c0-6.86-.67-11.7-2-14.55s-3.93-4.27-7.77-4.27a15.69,15.69,0,0,0-9.16,2.89,27.3,27.3,0,0,0-7.15,7.4v75q0,6,2.38,9.15a12.57,12.57,0,0,0,7.15,4.39V414H485.91v-5.52q13.54-2.25,13.54-13.54V310.62q0-11.3-13.54-13.55v-5.52H543.6Z"/></g></g></svg>