<svg xmlns="http://www.w3.org/2000/svg" viewBox="0 0 824.29 580.49"><defs><style>.cls-1{fill:#010101;}</style></defs><title>Asset 3</title><g id="Layer_2" data-name="Layer 2"><g id="Layer_6" data-name="Layer 6"><path class="cls-1" d="M824.29,580.49H0V498.72H824.29ZM2,578.49H822.29V500.72H2Z"/><path d="M57.65,537.28c2.38,0,3.32.9,3.31,3s-1.1,3-3.22,3-2.86-.76-2.83-3.07c0-.6,0-1.42.32-1.75C55.91,537.78,56.6,536.82,57.65,537.28Z"/><path d="M56.25,528.5c1.15.22,2.43-.58,3.62.56a3.17,3.17,0,0,1,.77,4c-.68,1.42-1.77,1.63-4.37,1.29a4,4,0,0,1-1.44-2.87A4.43,4.43,0,0,1,56.25,528.5Z"/><path d="M227.44,528.52c1.48-.2,3.17-.36,4.16,1.52a4.11,4.11,0,0,1-.2,3.16,4,4,0,0,1-2.76,1.3c-1.28.07-1.79-.93-2.75-1.32C225.65,531.49,225.3,529.77,227.44,528.52Z"/><path d="M79.27,533a17.53,17.53,0,0,1,.21-3.16,1.91,1.91,0,0,1,1.32-1.21c1.11-.09,2.56-.24,3.3.35,1.36,1.07,1.67,3.23.93,4.1C83.3,535.09,81.4,534.94,79.27,533Z"/><path d="M177.08,533.07c-.25-1.64-.47-3.37,1.3-4.5a5.34,5.34,0,0,1,3.48.3,3.44,3.44,0,0,1,1.08,3.07c-.1.41-.05,1-.31,1.2a3.78,3.78,0,0,1-2.71,1.36A4.17,4.17,0,0,1,177.08,533.07Z"/><path d="M181.49,543.18h-3.06l-1.37-1.32v-3.21l1.46-1.27c.95,0,2.26-.56,3.31.41C183.7,539.53,183.25,541.3,181.49,543.18Z"/><path d="M30.5,541.87a14.73,14.73,0,0,0,0-2.48c-.19-1.15,1.25-1.07,1.24-1.95,2.59-.43,4,0,4.62,1.31A4.93,4.93,0,0,1,36,542a3.4,3.4,0,0,1-2.69,1.31C32,543.4,31.49,542.49,30.5,541.87Z"/><path d="M250.29,541.94v-3.42l.53.45,1.52-.6-.9-.9c2.25-.49,3.9-.07,4.63,1.2a4.64,4.64,0,0,1-.37,3.34,3.53,3.53,0,0,1-2.73,1.32C251.68,543.42,251.25,542.41,250.29,541.94Z"/><path d="M250.29,530c1.36-1.79,3.1-2.07,4.62-1.11s1.79,3.36,1,4.22a3.7,3.7,0,0,1-2.81,1.45c-1.26,0-1.8-.88-2.78-1.36Z"/><path d="M105.54,542.61l-1.14-1-.57.46v-3.37c1.34-1.57,3-2,4.57-1a3.31,3.31,0,0,1,1.2,3.94c-.31.57-.81,1.27-1.36,1.42a15.1,15.1,0,0,1-3.1.24Z"/><path d="M143.81,532.87a16.58,16.58,0,0,1,.06-3c.09-.49.79-1,1.3-1.29a4.48,4.48,0,0,1,3.36.41c1,1.2,1.61,2.94,1,3.39-.9.67-1.23,2-2.63,2.1A3.19,3.19,0,0,1,143.81,532.87Z"/><path d="M21.77,547.51c1.19-1.49,2.64-2.11,4-1.15,1,.73,2.5,1.68,1.87,3.39a3.58,3.58,0,0,1-1.51,2,9.92,9.92,0,0,1-3.07.32l.39-.57-.83-1.26-.82.66Z"/><path d="M169.55,534.22l-1.09-1-.23.08v-3.44l1.44-1.32c1,.12,2.44-.68,3.31.67.58.92,2,1.89,1,3.1C172.91,533.66,171.7,535.28,169.55,534.22Z"/><path d="M169.85,543.29c-2-1.34-2-3-1.55-4.61,1.1-1.36,2.56-2.06,3.9-1,1,.73,2.58,1.67,1.86,3.43a3.77,3.77,0,0,1-1.62,1.94A7.5,7.5,0,0,1,169.85,543.29Z"/><path d="M23.08,534.22l-1.09-1-.23.08v-3.45l1.44-1.32c1,.12,2.44-.68,3.31.67.58.92,2,1.89,1,3.1C26.45,533.66,25.23,535.28,23.08,534.22Z"/><path d="M241.47,547.38c1.28-1.29,2.57-2.07,4.05-.86,1,.84,2.59,1.84,1.6,3.34-.51.77-.59,2.44-2.45,2.22a3.78,3.78,0,0,1-3.2-1.61Z"/><path d="M241.53,533.16c-.44-2.62-.05-4.06,1.27-4.63.8-.35,3.27-.06,3.4.5.28,1.14,2,2.08.9,3.31-.68.77-1.2,1.9-2.5,2.11A3.44,3.44,0,0,1,241.53,533.16Z"/><path d="M217.07,542c0-.43-.07-.89-.08-1.36,0-.69,0-1.39,0-2,1.32-1.1,2.58-2.21,4.16-.83,1,.87,2.6,1.77,1.54,3.4-.53.83-.79,2.36-2.5,2.08C219.26,543.14,219.24,543.3,217.07,542Z"/><path d="M96.43,534.35,95,533.05c0-.39-.09-1-.1-1.62s.06-1.16.08-1.57a3.39,3.39,0,0,1,4.57-1c.81.38,1.65,2.75,1.26,3.28a7.05,7.05,0,0,1-2.08,2.16C98.07,534.63,97.07,534.35,96.43,534.35Z"/><path d="M46.19,550.57v-3.15l1.36-1.29a3.32,3.32,0,0,1,3.73,1.3c.6.79,1.14,1.51.71,2.42a3.87,3.87,0,0,1-1.56,1.92,8.58,8.58,0,0,1-2.84.28Z"/><path d="M70.59,533.26v-3.42a3.34,3.34,0,0,1,4.67-.91c1,.59,1.54,3,1.07,3.45A18.67,18.67,0,0,0,74.7,534c-.62.85-1.46.52-2.12.4A7.16,7.16,0,0,1,70.59,533.26Z"/><path d="M46.19,532.91v-3.14l.28.23,1.42-.88-.51-.63c1.25.19,2.76-.7,3.67.88.52.92,1.79,1.9.82,3-.69.78-1.24,1.93-2.55,2.1A3,3,0,0,1,46.19,532.91Z"/><path d="M193.92,528.47c1.19.19,2.66-.63,3.51.78.54.91,1.77,1.77,1,3a5.33,5.33,0,0,1-2.09,2,5.28,5.28,0,0,1-2.3.07l-1.37-1.3v-3.37l.44.39,1.19-1Z"/><path d="M327.94,537.28c2.39,0,3.32.9,3.31,3s-1.1,3-3.21,3-2.87-.76-2.84-3.07c0-.6,0-1.42.32-1.75C326.2,537.78,326.9,536.82,327.94,537.28Z"/><path d="M326.54,528.5c1.16.22,2.43-.58,3.62.56a3.16,3.16,0,0,1,.78,4c-.68,1.42-1.77,1.63-4.37,1.29a4,4,0,0,1-1.45-2.87A4.47,4.47,0,0,1,326.54,528.5Z"/><path d="M497.73,528.52c1.48-.2,3.17-.36,4.17,1.52a4.2,4.2,0,0,1-.2,3.16,4,4,0,0,1-2.76,1.3c-1.29.07-1.79-.93-2.76-1.32C495.94,531.49,495.59,529.77,497.73,528.52Z"/><path d="M349.57,533a17.48,17.48,0,0,1,.2-3.16,1.91,1.91,0,0,1,1.32-1.21c1.11-.09,2.57-.24,3.31.35,1.36,1.07,1.66,3.23.92,4.1C353.59,535.09,351.69,534.94,349.57,533Z"/><path d="M447.37,533.07c-.25-1.64-.46-3.37,1.3-4.5a5.32,5.32,0,0,1,3.48.3,3.44,3.44,0,0,1,1.08,3.07c-.09.41-.05,1-.3,1.2a3.82,3.82,0,0,1-2.71,1.36A4.19,4.19,0,0,1,447.37,533.07Z"/><path d="M451.79,543.18h-3.06l-1.38-1.32v-3.21l1.46-1.27c1,0,2.26-.56,3.31.41C454,539.53,453.54,541.3,451.79,543.18Z"/><path d="M300.8,541.87a14.73,14.73,0,0,0,0-2.48c-.19-1.15,1.24-1.07,1.23-1.95,2.59-.43,4,0,4.62,1.31a4.93,4.93,0,0,1-.29,3.26,3.4,3.4,0,0,1-2.69,1.31C302.34,543.4,301.78,542.49,300.8,541.87Z"/><path d="M520.59,541.94v-3.42l.53.45,1.52-.6-.91-.9c2.25-.49,3.9-.07,4.63,1.2A4.59,4.59,0,0,1,526,542a3.52,3.52,0,0,1-2.73,1.32C522,543.42,521.55,542.41,520.59,541.94Z"/><path d="M520.58,530c1.36-1.79,3.1-2.07,4.62-1.11s1.79,3.36,1,4.22a3.69,3.69,0,0,1-2.8,1.45c-1.26,0-1.81-.88-2.79-1.36Z"/><path d="M375.83,542.61l-1.13-1-.58.46v-3.37c1.34-1.57,3-2,4.58-1a3.33,3.33,0,0,1,1.2,3.94c-.31.57-.81,1.27-1.36,1.42a15.19,15.19,0,0,1-3.11.24Z"/><path d="M414.11,532.87a15.73,15.73,0,0,1,.06-3c.09-.49.78-1,1.3-1.29a4.48,4.48,0,0,1,3.36.41c1,1.2,1.6,2.94,1,3.39-.89.67-1.22,2-2.63,2.1A3.17,3.17,0,0,1,414.11,532.87Z"/><path d="M292.06,547.51c1.19-1.49,2.65-2.11,4-1.15,1,.73,2.5,1.68,1.87,3.39a3.61,3.61,0,0,1-1.5,2,10,10,0,0,1-3.08.32l.4-.57-.83-1.26-.83.66Z"/><path d="M439.84,534.22l-1.09-1-.22.08v-3.44l1.44-1.32c1,.12,2.44-.68,3.3.67.58.92,2,1.89,1,3.1C443.21,533.66,442,535.28,439.84,534.22Z"/><path d="M440.14,543.29c-2-1.34-2-3-1.55-4.61,1.1-1.36,2.56-2.06,3.91-1,1,.73,2.57,1.67,1.85,3.43a3.77,3.77,0,0,1-1.62,1.94A7.48,7.48,0,0,1,440.14,543.29Z"/><path d="M293.37,534.22l-1.09-1-.22.08v-3.45l1.44-1.32c1,.12,2.43-.68,3.3.67.58.92,2,1.89,1,3.1C296.74,533.66,295.52,535.28,293.37,534.22Z"/><path d="M511.76,547.38c1.28-1.29,2.58-2.07,4-.86,1,.84,2.6,1.84,1.61,3.34-.51.77-.6,2.44-2.45,2.22a3.8,3.8,0,0,1-3.21-1.61Z"/><path d="M511.82,533.16c-.43-2.62-.05-4.06,1.27-4.63.81-.35,3.27-.06,3.41.5.28,1.14,2,2.08.9,3.31-.68.77-1.21,1.9-2.51,2.11A3.45,3.45,0,0,1,511.82,533.16Z"/><path d="M487.36,542c0-.43-.07-.89-.08-1.36,0-.69,0-1.39,0-2,1.32-1.1,2.57-2.21,4.15-.83,1,.87,2.6,1.77,1.55,3.4-.54.83-.8,2.36-2.5,2.08C489.56,543.14,489.53,543.3,487.36,542Z"/><path d="M366.72,534.35l-1.43-1.3c0-.39-.09-1-.09-1.62s.05-1.16.08-1.57a3.38,3.38,0,0,1,4.56-1c.81.38,1.66,2.75,1.26,3.28a6.94,6.94,0,0,1-2.08,2.16C368.36,534.63,367.37,534.35,366.72,534.35Z"/><path d="M316.49,550.57v-3.15l1.35-1.29a3.33,3.33,0,0,1,3.74,1.3c.6.79,1.14,1.51.71,2.42a3.94,3.94,0,0,1-1.57,1.92,8.55,8.55,0,0,1-2.83.28Z"/><path d="M340.88,533.26v-3.42a3.34,3.34,0,0,1,4.67-.91c1,.59,1.54,3,1.07,3.45A18.67,18.67,0,0,0,345,534c-.62.85-1.46.52-2.12.4A7.3,7.3,0,0,1,340.88,533.26Z"/><path d="M316.48,532.91v-3.14l.28.23,1.42-.88-.51-.63c1.25.19,2.76-.7,3.67.88.53.92,1.8,1.9.83,3-.7.78-1.25,1.93-2.56,2.1A3,3,0,0,1,316.48,532.91Z"/><path d="M464.21,528.47c1.2.19,2.66-.63,3.51.78.55.91,1.77,1.77,1,3a5.33,5.33,0,0,1-2.09,2,5.27,5.27,0,0,1-2.3.07l-1.36-1.3v-3.37l.43.39,1.19-1Z"/><path d="M598.24,537.28c2.38,0,3.32.9,3.31,3s-1.1,3-3.22,3-2.86-.76-2.83-3.07c0-.6,0-1.42.32-1.75C596.5,537.78,597.19,536.82,598.24,537.28Z"/><path d="M596.84,528.5c1.15.22,2.43-.58,3.62.56a3.17,3.17,0,0,1,.77,4c-.68,1.42-1.77,1.63-4.37,1.29a4,4,0,0,1-1.44-2.87A4.38,4.38,0,0,1,596.84,528.5Z"/><path d="M768,528.52c1.48-.2,3.17-.36,4.16,1.52a4.15,4.15,0,0,1-.2,3.16,4,4,0,0,1-2.76,1.3c-1.28.07-1.79-.93-2.75-1.32C766.24,531.49,765.89,529.77,768,528.52Z"/><path d="M619.86,533a17.48,17.48,0,0,1,.2-3.16,1.94,1.94,0,0,1,1.33-1.21c1.11-.09,2.56-.24,3.3.35,1.36,1.07,1.66,3.23.93,4.1C623.88,535.09,622,534.94,619.86,533Z"/><path d="M717.67,533.07c-.26-1.64-.47-3.37,1.3-4.5a5.34,5.34,0,0,1,3.48.3,3.47,3.47,0,0,1,1.08,3.07c-.1.41,0,1-.31,1.2a3.82,3.82,0,0,1-2.71,1.36A4.17,4.17,0,0,1,717.67,533.07Z"/><path d="M722.08,543.18H719l-1.37-1.32v-3.21l1.45-1.27c1,0,2.27-.56,3.32.41C724.28,539.53,723.84,541.3,722.08,543.18Z"/><path d="M571.09,541.87a14.73,14.73,0,0,0,0-2.48c-.19-1.15,1.24-1.07,1.24-1.95,2.59-.43,4,0,4.62,1.31a5,5,0,0,1-.29,3.26,3.4,3.4,0,0,1-2.69,1.31C572.63,543.4,572.07,542.49,571.09,541.87Z"/><path d="M790.88,541.94v-3.42l.53.45,1.52-.6-.91-.9c2.26-.49,3.91-.07,4.64,1.2a4.64,4.64,0,0,1-.37,3.34,3.53,3.53,0,0,1-2.73,1.32C792.27,543.42,791.84,542.41,790.88,541.94Z"/><path d="M790.88,530c1.35-1.79,3.09-2.07,4.62-1.11s1.79,3.36,1,4.22a3.67,3.67,0,0,1-2.8,1.45c-1.26,0-1.8-.88-2.78-1.36Z"/><path d="M646.12,542.61l-1.13-1-.57.46v-3.37c1.34-1.57,3-2,4.57-1a3.33,3.33,0,0,1,1.2,3.94c-.31.57-.81,1.27-1.36,1.42a15.19,15.19,0,0,1-3.11.24Z"/><path d="M684.4,532.87a15.73,15.73,0,0,1,.06-3c.09-.49.78-1,1.3-1.29a4.48,4.48,0,0,1,3.36.41c1,1.2,1.61,2.94,1,3.39-.9.67-1.23,2-2.63,2.1A3.19,3.19,0,0,1,684.4,532.87Z"/><path d="M562.36,547.51c1.19-1.49,2.64-2.11,4-1.15,1,.73,2.49,1.68,1.87,3.39a3.63,3.63,0,0,1-1.51,2,9.92,9.92,0,0,1-3.07.32l.39-.57-.83-1.26-.82.66Z"/><path d="M710.14,534.22l-1.1-1-.22.08v-3.44l1.44-1.32c1,.12,2.44-.68,3.3.67.59.92,2,1.89,1,3.1C713.5,533.66,712.28,535.28,710.14,534.22Z"/><path d="M710.44,543.29c-2-1.34-2-3-1.55-4.61,1.09-1.36,2.56-2.06,3.9-1,1,.73,2.57,1.67,1.86,3.43A3.83,3.83,0,0,1,713,543,7.42,7.42,0,0,1,710.44,543.29Z"/><path d="M563.67,534.22l-1.09-1-.23.08v-3.45l1.44-1.32c1,.12,2.44-.68,3.3.67.58.92,2,1.89,1,3.1C567,533.66,565.81,535.28,563.67,534.22Z"/><path d="M782.06,547.38c1.27-1.29,2.57-2.07,4-.86,1,.84,2.6,1.84,1.61,3.34-.51.77-.59,2.44-2.45,2.22a3.78,3.78,0,0,1-3.2-1.61Z"/><path d="M782.11,533.16c-.43-2.62,0-4.06,1.27-4.63.81-.35,3.27-.06,3.41.5.28,1.14,2,2.08.9,3.31-.68.77-1.21,1.9-2.5,2.11A3.46,3.46,0,0,1,782.11,533.16Z"/><path d="M757.65,542c0-.43-.07-.89-.07-1.36,0-.69,0-1.39,0-2,1.32-1.1,2.57-2.21,4.16-.83,1,.87,2.59,1.77,1.54,3.4-.53.83-.79,2.36-2.5,2.08C759.85,543.14,759.82,543.3,757.65,542Z"/><path d="M637,534.35l-1.43-1.3c0-.39-.08-1-.09-1.62s.06-1.16.08-1.57a3.39,3.39,0,0,1,4.57-1c.81.38,1.65,2.75,1.26,3.28a7.05,7.05,0,0,1-2.08,2.16C638.66,534.63,637.66,534.35,637,534.35Z"/><path d="M586.78,550.57v-3.15l1.36-1.29a3.32,3.32,0,0,1,3.73,1.3c.6.79,1.14,1.51.71,2.42a3.87,3.87,0,0,1-1.56,1.92,8.64,8.64,0,0,1-2.84.28Z"/><path d="M611.17,533.26v-3.42a3.34,3.34,0,0,1,4.67-.91c1,.59,1.54,3,1.07,3.45a20.06,20.06,0,0,0-1.62,1.57c-.62.85-1.46.52-2.12.4A7.2,7.2,0,0,1,611.17,533.26Z"/><path d="M586.78,532.91v-3.14l.28.23,1.42-.88-.51-.63c1.25.19,2.76-.7,3.66.88.53.92,1.8,1.9.83,3-.7.78-1.25,1.93-2.56,2.1A3,3,0,0,1,586.78,532.91Z"/><path d="M734.51,528.47c1.19.19,2.66-.63,3.51.78.54.91,1.76,1.77,1,3a3.6,3.6,0,0,1-4.39,2.09l-1.36-1.3v-3.37l.43.39,1.2-1Z"/><path class="cls-1" d="M180.42,182.62v-5.51q16.31-.51,21.71-5.77T207.51,150V46.66q0-17.05-14.54-17.06a53.13,53.13,0,0,0-9.79,1.26q-2.25.5-4.26.75V26.09L244.64,0h13.05V158.54q0,10.8,4.26,14.55t17.31,4v5.51Z"/><path class="cls-1" d="M338,75.76Q348,66,355.65,61.58t19.19-4.38q15.56,0,25.21,9t9.65,29.1v68.23q0,11.3,13.55,13.55v5.51H356v-5.51a12.68,12.68,0,0,0,7.14-4.39c1.59-2.09,2.38-5.15,2.38-9.16V97.08q0-10.27-2-14.55t-7.78-4.26a15.67,15.67,0,0,0-9.15,2.88,27.45,27.45,0,0,0-7.15,7.4v75c0,4,.79,7.07,2.38,9.16a12.68,12.68,0,0,0,7.15,4.39v5.51H280.27v-5.51q13.55-2.27,13.54-13.55V79.27q0-11.3-13.54-13.54V60.21H338Z"/><path class="cls-1" d="M539.15,145.5q-7.53,18.81-21.83,29.47T482,185.63a56.52,56.52,0,0,1-23.07-4.76,55.67,55.67,0,0,1-18.82-13.55,62.34,62.34,0,0,1-12.42-20.57,72.15,72.15,0,0,1-4.39-25.33,69.31,69.31,0,0,1,4.14-23.58,63.65,63.65,0,0,1,12.17-20.7,58.47,58.47,0,0,1,19.69-14.55,61.85,61.85,0,0,1,26.21-5.39,67.79,67.79,0,0,1,21.2,3,41.37,41.37,0,0,1,14.8,8,34.07,34.07,0,0,1,8.41,10.92,27.49,27.49,0,0,1,2.76,11.66q0,10-5.4,15.81t-14.92,5.76q-8.79,0-14-5.64A18.41,18.41,0,0,1,493,93.82c0-1.84.16-4.43.5-7.78a74.12,74.12,0,0,0,.5-7.52,13.67,13.67,0,0,0-2.76-8.91q-2.76-3.37-6.27-3.38-7,0-11.53,9.28t-4.52,31.36q0,26.09,8.9,40.89t25.71,14.8q7.55,0,15.81-5.77a40.39,40.39,0,0,0,12.8-14.3Z"/><path class="cls-1" d="M578.78,117.9A62.79,62.79,0,0,0,582,135a54.94,54.94,0,0,0,7.27,14.3A36.34,36.34,0,0,0,599.47,159a22.17,22.17,0,0,0,11.92,3.52,26.25,26.25,0,0,0,16.69-5.4A46,46,0,0,0,640,142.49l7,3Q639.5,164.31,625.19,175t-35.37,10.66a48,48,0,0,1-22.45-5.39,57.26,57.26,0,0,1-18.06-14.67,71.16,71.16,0,0,1-11.92-20.82,66,66,0,0,1,0-46.66,71.22,71.22,0,0,1,11.92-20.83,57.54,57.54,0,0,1,18.06-14.67,48.11,48.11,0,0,1,22.45-5.39q14.8,0,25.46,5a48.57,48.57,0,0,1,17.56,13.67,56.13,56.13,0,0,1,10,19.45A80.43,80.43,0,0,1,646,117.9Zm28.1-9q0-23.82-3.64-33.24t-10.41-9.4q-6.78,0-10.41,9.4t-3.64,33.24Z"/><path class="cls-1" d="M94.76,414v-5.52q7.77-.75,12.16-5.39t9.66-18.44L174,235.36h17.56l63.46,160.05q3.27,8,5.9,10.28t8.91,2.76V414H179.55v-5.52h11.29a10.85,10.85,0,0,0,7.4-2.51,8.5,8.5,0,0,0,2.88-6.77,22.33,22.33,0,0,0-.75-5.64c-.5-1.92-1.17-4.06-2-6.4l-11.79-29.85H139.16l-9,25.84a78.85,78.85,0,0,0-2.51,7.77,25.88,25.88,0,0,0-.75,6.27,9.49,9.49,0,0,0,4.39,8.28q4.38,3,15.17,3V414Zm68-119.41-20.07,52.68h39.89Z"/><path class="cls-1" d="M385,305.1H366.43q11,10.29,11,25.84,0,20.82-15.8,31.35t-40.89,10.54q-15.55,0-20.57,1.76t-5,6q0,3.25,3.51,4.76t12.79,1.51h24.84q25.59,0,37.88,7.27T386.51,419q0,19.06-15.81,27.84t-47.41,8.78a179.82,179.82,0,0,1-28.22-1.88q-11.67-1.87-18.69-5t-10.16-7.28a14.48,14.48,0,0,1-3.14-8.9q0-8,4.52-12.17t12.54-4.89V415a37.73,37.73,0,0,1-10.28-8.91,18.57,18.57,0,0,1-3.77-11.67,22.75,22.75,0,0,1,7.65-17.68,32.94,32.94,0,0,1,18.95-8.15v-.5a49.49,49.49,0,0,1-20.45-14.93,35.43,35.43,0,0,1-7.65-22.7q0-19.81,16.05-30.86t39.39-11a84.3,84.3,0,0,1,15.8,1.76,66.85,66.85,0,0,0,7.53,1.25H385ZM317,422c-9.2,0-15.29,1-18.31,3.14a10.42,10.42,0,0,0-4.51,9.15q0,6.27,7.4,8.78T323,445.58q29.34,0,29.35-11.29a9.85,9.85,0,0,0-5.52-9.41Q341.35,422,328.55,422Zm-6.64-115.4q-3.64,7-3.64,24.09t3.64,24.08q3.63,7,10.66,7t10.66-7q3.63-7,3.64-24.08t-3.64-24.09q-3.65-7-10.66-7T310.37,306.6Z"/><path class="cls-1" d="M495.38,386.38c0,4.51.45,7.57,1.37,9.15a4.5,4.5,0,0,0,4.15,2.39,5.72,5.72,0,0,0,3.26-1.26,7.53,7.53,0,0,1,4-1.25c1.84,0,2.76,1,2.76,3q0,2.76-2.76,6a29.64,29.64,0,0,1-7.65,6.14,50.77,50.77,0,0,1-10.41,4.65A35.06,35.06,0,0,1,479.57,417q-9.78,0-15.3-4.51A51.62,51.62,0,0,1,454,400.68a3.22,3.22,0,0,0-.74-1.26,85,85,0,0,1-19.45,12.8,48.35,48.35,0,0,1-20.7,4.76q-12.78,0-20.44-7.9T385,388.13a26.65,26.65,0,0,1,6.77-17.56,64.34,64.34,0,0,1,16.81-13.92,148.58,148.58,0,0,1,20.07-9.91q10-4,20.82-7.52l1.76-.51V316.39q0-9.28-3.27-14.05c-2.17-3.17-5.93-4.77-11.28-4.77a13.26,13.26,0,0,0-8.66,2.76,8.44,8.44,0,0,0-3.39,6.78c0,1.84.76,4.6,2.26,8.27q2.76,6.78,2.76,11.29a12.15,12.15,0,0,1-5.89,10.66q-5.91,3.9-14.68,3.89-9.29,0-14.93-5.39t-5.64-15.68q0-14.55,14.93-23.08t38.76-8.53q16.05,0,26.46,2.76T485,299.45a28.25,28.25,0,0,1,8.15,13.05,66,66,0,0,1,2.26,18.44ZM451.23,349l-3,1.51c-6.18,3-10.9,6.23-14.17,9.65s-4.89,8.83-4.89,16.18q0,7.79,2.64,11.67t9.15,3.89a10.82,10.82,0,0,0,5.9-1.38,23.14,23.14,0,0,0,4.39-3.89Z"/><path class="cls-1" d="M508.17,414v-5.52q13.55-2.25,13.54-13.54V310.62q0-11.3-13.54-13.55v-5.52h59.2V394.91q0,11.28,13.55,13.54V414Zm19.69-174.72A23.64,23.64,0,1,1,521,255.93,22.72,22.72,0,0,1,527.86,239.25Z"/><path class="cls-1" d="M638.36,307.11q10-9.8,17.68-14.18t19.19-4.39q15.56,0,25.22,9t9.65,29.1v68.24q0,11.28,13.55,13.54V414H656.43v-5.52a12.58,12.58,0,0,0,7.14-4.39q2.38-3.13,2.38-9.15V328.43c0-6.86-.66-11.7-2-14.55s-3.92-4.27-7.77-4.27A15.73,15.73,0,0,0,647,312.5a27.42,27.42,0,0,0-7.14,7.4v75q0,6,2.38,9.15a12.57,12.57,0,0,0,7.15,4.39V414H580.67v-5.52q13.55-2.25,13.54-13.54V310.62q0-11.3-13.54-13.55v-5.52h57.69Z"/></g></g></svg>