<svg xmlns="http://www.w3.org/2000/svg" viewBox="0 0 766.41 555.83"><defs><style>.cls-1{fill:#010101;}</style></defs><title>Asset 1</title><g id="Layer_2" data-name="Layer 2"><g id="Layer_1-2" data-name="Layer 1"><path class="cls-1" d="M103.08,219.74V213.1q19.61-.6,26.11-6.95t6.48-25.65V56.14q0-20.52-17.5-20.52a63.78,63.78,0,0,0-11.77,1.51c-1.82.4-3.52.7-5.13.9V31.39L180.35,0H196V190.76q0,13,5.13,17.51T222,213.1v6.64Z"/><path class="cls-1" d="M292.62,91.16Q304.7,79.39,313.9,74.1T337,68.82q18.72,0,30.34,10.86t11.62,35v82.1q0,13.57,16.3,16.3v6.64H314.36V213.1a15.27,15.27,0,0,0,8.6-5.29q2.87-3.76,2.87-11v-80q0-12.37-2.42-17.51c-1.61-3.41-4.72-5.13-9.35-5.13a18.86,18.86,0,0,0-11,3.47,33.1,33.1,0,0,0-8.6,8.91V196.8q0,7.24,2.87,11a15.2,15.2,0,0,0,8.6,5.29v6.64h-82.7V213.1q16.29-2.73,16.29-16.3V95.38q0-13.59-16.29-16.3V72.44h69.41Z"/><path class="cls-1" d="M534.7,175.07q-9.06,22.63-26.26,35.46t-42.56,12.83a68,68,0,0,1-27.77-5.74,67,67,0,0,1-22.64-16.3,74.87,74.87,0,0,1-14.94-24.75,86.66,86.66,0,0,1-5.28-30.48,83.4,83.4,0,0,1,5-28.37,76.62,76.62,0,0,1,14.64-24.9,70.23,70.23,0,0,1,23.69-17.51,74.27,74.27,0,0,1,31.54-6.49,81.84,81.84,0,0,1,25.51,3.62q11,3.63,17.81,9.66a40.91,40.91,0,0,1,10.11,13.13,33,33,0,0,1,3.32,14q0,12.09-6.49,19t-18,6.94q-10.56,0-16.9-6.79a22.11,22.11,0,0,1-6.34-15.54c0-2.22.2-5.33.61-9.36.4-3.82.59-6.84.59-9q0-6.65-3.31-10.72t-7.55-4.08q-8.46,0-13.88,11.17t-5.44,37.73q0,31.39,10.72,49.2t30.93,17.81q9.07,0,19-6.94a48.34,48.34,0,0,0,15.4-17.21Z"/><path class="cls-1" d="M582.38,141.86a75.42,75.42,0,0,0,3.93,20.53,65.79,65.79,0,0,0,8.75,17.2,43.37,43.37,0,0,0,12.22,11.77,26.71,26.71,0,0,0,14.34,4.23q11.77,0,20.08-6.49A55.53,55.53,0,0,0,656,171.44l8.45,3.63q-9,22.63-26.26,35.46t-42.56,12.83a57.92,57.92,0,0,1-27-6.49,69.11,69.11,0,0,1-21.73-17.66,85.42,85.42,0,0,1-14.33-25.05,79.22,79.22,0,0,1,0-56.14A85.73,85.73,0,0,1,546.92,93a69.21,69.21,0,0,1,21.73-17.65,57.8,57.8,0,0,1,27-6.49q17.82,0,30.64,6A58.29,58.29,0,0,1,647.43,91.3a67.54,67.54,0,0,1,12.07,23.4,96.65,96.65,0,0,1,3.78,27.16ZM616.19,131q0-28.68-4.38-40T599.28,79.68q-8.14,0-12.52,11.32t-4.38,40Z"/><path class="cls-1" d="M0,498.1v-6.64q9.36-.91,14.64-6.49t11.62-22.19L95.38,283.19h21.13l76.36,192.57q3.93,9.66,7.1,12.38t10.71,3.32v6.64H102v-6.64H115.6a13.09,13.09,0,0,0,8.91-3,10.26,10.26,0,0,0,3.47-8.15,27,27,0,0,0-.9-6.79c-.61-2.32-1.41-4.88-2.42-7.7l-14.19-35.92h-57L42.56,461a93.25,93.25,0,0,0-3,9.36,31.14,31.14,0,0,0-.9,7.54,11.43,11.43,0,0,0,5.28,10q5.28,3.63,18.26,3.63v6.64ZM81.8,354.42,57.65,417.81h48Z"/><path class="cls-1" d="M349.22,367.1H326.88q13.29,12.38,13.28,31.09,0,25.05-19,37.73T272,448.59q-18.72,0-24.75,2.12t-6,7.24q0,3.93,4.23,5.74t15.39,1.81h29.89q30.78,0,45.57,8.75T351,504.13q0,22.93-19,33.51T275,548.2a217.1,217.1,0,0,1-34-2.26q-14-2.27-22.49-6t-12.23-8.75a17.45,17.45,0,0,1-3.77-10.72q0-9.66,5.43-14.64t15.1-5.88v-.61a45.14,45.14,0,0,1-12.38-10.71,22.35,22.35,0,0,1-4.53-14q0-13,9.21-21.28t22.79-9.81v-.6q-15.4-6.35-24.6-18a42.66,42.66,0,0,1-9.21-27.32q0-23.83,19.32-37.12t47.39-13.28a102,102,0,0,1,19,2.11,81.92,81.92,0,0,0,9.06,1.51h50.1Zm-81.8,140.66q-16.6,0-22,3.77c-3.62,2.51-5.43,6.19-5.43,11q0,7.55,8.9,10.57t25.81,3q35.31,0,35.31-13.59,0-7.85-6.64-11.31t-22-3.47Zm-8-138.85q-4.37,8.46-4.37,29t4.37,29q4.38,8.46,12.83,8.45t12.83-8.45q4.38-8.44,4.38-29t-4.38-29q-4.38-8.45-12.83-8.45T259.42,368.91Z"/><path class="cls-1" d="M482,464.89q0,8.16,1.66,11a5.38,5.38,0,0,0,5,2.87,6.88,6.88,0,0,0,3.93-1.51,9.05,9.05,0,0,1,4.83-1.51q3.31,0,3.31,3.62c0,2.22-1.1,4.63-3.31,7.25a35.7,35.7,0,0,1-9.21,7.39,61,61,0,0,1-12.52,5.58A41.84,41.84,0,0,1,463,501.72q-11.76,0-18.4-5.44a61.73,61.73,0,0,1-12.38-14.18,4,4,0,0,0-.9-1.51A102,102,0,0,1,407.93,496a58.13,58.13,0,0,1-24.9,5.74q-15.39,0-24.6-9.51t-9.2-25.2q0-11.47,8.14-21.13a77.46,77.46,0,0,1,20.23-16.75,178.73,178.73,0,0,1,24.14-11.93q12.08-4.81,25.06-9.05l2.11-.61V380.68q0-11.16-3.93-16.9T411.41,358A16,16,0,0,0,401,361.36a10.16,10.16,0,0,0-4.08,8.15q0,3.33,2.72,10,3.31,8.16,3.32,13.59a14.6,14.6,0,0,1-7.09,12.82q-7.11,4.69-17.66,4.68-11.18,0-18-6.49t-6.79-18.86q0-17.5,18-27.77t46.64-10.26q19.31,0,31.84,3.32t19.62,9.81A34,34,0,0,1,479.32,376,79.6,79.6,0,0,1,482,398.19Zm-53.12-45-3.63,1.81q-11.16,5.43-17,11.62t-5.88,19.47q0,9.36,3.17,14t11,4.67a13,13,0,0,0,7.1-1.66,27.47,27.47,0,0,0,5.28-4.67Z"/><path class="cls-1" d="M497.42,498.1v-6.64q16.31-2.73,16.3-16.3V373.74q0-13.59-16.3-16.3V350.8h71.23V475.16q0,13.57,16.3,16.3v6.64Zm23.69-210.23a28.44,28.44,0,1,1-8.29,20.07A27.34,27.34,0,0,1,521.11,287.87Z"/><path class="cls-1" d="M654.07,369.51q12.07-11.76,21.28-17.05t23.09-5.28q18.72,0,30.33,10.86t11.62,35v82.1q0,13.57,16.3,16.3v6.64H675.81v-6.64a15.24,15.24,0,0,0,8.59-5.29q2.86-3.76,2.87-11v-80q0-12.37-2.42-17.51c-1.61-3.41-4.72-5.13-9.35-5.13a18.91,18.91,0,0,0-11,3.47,33.07,33.07,0,0,0-8.59,8.91v90.25q0,7.24,2.86,11a15.2,15.2,0,0,0,8.6,5.29v6.64h-82.7v-6.64q16.3-2.73,16.3-16.3V373.74q0-13.59-16.3-16.3V350.8h69.42Z"/><path class="cls-1" d="M231.71,227.37H109.79v-9.6l1.45,0c12.63-.39,21.08-2.58,25.11-6.52s6-12.18,6-24.58V62.27c0-12.8-5.24-19-16-19a62.56,62.56,0,0,0-11.48,1.48c-1.87.41-3.59.72-5.24.92l-1.68.2V36.5L188.27,4.63h17.48V196.89c0,8.16,1.56,13.67,4.63,16.38s9.82,4.27,19.86,4.46l1.47,0Zm-118.92-3H228.71v-3.68c-10.1-.33-16.75-2-20.31-5.17-3.8-3.35-5.65-9.44-5.65-18.63V7.63h-13.9L111,38.54v3.89c1-.17,2.14-.38,3.3-.64a65.85,65.85,0,0,1,12.1-1.54c15.71,0,19,12,19,22V186.63c0,13.42-2.27,22.17-6.94,26.73-4.49,4.37-12.89,6.77-25.66,7.31Z"/><path class="cls-1" d="M405,227.37H321.08v-9.3l1.12-.29A13.92,13.92,0,0,0,330,213c1.7-2.24,2.56-5.64,2.56-10.11v-80c0-8-.76-13.66-2.27-16.87-1.36-2.87-4-4.27-8-4.27A17.22,17.22,0,0,0,312.11,105a31.26,31.26,0,0,0-7.95,8.13v89.79c0,4.48.86,7.88,2.56,10.1a13.77,13.77,0,0,0,7.78,4.75l1.12.29v9.3h-85.7V218l1.25-.21c10.13-1.69,15.05-6.54,15.05-14.82V101.51c0-8.29-4.92-13.13-15-14.82l-1.26-.21V77.07h72.42v16.7c7.08-6.66,13.47-11.65,19-14.84,6.35-3.64,14.37-5.48,23.84-5.48,12.81,0,23.36,3.79,31.36,11.27s12.09,19.65,12.09,36.11v82.1c0,8.28,4.93,13.13,15,14.82L405,218Zm-80.88-3H402v-3.89c-10.81-2.16-16.3-8.06-16.3-17.55v-82.1c0-15.59-3.75-27-11.14-33.92s-17.28-10.46-29.31-10.46c-8.94,0-16.46,1.71-22.35,5.08s-13.06,9.11-21,16.83l-2.55,2.48V80.07H232.92V84c10.82,2.15,16.3,8.05,16.3,17.55V202.93c0,9.49-5.48,15.39-16.3,17.55v3.89h79.7v-4a16.12,16.12,0,0,1-8.29-5.5c-2.11-2.76-3.17-6.77-3.17-11.92v-90.7l.25-.38a34.57,34.57,0,0,1,9-9.31,20.44,20.44,0,0,1,11.87-3.74c5.23,0,8.84,2,10.71,6,1.72,3.66,2.56,9.6,2.56,18.15v80c0,5.14-1.07,9.15-3.17,11.92a16.21,16.21,0,0,1-8.29,5.5Z"/><path class="cls-1" d="M474.09,231a69.75,69.75,0,0,1-28.37-5.86,68.94,68.94,0,0,1-23.14-16.66,76.78,76.78,0,0,1-15.24-25.24,88.53,88.53,0,0,1-5.38-31A85.5,85.5,0,0,1,407,123.34,78.56,78.56,0,0,1,422,98a72,72,0,0,1,24.2-17.88,76.13,76.13,0,0,1,32.17-6.63,83.64,83.64,0,0,1,26,3.69c7.5,2.47,13.67,5.82,18.34,10a42.74,42.74,0,0,1,10.47,13.61,34.61,34.61,0,0,1,3.47,14.67c0,8.4-2.32,15.15-6.9,20s-11,7.42-19,7.42c-7.45,0-13.5-2.44-18-7.26A23.72,23.72,0,0,1,485.87,119c0-2.31.21-5.51.62-9.51.39-3.73.59-6.72.59-8.9,0-4.06-1-7.34-3-9.77s-4-3.53-6.39-3.53c-5,0-9.15,3.38-12.53,10.33-3.51,7.2-5.28,19.67-5.28,37.07,0,20.56,3.53,36.85,10.5,48.43s16.61,17.08,29.65,17.08c5.7,0,11.81-2.24,18.16-6.67a47.14,47.14,0,0,0,14.93-16.68l.64-1.22,11.07,4.74-.55,1.36c-6.11,15.29-15.11,27.43-26.75,36.11S491.25,231,474.09,231Zm4.23-154.54a73.24,73.24,0,0,0-30.91,6.35,69.13,69.13,0,0,0-23.2,17.13,75.76,75.76,0,0,0-14.35,24.42,82.36,82.36,0,0,0-4.9,27.87,85.58,85.58,0,0,0,5.19,30,73.77,73.77,0,0,0,14.64,24.26,65.92,65.92,0,0,0,22.14,15.94A66.77,66.77,0,0,0,474.09,228c16.5,0,30.52-4.22,41.67-12.53C526.6,207.37,535.08,196.12,541,182l-5.85-2.5A50.25,50.25,0,0,1,519.93,196c-6.86,4.78-13.55,7.21-19.88,7.21-14,0-24.83-6.24-32.22-18.53-7.26-12.05-10.93-28.87-10.93-50,0-18.11,1.82-30.67,5.59-38.38,3.87-8,9-12,15.22-12,3.27,0,6.2,1.56,8.71,4.63s3.66,6.9,3.66,11.67c0,2.28-.21,5.38-.61,9.21s-.6,7-.6,9.2a20.49,20.49,0,0,0,5.94,14.52c4,4.25,9.13,6.31,15.81,6.31,7.17,0,12.85-2.17,16.86-6.46s6.09-10.38,6.09-18a31.54,31.54,0,0,0-3.19-13.4,39.62,39.62,0,0,0-9.75-12.64c-4.35-3.87-10.17-7-17.28-9.36A80.69,80.69,0,0,0,478.32,76.45Z"/><path class="cls-1" d="M603.88,231a59.54,59.54,0,0,1-27.7-6.66,70.92,70.92,0,0,1-22.2-18,87.76,87.76,0,0,1-14.59-25.49,80.76,80.76,0,0,1,0-57.18A87.63,87.63,0,0,1,554,98.14a70.92,70.92,0,0,1,22.2-18,59.54,59.54,0,0,1,27.7-6.66c12,0,22.55,2.08,31.27,6.18A60,60,0,0,1,656.81,96.5a69.2,69.2,0,0,1,12.35,23.91A99,99,0,0,1,673,148v1.5H592.2A74,74,0,0,0,595.94,168a64.58,64.58,0,0,0,8.55,16.82,42.32,42.32,0,0,0,11.8,11.37,25.28,25.28,0,0,0,13.54,4c7.48,0,13.92-2.08,19.16-6.17a54.45,54.45,0,0,0,13.94-17.19l.65-1.21,11,4.74-.54,1.36C668,197,659,209.18,647.33,217.86S621,231,603.88,231Zm0-154.54a56.67,56.67,0,0,0-26.32,6.32,68.1,68.1,0,0,0-21.27,17.28,84.71,84.71,0,0,0-14.08,24.62,77.75,77.75,0,0,0,0,55.1,84.51,84.51,0,0,0,14.09,24.62,68,68,0,0,0,21.27,17.28A56.64,56.64,0,0,0,603.88,228c16.5,0,30.51-4.22,41.66-12.53,10.85-8.09,19.33-19.34,25.21-33.47l-5.85-2.5a56.12,56.12,0,0,1-14.07,16.92c-5.77,4.52-12.84,6.81-21,6.81a28.35,28.35,0,0,1-15.13-4.45,45.09,45.09,0,0,1-12.64-12.17,67.48,67.48,0,0,1-9-17.6,77.6,77.6,0,0,1-4-20.92l-.09-1.59h81a95.57,95.57,0,0,0-3.7-25.24,66.29,66.29,0,0,0-11.81-22.88,57.15,57.15,0,0,0-20.59-16C625.56,78.43,615.47,76.45,603.88,76.45Zm22,62.18H589.1v-1.5c0-19.5,1.46-32.75,4.48-40.54,3.15-8.14,7.83-12.28,13.92-12.28s10.78,4.14,13.92,12.28c3,7.7,4.49,21.34,4.49,40.54Zm-33.81-3h30.8c-.07-18-1.51-30.8-4.28-38-2.69-7-6.33-10.36-11.12-10.36s-8.43,3.39-11.12,10.36C593.61,104.81,592.18,117.57,592.1,135.63Z"/><path class="cls-1" d="M220.39,505.73H108.73v-9.64h15.09a11.55,11.55,0,0,0,7.92-2.65,8.75,8.75,0,0,0,2.95-7,25.29,25.29,0,0,0-.85-6.41c-.6-2.3-1.4-4.84-2.38-7.58l-13.79-34.92h-55L52.19,467.6a93,93,0,0,0-3,9.22,29.78,29.78,0,0,0-.86,7.18A10,10,0,0,0,53,492.73c3.25,2.23,9.11,3.36,17.41,3.36h1.5v9.64H6.71v-9.51l1.36-.13c5.84-.56,10.45-2.59,13.69-6s7.18-10.86,11.31-21.69l69.49-180.56h23.18l.38.95,76.36,192.57c3.12,7.68,5.35,10.65,6.68,11.79,1.86,1.59,5.17,2.59,9.85,3l1.38.11Zm-108.66-3H217.39V499c-4.66-.52-8-1.68-10.19-3.54s-4.78-6.23-7.5-13l-76-191.63H104.62L35.88,469.45c-4.34,11.36-8.25,18.78-11.94,22.68-3.49,3.7-8.27,6-14.23,6.79v3.81H68.89v-3.66c-8.24-.13-14-1.4-17.61-3.87A12.93,12.93,0,0,1,45.35,484a32.76,32.76,0,0,1,.95-7.91,96.1,96.1,0,0,1,3.07-9.51l11.2-32.07h59.14l14.56,36.87c1,2.86,1.85,5.49,2.47,7.86a28.64,28.64,0,0,1,.95,7.18,11.71,11.71,0,0,1-4,9.28,14.52,14.52,0,0,1-9.88,3.39H111.73ZM116,425.44H63.69L90,356.32Zm-48-3h43.65L90,364.79Z"/><path class="cls-1" d="M283.19,555.83a220.37,220.37,0,0,1-34.2-2.28c-9.45-1.53-17.14-3.6-22.86-6.15s-10.15-5.71-12.81-9.22a18.93,18.93,0,0,1-4.07-11.62c0-6.84,2-12.14,5.91-15.74A24.87,24.87,0,0,1,227.84,505a44.41,44.41,0,0,1-10.13-9.36,23.84,23.84,0,0,1-4.84-14.95c0-9.05,3.26-16.58,9.7-22.39a40.29,40.29,0,0,1,19.52-9.56A59.93,59.93,0,0,1,220.58,432a44.3,44.3,0,0,1-9.52-28.25c0-16.34,6.71-29.25,20-38.36,13.08-9,29.31-13.54,48.24-13.54a103.7,103.7,0,0,1,19.3,2.14,81.77,81.77,0,0,0,8.84,1.48h51.53v19.3H338.7c7.42,8.07,11.18,18,11.18,29.59,0,17.15-6.62,30.27-19.68,39-12.87,8.57-29.7,12.92-50,12.92-12.23,0-20.39.69-24.25,2-4.51,1.58-5,4.09-5,5.83,0,1.26.34,3.08,3.31,4.36,2.62,1.12,7.6,1.69,14.81,1.69h29.88c20.7,0,36.29,3,46.34,9,10.3,6.1,15.53,16.59,15.53,31.17,0,15.8-6.66,27.52-19.79,34.82C328.12,552.21,308.68,555.83,283.19,555.83Zm-3.93-201c-18.31,0-34,4.38-46.54,13-12.38,8.52-18.66,20.6-18.66,35.89a41.34,41.34,0,0,0,8.88,26.39c5.95,7.51,14,13.4,24,17.5l.93.39v2.94l-1.34.15c-8.7,1-16.09,4.15-21.95,9.44s-8.71,11.88-8.71,20.16a21,21,0,0,0,4.21,13.12,44.06,44.06,0,0,0,12,10.36l.71.43v2.81l-1.36.13c-6.07.57-10.86,2.42-14.22,5.5s-4.94,7.56-4.94,13.53a16,16,0,0,0,3.46,9.81c2.35,3.1,6.27,5.89,11.65,8.29s12.92,4.44,22.11,5.93a216.74,216.74,0,0,0,33.72,2.24c25,0,43.92-3.49,56.31-10.37s18.25-17.36,18.25-32.2c0-13.63-4.6-23-14.06-28.59s-24.66-8.54-44.81-8.54H269c-7.73,0-13-.63-16-1.94-4.24-1.81-5.13-4.87-5.13-7.11,0-2.83,1.22-6.62,7-8.66,4.24-1.48,12.49-2.2,25.24-2.2,19.74,0,36-4.18,48.37-12.42,12.17-8.12,18.35-20.39,18.35-36.48,0-12-4.31-22.08-12.81-30l-2.78-2.6h24.64v-13.3H307.2a82.16,82.16,0,0,1-9.23-1.53A100.62,100.62,0,0,0,279.26,354.81Zm3.62,189c-11.37,0-20.21-1-26.29-3.1-6.58-2.23-9.92-6.27-9.92-12,0-5.32,2.05-9.44,6.08-12.24s11.4-4,22.89-4h13.88c10.61,0,18,1.19,22.73,3.64,4.94,2.58,7.45,6.83,7.45,12.64C319.7,538.82,307.65,543.76,282.88,543.76Zm-7.24-28.37c-10.71,0-17.83,1.18-21.18,3.5s-4.79,5.44-4.79,9.78,2.58,7.35,7.89,9.15c5.76,1.95,14.28,2.94,25.32,2.94,22.44,0,33.82-4.07,33.82-12.09,0-4.67-1.91-7.93-5.84-10-4.19-2.18-11.37-3.29-21.34-3.29Zm4.83-72.45c-6.22,0-11-3.11-14.17-9.26-3.05-5.9-4.54-15.6-4.54-29.66s1.49-23.76,4.54-29.67h0c3.19-6.15,7.95-9.26,14.17-9.26s11,3.11,14.16,9.26c3.05,5.91,4.54,15.61,4.54,29.67s-1.49,23.76-4.54,29.66C291.44,439.83,286.68,442.94,280.47,442.94ZM269,375.73c-2.79,5.39-4.21,14.91-4.21,28.29s1.42,22.89,4.21,28.28c2.66,5.14,6.42,7.64,11.5,7.64s8.83-2.5,11.5-7.64c2.79-5.39,4.2-14.9,4.2-28.28s-1.42-22.9-4.2-28.29c-2.67-5.14-6.44-7.64-11.5-7.64s-8.84,2.5-11.5,7.64Z"/><path class="cls-1" d="M471.23,509.35c-8.17,0-14.69-1.94-19.36-5.78a63.32,63.32,0,0,1-12.68-14.52l0,0a102.45,102.45,0,0,1-22.38,14.46,59.87,59.87,0,0,1-25.54,5.88c-10.64,0-19.28-3.35-25.67-10s-9.63-15.42-9.63-26.24c0-8,2.86-15.42,8.5-22.1A79.35,79.35,0,0,1,385.05,434a181.75,181.75,0,0,1,24.35-12c8-3.21,16.49-6.27,25.15-9.09l1.07-.31V386.81c0-7.1-1.23-12.5-3.66-16.05s-6.38-5.09-12.34-5.09a14.4,14.4,0,0,0-9.47,3,8.64,8.64,0,0,0-3.52,7c0,2,.87,5.17,2.6,9.4,2.28,5.59,3.43,10.35,3.43,14.15a16.09,16.09,0,0,1-7.76,14.08c-5,3.27-11.18,4.92-18.48,4.92-7.82,0-14.21-2.32-19-6.9s-7.25-11.31-7.25-20c0-12.19,6.29-22,18.71-29.07,12.15-6.94,28.09-10.46,47.38-10.46,12.94,0,23.79,1.13,32.23,3.37s15.35,5.68,20.24,10.15A35.52,35.52,0,0,1,489,381.71a81.17,81.17,0,0,1,2.78,22.61V471c0,6.42.79,9.13,1.45,10.27a3.91,3.91,0,0,0,3.69,2.12,5.48,5.48,0,0,0,3.05-1.23,10.66,10.66,0,0,1,5.7-1.79c3.06,0,4.82,1.87,4.82,5.12,0,2.57-1.24,5.34-3.67,8.22a37.27,37.27,0,0,1-9.6,7.71,62.45,62.45,0,0,1-12.82,5.72A43.65,43.65,0,0,1,471.23,509.35Zm-29.44-21.8a60.51,60.51,0,0,0,12,13.7c4.13,3.38,10,5.1,17.46,5.1a40.53,40.53,0,0,0,12.23-2.05,59.37,59.37,0,0,0,12.21-5.44,34.56,34.56,0,0,0,8.83-7.07c2-2.32,3-4.44,3-6.28s-.64-2.12-1.82-2.12a7.57,7.57,0,0,0-4,1.28,8.2,8.2,0,0,1-4.72,1.74,6.92,6.92,0,0,1-6.29-3.62c-1.25-2.16-1.85-6-1.85-11.77v-66.7a78.15,78.15,0,0,0-2.66-21.76,32.64,32.64,0,0,0-9.38-15c-4.53-4.13-10.92-7.32-19-9.46s-18.78-3.27-31.46-3.27c-18.76,0-34.2,3.38-45.89,10.06s-17.2,15.28-17.2,26.47c0,7.79,2.12,13.77,6.32,17.78s9.91,6.07,16.93,6.07c6.7,0,12.37-1.49,16.82-4.43s6.42-6.63,6.42-11.57c0-3.41-1.08-7.79-3.2-13-1.91-4.65-2.83-8.1-2.83-10.53a11.61,11.61,0,0,1,4.63-9.31,17.46,17.46,0,0,1,11.36-3.66c6.93,0,11.91,2.15,14.81,6.39,2.78,4.06,4.19,10,4.19,17.75v28l-3.2.91c-8.54,2.79-16.94,5.82-24.91,9a178,178,0,0,0-23.94,11.82A76.34,76.34,0,0,0,366.73,453c-5.17,6.12-7.79,12.91-7.79,20.16,0,10,3,18.14,8.78,24.16s13.73,9.05,23.52,9.05a57,57,0,0,0,24.27-5.59,101.22,101.22,0,0,0,23.05-15.17l1.06-.92,1,1A5.31,5.31,0,0,1,441.79,487.55Zm-17.05-8.39c-5.73,0-9.85-1.79-12.25-5.33-2.27-3.36-3.43-8.36-3.43-14.88,0-9.21,2.12-16.11,6.3-20.5s9.92-8.26,17.48-11.94l5.78-2.88V471.9l-.38.43a28.6,28.6,0,0,1-5.58,4.93A14.35,14.35,0,0,1,424.74,479.16Zm10.88-50.68-1.45.72c-7.25,3.53-12.84,7.33-16.64,11.32-3.63,3.81-5.47,10-5.47,18.43,0,5.9,1,10.34,2.91,13.19s5,4,9.77,4a11.6,11.6,0,0,0,6.29-1.42,24.91,24.91,0,0,0,4.59-4Z"/><path class="cls-1" d="M594.67,505.73H504.13v-9.42l1.26-.2c10.12-1.69,15-6.54,15-14.82V379.87c0-8.29-4.92-13.13-15-14.82l-1.26-.21v-9.41h74.24V481.29c0,8.28,4.92,13.13,15,14.82l1.25.21Zm-87.54-3h84.54v-3.89c-10.82-2.16-16.3-8.06-16.3-17.55V358.43H507.13v3.89c10.82,2.15,16.3,8.05,16.3,17.55V481.29c0,9.49-5.48,15.39-16.3,17.55ZM549.4,343.94a29.88,29.88,0,0,1-21.13-51h0a29.88,29.88,0,1,1,21.13,51Zm-19-48.88a25.65,25.65,0,0,0-7.86,19,26,26,0,0,0,7.86,19,25.68,25.68,0,0,0,19,7.86,26.85,26.85,0,0,0,26.88-26.87,25.69,25.69,0,0,0-7.87-19,26,26,0,0,0-19-7.86,25.68,25.68,0,0,0-19,7.86Z"/><path class="cls-1" d="M766.41,505.73H682.52v-9.3l1.12-.3a13.74,13.74,0,0,0,7.78-4.74c1.7-2.23,2.56-5.63,2.56-10.1v-80c0-8-.76-13.67-2.27-16.87-1.35-2.87-4-4.27-8-4.27a17.31,17.31,0,0,0-10.17,3.2,31.45,31.45,0,0,0-7.95,8.14v89.79c0,4.47.86,7.88,2.56,10.1a13.74,13.74,0,0,0,7.78,4.74l1.12.3v9.3H591.37v-9.41l1.25-.21c10.12-1.69,15-6.54,15-14.82V379.87c0-8.29-4.92-13.13-15-14.82l-1.25-.21v-9.41h72.41v16.7c7.08-6.66,13.47-11.65,19-14.84,6.35-3.64,14.36-5.48,23.83-5.48,12.82,0,23.37,3.79,31.36,11.27s12.1,19.65,12.1,36.11v82.1c0,8.28,4.92,13.13,15,14.82l1.25.21Zm-80.89-3h77.89v-3.89c-10.82-2.16-16.3-8.06-16.3-17.55v-82.1c0-15.59-3.75-27-11.15-33.92s-17.28-10.46-29.31-10.46c-8.94,0-16.45,1.71-22.34,5.08s-13.06,9.11-21,16.83l-2.55,2.48V358.43H594.37v3.89c10.81,2.15,16.29,8.05,16.29,17.55V481.29c0,9.49-5.48,15.39-16.29,17.55v3.89h79.69v-4a16.16,16.16,0,0,1-8.29-5.5c-2.1-2.76-3.17-6.77-3.17-11.92V390.58l.25-.37a34.72,34.72,0,0,1,9-9.31,20.47,20.47,0,0,1,11.88-3.74c5.23,0,8.83,2,10.7,6,1.73,3.66,2.56,9.6,2.56,18.15v80c0,5.13-1.06,9.15-3.17,11.92a16.16,16.16,0,0,1-8.29,5.5Z"/></g></g></svg>