<svg xmlns="http://www.w3.org/2000/svg" viewBox="0 0 1205.94 746.91"><defs><style>.cls-1{fill:#ffd354;}.cls-2{fill:#f4f4f4;}.cls-3{fill:#fff;}.cls-4{fill:#e69a24;}.cls-5{fill:#47bfb0;}.cls-6{fill:#e5b822;}.cls-7{fill:#9cabd8;}.cls-8{fill:#ef3a44;}.cls-9{fill:#203465;}</style></defs><title>Asset 2</title><g id="Layer_2" data-name="Layer 2"><g id="Layer_1-2" data-name="Layer 1"><g id="_ёАэГК_x0028_ѕЖ·Ў_x0029_" data-name="±ёАэГК_x0028_ѕЖ·Ў_x0029_"><path class="cls-1" d="M556.57,278.73c-24.71,16.13-58.06,8.81-74.49-16.36s-9.71-58.64,15-74.78,58.07-8.8,74.5,16.36S581.29,262.6,556.57,278.73Z"/><path class="cls-2" d="M617.21,69.37c-3.1-2.78-18.56,7.43-24.35,14.72s-47.24,76.51-49.09,98.79,21.61,15.17,21.61,15.17l38.11-60C609.84,128,628.53,79.54,617.21,69.37Z"/><path class="cls-2" d="M571.58,204s24.9-15.66,41.28-22.85,78.84-24.52,82.3-17.42-4.78,16-15.17,21.61-44.3,25.41-44.3,25.41-49.41,19.36-54.84,18.23S571.58,204,571.58,204Z"/><path class="cls-3" d="M678.65,127.62c.54-9.84-21.32-16.52-44.31-1.52s-60.9,53.8-70.28,68.12,7.52,9.73,7.52,9.73,43.71-20.92,58.21-29.21S677.66,145.83,678.65,127.62Z"/><path class="cls-3" d="M547.27,186.45s13-51.82,13-78.74.52-53-4.31-60.42-7.72-17.2-12.68-10.45-15.4,46.35-16.18,70.28,2.35,66.37,2,74.8S547.27,186.45,547.27,186.45Z"/><path class="cls-2" d="M535.09,180.35s6.13-42.64,1.58-78.31S525,46.45,520.61,47s-8,34.46-8.87,45.6-.56,29.64,4.73,44.92,7.26,36.24,5.84,43S535.09,180.35,535.09,180.35Z"/><path class="cls-3" d="M580.85,228.93s48.31-17.48,62.73-18.7,65.24,3.08,69.53,9.65,4.25,10.1-10.78,17.57-93.76,21.39-124.93,11.3S580.85,228.93,580.85,228.93Z"/><path class="cls-3" d="M574.65,251.71s36.6,11.23,50.14,17.62,63.25,39.5,58.26,49.79-25.82-1.88-41.82-6.66-35.75-15.31-49.53-23.87-28.05-25-28.05-25Z"/><path class="cls-3" d="M565.8,266.85s41.32,29.23,55.07,41.33,35.23,41.41,32.7,50.09-14.71,2.57-20.39-.75-27.83-19.3-39.15-29.47-39.86-39.56-41.12-50.44S565.8,266.85,565.8,266.85Z"/><path class="cls-3" d="M550.94,278.89c7,6.82,23.09,36.45,27.06,47.91s16.53,89.91,2.32,96.84S555,399.19,551,391.26s-12-47.16-11.91-61.3,2.09-47,2.09-47S544,272.07,550.94,278.89Z"/><path class="cls-3" d="M537.35,284.25s2.2,53.6-3.12,68.78-28.46,74.78-43.14,73.82-2.7-58-1-66.09,17.4-55.85,29.29-75.32S537.35,284.25,537.35,284.25Z"/><path class="cls-3" d="M509.35,282.62s-1.09,28.82-7.73,40.18-25.86,59-47.25,76.5-38.3,23.83-32-9.55,45.33-74.08,51.11-81.37,26.94-30.46,26.94-30.46Z"/><path class="cls-3" d="M482.63,261.42s-36.69,26.3-52.11,45.73S387,369.55,393.66,378s31.92-10.29,45.66-25.12,42.55-40.65,56.49-76.68S482.63,261.42,482.63,261.42Z"/><path class="cls-3" d="M473.09,236s-32-6-64.2,2.1-61.63,16.8-75.18,40.87,39.85,12.63,50.74,11.38,57.77-11.95,95.29-38.78S473.09,236,473.09,236Z"/><path class="cls-2" d="M488.88,262s-41.4,35.22-72,49.34-80,33.49-89.65,18.71,54.57-47.33,75.07-57.2,77.44-21.27,77.44-21.27Z"/><path class="cls-3" d="M475.12,223s-42.42-.41-75.46-15.14-62.21-34.33-62.11-44.93,17-13.43,39.81-10.76,65.86,23.75,81.78,35.6,22.93,19,22.93,19Z"/><path class="cls-3" d="M490.89,195.15s-39.78-19.7-58.4-35.65-63.83-63.71-58.3-73.18,45.5,19.48,61.68,33.51,58.23,53.32,63.27,66.42S490.89,195.15,490.89,195.15Z"/><path class="cls-2" d="M518,181s6.81-29-11.38-60.49-51.52-71.75-60-68.57-12.8,30.61-3.48,50.28,14.87,37.13,38.56,62.65,26.68,24.74,26.68,24.74Z"/><path class="cls-2" d="M475.12,223c-2.15-.28-60.8-19.74-94.12-16.54s-31.42,8.7-1,24.27,64.54,8.46,64.54,8.46l34.14-7.11S485.75,227.45,475.12,223Z"/><path class="cls-2" d="M486.82,198.09s-46.92-48.62-68.72-61.37-40.48-25.85-55-24.81-.15,15.27,17.34,29.15,37.24,36.39,61.41,47.58,37.13,16.42,40.2,18.12C491.32,208.22,486.82,198.09,486.82,198.09Z"/><path class="cls-4" d="M524,216.62a78.42,78.42,0,0,1-.69,8.87c-.68,5.47-6.83,7.51-4.09,8.88s7.5.68,10.24,2,8.19,0,8.19,0,8.87-6.15,8.19-10.24-2-8.19-4.78-7.51-9.56,2.05-11.6.68S527.37,215.26,524,216.62Z"/></g><path class="cls-5" d="M332.84,314.88h74.35v40.68H241.77V197.36h91.07Z"/><path class="cls-5" d="M.64,355.56V197.36H137.37c59.88,0,76.83,9.49,76.83,40.68,0,16.73-10.16,28.48-31.18,34.58v.45c28.25,5,40.68,17.4,40.68,39.32,0,28.71-14.47,43.17-76.84,43.17Zm112.77-95.82c12,0,16.72-7.23,16.72-17,0-9.49-4.74-16.72-16.72-16.72H87v33.67Zm2.26,67.12c12,0,19.21-7.24,19.21-19.21s-7.23-19.21-19.21-19.21H87v38.42Z"/><path class="cls-5" d="M1204.7,355.56h-84.06v-67.8l.67-22.83h-.45l-9,22.83-32.09,67.8h-34.58l-31.64-67.8L1004,264.71h-.22l.67,23.05v67.8h-78V197.36h104.18l21.24,45.2,13.34,30.51h.45l13.33-30.51,21.25-45.2h104.4Z"/><g id="_ёАэГК_x0028_А__x0029_" data-name="±ёАэГК_x0028_А§_x0029_"><ellipse class="cls-1" cx="780.03" cy="267.57" rx="53.64" ry="50.18" transform="translate(-5.58 16.86) rotate(-1.23)"/><path class="cls-2" d="M680.82,119.51c-3.87,1.3-2.32,18.65,1.27,26.69s44,73.3,62.39,84.83,23.32-11,23.32-11-28.33-48.64-34-58.37S695,114.74,680.82,119.51Z"/><path class="cls-2" d="M775.83,217.56s-1.82-27.57-.32-44.3,15.93-76,23.71-75.69,11.6,11.12,11.56,22.21,1.11,47.94,1.11,47.94-6.52,49.44-10.06,53.4S775.83,217.56,775.83,217.56Z"/><path class="cls-3" d="M760.21,95c-8.26-4.86-24.35,10.16-22.2,35.86s17.88,74.36,25.85,88.54,12-1.84,12-1.84,2.49-45.44,2.15-61.11S775.52,104,760.21,95Z"/><path class="cls-3" d="M749.22,229.75s-38.73-34-62.05-46.08-45.67-24.23-54.34-23.57-18.54-1.36-15,5.76,32.87,33.52,53.22,44.9,58.58,27.87,65.71,31.94S749.22,229.75,749.22,229.75Z"/><path class="cls-2" d="M738.19,237.05s-34-24.2-67.06-36.46-53.64-15.31-55.26-11.49,26.09,22,35.3,27.79,25.4,13.77,41.12,16.26,34.8,10.28,40,14.5S738.19,237.05,738.19,237.05Z"/><path class="cls-3" d="M801.83,221.12s7.63-47.68,13.38-60.12,33.42-52.41,41.13-53,10.75,1,10.13,16.78-25.68,86.91-49.11,108.09S801.83,221.12,801.83,221.12Z"/><path class="cls-3" d="M818.63,236.47s27-25.14,38.89-33.44,64-34.42,70.57-25.68-13.8,20.44-25.48,31.49-30.1,22.61-44,30.13-34.89,11.89-34.89,11.89Z"/><path class="cls-3" d="M827.57,250.56s44.79-20.95,61.75-26.86,52.45-10.45,58.77-4.47-4.7,13.29-10.25,16.48-29.83,14.28-44,19-53,15.11-63.06,11.26S827.57,250.56,827.57,250.56Z"/><path class="cls-3" d="M831,268.22c9.2-2.7,42.44-2.68,54.24-.8s85.63,26.73,84.94,41.56-33.11,9.9-41.86,9.65-46.52-11.24-58.7-17.7-39.73-22.84-39.73-22.84S821.79,270.92,831,268.22Z"/><path class="cls-3" d="M829.22,281.84s47.45,22.25,58.08,33.44,51.33,57.05,43.58,68.72-51.44-23.79-57.69-28.86-40.15-39.42-51.41-58S829.22,281.84,829.22,281.84Z"/><path class="cls-3" d="M814.62,304.19S839.05,318,845.75,328.6s38.93,47.83,44,73.31,2.58,42.29-23.36,22.1S823.59,353.38,820,345.34s-13.68-35.9-13.68-35.9Z"/><path class="cls-3" d="M783.66,316.71s5.47,42.06,15,63.5,33.48,63.94,44,62.22,6.13-30.94-.22-48.93-15.14-53.34-39.77-81S783.66,316.71,783.66,316.71Z"/><path class="cls-3" d="M757.19,313.18s-20.32,23.71-28.45,53.88-14.5,58.36,0,80.35,29.71-27.2,33.76-36.74,16.89-53,11.34-96S757.19,313.18,757.19,313.18Z"/><path class="cls-2" d="M787.13,311.82s11,50,8.78,81.53-8.72,81-26.06,82.33-15.26-66.26-14.14-87.58,18.08-73.41,18.08-73.41Z"/><path class="cls-3" d="M746.85,305.65s-20.34,34.8-48.68,55.43-59,35.89-68.18,31-3.62-20,9.45-37.66,51.61-43.64,69.38-51.45,27.25-10.39,27.25-10.39Z"/><path class="cls-3" d="M730.17,280.14s-35.8,24-58.39,32.15-85.26,24-90.84,15.22,38.31-28.77,58.08-35.82,73.62-24.07,87.34-22.34S730.17,280.14,730.17,280.14Z"/><path class="cls-2" d="M730.68,251.47s-21.93-18.65-57.74-17.77S586.53,244,585.3,252.38s20.46,24.3,41.89,25.44,39.16,4.41,72.42-3.67,34-10.89,34-10.89Z"/><path class="cls-2" d="M746.85,305.65c-1.25,1.65-45.75,41.27-58.69,70.18s-7.27,29.82,20.54,11.74,37.74-49.42,37.74-49.42l9.94-31.34S755.71,298.88,746.85,305.65Z"/><path class="cls-2" d="M730.8,284.82s-64.22,16.85-85.53,29.12-41.46,21.77-47.4,34.19,13.15,7,33.41-1.21,49.06-14.38,70.15-29.28,31.72-23.25,34.64-25C741.69,285.65,730.8,284.82,730.8,284.82Z"/><path class="cls-6" d="M770.63,247.1a95.23,95.23,0,0,1-.83,10.72c-.82,6.6-8.24,9.07-4.94,10.72s9.07.82,12.37,2.47,9.89,0,9.89,0,10.72-7.42,9.89-12.37-2.47-9.89-5.77-9.07-11.54,2.48-14,.83S774.75,245.45,770.63,247.1Z"/></g><path class="cls-7" d="M0,547.39V389H136.87c59.95,0,76.92,9.5,76.92,40.72,0,16.74-10.18,28.51-31.22,34.62v.45c28.28,5,40.72,17.42,40.72,39.36,0,28.73-14.48,43.21-76.92,43.21Zm112.89-95.92c12,0,16.74-7.24,16.74-17,0-9.5-4.75-16.74-16.74-16.74H86.42v33.71Zm2.26,67.19c12,0,19.23-7.24,19.23-19.23s-7.24-19.23-19.23-19.23H86.42v38.46Z"/><path class="cls-7" d="M332.55,506.67H407v40.72H241.38V389h91.17Z"/><path class="cls-7" d="M532.77,549.88c-96.15,0-117.64-4.75-117.64-81.67,0-76.69,21.49-81.67,117.64-81.67s117.64,5,117.64,81.67C650.41,545.13,628.92,549.88,532.77,549.88Zm0-136.87c-24,0-26.47,9.73-26.47,55.2,0,45.7,2.48,55.43,26.47,55.43s26.47-9.73,26.47-55.43C559.24,422.74,556.75,413,532.77,413Z"/><path class="cls-7" d="M786.14,549.88c-96.15,0-117.64-4.75-117.64-81.67,0-76.69,21.49-81.67,117.64-81.67s117.64,5,117.64,81.67C903.78,545.13,882.29,549.88,786.14,549.88Zm0-136.87c-24,0-26.47,9.73-26.47,55.2,0,45.7,2.49,55.43,26.47,55.43s26.47-9.73,26.47-55.43C812.61,422.74,810.12,413,786.14,413Z"/><path class="cls-7" d="M1205.35,547.39h-84.16V479.52l.68-22.85h-.46l-9.05,22.85-32.12,67.87h-34.62L1014,479.52l-9.5-23.07h-.23l.68,23.07v67.87h-78V389h104.3l21.26,45.25,13.35,30.54h.45l13.35-30.54L1100.83,389h104.52Z"/><path class="cls-8" d="M0,160.85V2.49H136.87c59.95,0,76.92,9.5,76.92,40.72,0,16.74-10.18,28.51-31.22,34.61v.46c28.28,5,40.72,17.42,40.72,39.36,0,28.73-14.48,43.21-76.92,43.21ZM112.89,64.93c12,0,16.74-7.24,16.74-17,0-9.5-4.75-16.74-16.74-16.74H86.42V64.93Zm2.26,67.19c12,0,19.23-7.24,19.23-19.23s-7.24-19.23-19.23-19.23H86.42v38.46Z"/><path class="cls-8" d="M332.55,120.13H407v40.72H241.38V2.49h91.17Z"/><path class="cls-8" d="M532.77,163.34c-96.15,0-117.64-4.75-117.64-81.67C415.13,5,436.62,0,532.77,0S650.41,5,650.41,81.67C650.41,158.59,628.92,163.34,532.77,163.34Zm0-136.87c-24,0-26.47,9.73-26.47,55.2,0,45.7,2.48,55.43,26.47,55.43s26.47-9.73,26.47-55.43C559.24,36.2,556.75,26.47,532.77,26.47Z"/><path class="cls-8" d="M786.14,163.34c-96.15,0-117.64-4.75-117.64-81.67C668.5,5,690,0,786.14,0S903.78,5,903.78,81.67C903.78,158.59,882.29,163.34,786.14,163.34Zm0-136.87c-24,0-26.47,9.73-26.47,55.2,0,45.7,2.49,55.43,26.47,55.43s26.47-9.73,26.47-55.43C812.61,36.2,810.12,26.47,786.14,26.47Z"/><path class="cls-8" d="M1205.35,160.85h-84.16V93l.68-22.85h-.46L1112.36,93l-32.12,67.87h-34.62L1014,93l-9.5-23.08h-.23L1004.9,93v67.87h-78V2.49h104.3l21.26,45.24,13.35,30.55h.45l13.35-30.55,21.27-45.24h104.52Z"/><path class="cls-9" d="M.59,744.42V586.06H137.47c59.95,0,76.91,9.49,76.91,40.72,0,16.74-10.17,28.5-31.21,34.61v.45c28.27,5,40.72,17.42,40.72,39.37,0,28.73-14.48,43.21-76.92,43.21Zm112.9-95.93c12,0,16.74-7.23,16.74-17,0-9.51-4.75-16.74-16.74-16.74H87v33.7Zm2.26,67.2c12,0,19.23-7.24,19.23-19.23s-7.24-19.23-19.23-19.23H87v38.46Z"/><path class="cls-9" d="M333.15,703.7h74.43v40.72H242V586.06h91.17Z"/><path class="cls-9" d="M533.36,746.91c-96.15,0-117.64-4.75-117.64-81.68,0-76.69,21.49-81.66,117.64-81.66S651,588.54,651,665.23C651,742.16,629.51,746.91,533.36,746.91Zm0-136.88c-24,0-26.47,9.73-26.47,55.2,0,45.71,2.49,55.43,26.47,55.43s26.47-9.72,26.47-55.43C559.83,619.76,557.34,610,533.36,610Z"/><path class="cls-9" d="M786.73,746.91c-96.15,0-117.64-4.75-117.64-81.68,0-76.69,21.49-81.66,117.64-81.66s117.64,5,117.64,81.66C904.37,742.16,882.88,746.91,786.73,746.91Zm0-136.88c-24,0-26.47,9.73-26.47,55.2,0,45.71,2.49,55.43,26.47,55.43s26.47-9.72,26.47-55.43C813.2,619.76,810.71,610,786.73,610Z"/><path class="cls-9" d="M1205.94,744.42h-84.16V676.55l.68-22.85H1122l-9,22.85-32.13,67.87h-34.61l-31.67-67.87L1005,653.47h-.22l.68,23.08v67.87h-78V586.06h104.29L1053,631.3l13.34,30.54h.46l13.34-30.54,21.27-45.24h104.52Z"/></g></g></svg>