<svg xmlns="http://www.w3.org/2000/svg" viewBox="0 0 824.29 81.77"><defs><style>.cls-1{fill:#010101;}</style></defs><title>Asset 2</title><g id="Layer_2" data-name="Layer 2"><g id="Layer_6" data-name="Layer 6"><path class="cls-1" d="M824.29,81.77H0V0H824.29ZM2,79.77H822.29V2H2Z"/><path d="M57.65,38.56c2.38,0,3.32.9,3.31,3s-1.1,3-3.22,3-2.86-.76-2.83-3.07c0-.6,0-1.42.32-1.75C55.91,39.06,56.6,38.09,57.65,38.56Z"/><path d="M56.25,29.78c1.15.22,2.43-.58,3.62.56a3.17,3.17,0,0,1,.77,4c-.68,1.42-1.77,1.63-4.37,1.28a3.93,3.93,0,0,1-1.44-2.86A4.43,4.43,0,0,1,56.25,29.78Z"/><path d="M227.44,29.8c1.48-.2,3.17-.36,4.16,1.52a4.11,4.11,0,0,1-.2,3.16,4,4,0,0,1-2.76,1.3c-1.28.07-1.79-.94-2.75-1.32C225.65,32.77,225.3,31.05,227.44,29.8Z"/><path d="M79.27,34.25a17.63,17.63,0,0,1,.21-3.17,1.91,1.91,0,0,1,1.32-1.2c1.11-.1,2.56-.25,3.3.34,1.36,1.08,1.67,3.24.93,4.11C83.3,36.37,81.4,36.22,79.27,34.25Z"/><path d="M177.08,34.35c-.25-1.65-.47-3.37,1.3-4.5a5.27,5.27,0,0,1,3.48.3,3.43,3.43,0,0,1,1.08,3.06c-.1.42-.05,1-.31,1.21a3.78,3.78,0,0,1-2.71,1.36A4.21,4.21,0,0,1,177.08,34.35Z"/><path d="M181.49,44.46h-3.06l-1.37-1.32V39.93l1.46-1.27c.95,0,2.26-.56,3.31.41C183.7,40.81,183.25,42.58,181.49,44.46Z"/><path d="M30.5,43.14a14.63,14.63,0,0,0,0-2.47c-.19-1.15,1.25-1.08,1.24-2,2.59-.43,4,0,4.62,1.31A4.94,4.94,0,0,1,36,43.29a3.4,3.4,0,0,1-2.69,1.31C32,44.68,31.49,43.77,30.5,43.14Z"/><path d="M250.29,43.22V39.79l.53.46,1.52-.6-.9-.9c2.25-.5,3.9-.07,4.63,1.2a4.64,4.64,0,0,1-.37,3.34A3.53,3.53,0,0,1,253,44.61C251.68,44.7,251.25,43.69,250.29,43.22Z"/><path d="M250.29,31.23c1.36-1.79,3.1-2.07,4.62-1.11s1.79,3.35,1,4.22a3.7,3.7,0,0,1-2.81,1.45c-1.26,0-1.8-.88-2.78-1.36Z"/><path d="M105.54,43.89l-1.14-1-.57.47V40c1.34-1.57,3-2,4.57-1a3.33,3.33,0,0,1,1.2,4c-.31.57-.81,1.27-1.36,1.42a15.1,15.1,0,0,1-3.1.24Z"/><path d="M143.81,34.15a16.57,16.57,0,0,1,.06-3c.09-.5.79-1,1.3-1.29a4.43,4.43,0,0,1,3.36.41c1,1.2,1.61,2.94,1,3.39-.9.67-1.23,2-2.63,2.1A3.19,3.19,0,0,1,143.81,34.15Z"/><path d="M21.77,48.79c1.19-1.5,2.64-2.11,4-1.15,1,.72,2.5,1.68,1.87,3.39a3.58,3.58,0,0,1-1.51,2,9.93,9.93,0,0,1-3.07.31l.39-.56-.83-1.26-.82.66Z"/><path d="M169.55,35.49l-1.09-1-.23.08V31.12l1.44-1.32c1,.12,2.44-.69,3.31.67.58.92,2,1.89,1,3.1S171.7,36.56,169.55,35.49Z"/><path d="M169.85,44.57c-2-1.35-2-3-1.55-4.61,1.1-1.36,2.56-2.06,3.9-1.06,1,.74,2.58,1.68,1.86,3.44a3.77,3.77,0,0,1-1.62,1.94A7.5,7.5,0,0,1,169.85,44.57Z"/><path d="M23.08,35.5l-1.09-1-.23.08V31.12L23.2,29.8c1,.12,2.44-.69,3.31.67.58.92,2,1.89,1,3.1C26.45,34.94,25.23,36.56,23.08,35.5Z"/><path d="M241.47,48.66c1.28-1.29,2.57-2.07,4.05-.86,1,.83,2.59,1.83,1.6,3.34-.51.77-.59,2.44-2.45,2.22a3.81,3.81,0,0,1-3.2-1.61Z"/><path d="M241.53,34.43c-.44-2.61-.05-4.05,1.27-4.62.8-.35,3.27-.07,3.4.5.28,1.14,2,2.08.9,3.31-.68.77-1.2,1.9-2.5,2.11A3.42,3.42,0,0,1,241.53,34.43Z"/><path d="M217.07,43.29c0-.43-.07-.89-.08-1.36,0-.7,0-1.4,0-2,1.32-1.1,2.58-2.2,4.16-.82,1,.87,2.6,1.77,1.54,3.4-.53.82-.79,2.36-2.5,2.07C219.26,44.42,219.24,44.57,217.07,43.29Z"/><path d="M96.43,35.62,95,34.33c0-.39-.09-1-.1-1.62s.06-1.16.08-1.57a3.39,3.39,0,0,1,4.57-1c.81.38,1.65,2.74,1.26,3.28a6.91,6.91,0,0,1-2.08,2.15C98.07,35.9,97.07,35.62,96.43,35.62Z"/><path d="M46.19,51.85V48.7l1.36-1.3a3.32,3.32,0,0,1,3.73,1.31c.6.79,1.14,1.5.71,2.41a3.86,3.86,0,0,1-1.56,1.93,8.86,8.86,0,0,1-2.84.28Z"/><path d="M70.59,34.53V31.12a3.34,3.34,0,0,1,4.67-.92c1,.6,1.54,3,1.07,3.46a18.67,18.67,0,0,0-1.63,1.57c-.62.85-1.46.52-2.12.4A7,7,0,0,1,70.59,34.53Z"/><path d="M46.19,34.19V31l.28.23,1.42-.88-.51-.63c1.25.2,2.76-.69,3.67.89.52.92,1.79,1.89.82,3-.69.78-1.24,1.93-2.55,2.1A3,3,0,0,1,46.19,34.19Z"/><path d="M193.92,29.75c1.19.19,2.66-.63,3.51.78.54.91,1.77,1.76,1,3a5.33,5.33,0,0,1-2.09,2,5.28,5.28,0,0,1-2.3.07l-1.37-1.3V31l.44.39,1.19-1Z"/><path d="M327.94,38.56c2.39,0,3.32.9,3.31,3s-1.1,3-3.21,3-2.87-.76-2.84-3.07c0-.6,0-1.42.32-1.75C326.2,39.06,326.9,38.09,327.94,38.56Z"/><path d="M326.54,29.78c1.16.22,2.43-.58,3.62.56a3.16,3.16,0,0,1,.78,4c-.68,1.42-1.77,1.63-4.37,1.28a4,4,0,0,1-1.45-2.86A4.47,4.47,0,0,1,326.54,29.78Z"/><path d="M497.73,29.8c1.48-.2,3.17-.36,4.17,1.52a4.2,4.2,0,0,1-.2,3.16,4,4,0,0,1-2.76,1.3c-1.29.07-1.79-.94-2.76-1.32C495.94,32.77,495.59,31.05,497.73,29.8Z"/><path d="M349.57,34.25a17.58,17.58,0,0,1,.2-3.17,1.91,1.91,0,0,1,1.32-1.2c1.11-.1,2.57-.25,3.31.34,1.36,1.08,1.66,3.24.92,4.11C353.59,36.37,351.69,36.22,349.57,34.25Z"/><path d="M447.37,34.35c-.25-1.65-.46-3.37,1.3-4.5a5.26,5.26,0,0,1,3.48.3,3.43,3.43,0,0,1,1.08,3.06c-.09.42-.05,1-.3,1.21a3.82,3.82,0,0,1-2.71,1.36C449,35.78,448.29,35.12,447.37,34.35Z"/><path d="M451.79,44.46h-3.06l-1.38-1.32V39.93l1.46-1.27c1,0,2.26-.56,3.31.41C454,40.81,453.54,42.58,451.79,44.46Z"/><path d="M300.8,43.14a14.63,14.63,0,0,0,0-2.47c-.19-1.15,1.24-1.08,1.23-2,2.59-.43,4,0,4.62,1.31a4.94,4.94,0,0,1-.29,3.26,3.4,3.4,0,0,1-2.69,1.31C302.34,44.68,301.78,43.77,300.8,43.14Z"/><path d="M520.59,43.22V39.79l.53.46,1.52-.6-.91-.9c2.25-.5,3.9-.07,4.63,1.2a4.59,4.59,0,0,1-.37,3.34,3.52,3.52,0,0,1-2.73,1.32C522,44.7,521.55,43.69,520.59,43.22Z"/><path d="M520.58,31.23c1.36-1.79,3.1-2.07,4.62-1.11s1.79,3.35,1,4.22a3.69,3.69,0,0,1-2.8,1.45c-1.26,0-1.81-.88-2.79-1.36Z"/><path d="M375.83,43.89l-1.13-1-.58.47V40c1.34-1.57,3-2,4.58-1a3.35,3.35,0,0,1,1.2,4c-.31.57-.81,1.27-1.36,1.42a15.19,15.19,0,0,1-3.11.24Z"/><path d="M414.11,34.15a15.72,15.72,0,0,1,.06-3c.09-.5.78-1,1.3-1.29a4.44,4.44,0,0,1,3.36.41c1,1.2,1.6,2.94,1,3.39-.89.67-1.22,2-2.63,2.1A3.17,3.17,0,0,1,414.11,34.15Z"/><path d="M292.06,48.79c1.19-1.5,2.65-2.11,4-1.15,1,.72,2.5,1.68,1.87,3.39a3.61,3.61,0,0,1-1.5,2,10,10,0,0,1-3.08.31l.4-.56-.83-1.26-.83.66Z"/><path d="M439.84,35.49l-1.09-1-.22.08V31.12L440,29.8c1,.12,2.44-.69,3.3.67.58.92,2,1.89,1,3.1S442,36.56,439.84,35.49Z"/><path d="M440.14,44.57c-2-1.35-2-3-1.55-4.61,1.1-1.36,2.56-2.06,3.91-1.06,1,.74,2.57,1.68,1.85,3.44a3.77,3.77,0,0,1-1.62,1.94A7.48,7.48,0,0,1,440.14,44.57Z"/><path d="M293.37,35.5l-1.09-1-.22.08V31.12l1.44-1.32c1,.12,2.43-.69,3.3.67.58.92,2,1.89,1,3.1C296.74,34.94,295.52,36.56,293.37,35.5Z"/><path d="M511.76,48.66c1.28-1.29,2.58-2.07,4-.86,1,.83,2.6,1.83,1.61,3.34-.51.77-.6,2.44-2.45,2.22a3.83,3.83,0,0,1-3.21-1.61Z"/><path d="M511.82,34.43c-.43-2.61-.05-4.05,1.27-4.62.81-.35,3.27-.07,3.41.5.28,1.14,2,2.08.9,3.31-.68.77-1.21,1.9-2.51,2.11A3.43,3.43,0,0,1,511.82,34.43Z"/><path d="M487.36,43.29c0-.43-.07-.89-.08-1.36,0-.7,0-1.4,0-2,1.32-1.1,2.57-2.2,4.15-.82,1,.87,2.6,1.77,1.55,3.4-.54.82-.8,2.36-2.5,2.07C489.56,44.42,489.53,44.57,487.36,43.29Z"/><path d="M366.72,35.62l-1.43-1.29c0-.39-.09-1-.09-1.62s.05-1.16.08-1.57a3.38,3.38,0,0,1,4.56-1c.81.38,1.66,2.74,1.26,3.28A6.8,6.8,0,0,1,369,35.55C368.36,35.9,367.37,35.62,366.72,35.62Z"/><path d="M316.49,51.85V48.7l1.35-1.3a3.34,3.34,0,0,1,3.74,1.31c.6.79,1.14,1.5.71,2.41a3.92,3.92,0,0,1-1.57,1.93,8.82,8.82,0,0,1-2.83.28Z"/><path d="M340.88,34.53V31.12a3.34,3.34,0,0,1,4.67-.92c1,.6,1.54,3,1.07,3.46A18.67,18.67,0,0,0,345,35.23c-.62.85-1.46.52-2.12.4A7.09,7.09,0,0,1,340.88,34.53Z"/><path d="M316.48,34.19V31l.28.23,1.42-.88-.51-.63c1.25.2,2.76-.69,3.67.89.53.92,1.8,1.89.83,3-.7.78-1.25,1.93-2.56,2.1A3,3,0,0,1,316.48,34.19Z"/><path d="M464.21,29.75c1.2.19,2.66-.63,3.51.78.55.91,1.77,1.76,1,3a5.33,5.33,0,0,1-2.09,2,5.27,5.27,0,0,1-2.3.07L463,34.33V31l.43.39,1.19-1Z"/><path d="M598.24,38.56c2.38,0,3.32.9,3.31,3s-1.1,3-3.22,3-2.86-.76-2.83-3.07c0-.6,0-1.42.32-1.75C596.5,39.06,597.19,38.09,598.24,38.56Z"/><path d="M596.84,29.78c1.15.22,2.43-.58,3.62.56a3.17,3.17,0,0,1,.77,4c-.68,1.42-1.77,1.63-4.37,1.28a3.93,3.93,0,0,1-1.44-2.86A4.38,4.38,0,0,1,596.84,29.78Z"/><path d="M768,29.8c1.48-.2,3.17-.36,4.16,1.52a4.16,4.16,0,0,1-.2,3.16,4,4,0,0,1-2.76,1.3c-1.28.07-1.79-.94-2.75-1.32C766.24,32.77,765.89,31.05,768,29.8Z"/><path d="M619.86,34.25a17.58,17.58,0,0,1,.2-3.17,2,2,0,0,1,1.33-1.2c1.11-.1,2.56-.25,3.3.34,1.36,1.08,1.66,3.24.93,4.11C623.88,36.37,622,36.22,619.86,34.25Z"/><path d="M717.67,34.35c-.26-1.65-.47-3.37,1.3-4.5a5.27,5.27,0,0,1,3.48.3c.72.9,1.38,1.81,1.08,3.06-.1.42,0,1-.31,1.21a3.82,3.82,0,0,1-2.71,1.36A4.21,4.21,0,0,1,717.67,34.35Z"/><path d="M722.08,44.46H719l-1.37-1.32V39.93l1.45-1.27c1,0,2.27-.56,3.32.41C724.28,40.81,723.84,42.58,722.08,44.46Z"/><path d="M571.09,43.14a14.63,14.63,0,0,0,0-2.47c-.19-1.15,1.24-1.08,1.24-2,2.59-.43,4,0,4.62,1.31a5,5,0,0,1-.29,3.26,3.4,3.4,0,0,1-2.69,1.31C572.63,44.68,572.07,43.77,571.09,43.14Z"/><path d="M790.88,43.22V39.79l.53.46,1.52-.6-.91-.9c2.26-.5,3.91-.07,4.64,1.2a4.64,4.64,0,0,1-.37,3.34,3.53,3.53,0,0,1-2.73,1.32C792.27,44.7,791.84,43.69,790.88,43.22Z"/><path d="M790.88,31.23c1.35-1.79,3.09-2.07,4.62-1.11s1.79,3.35,1,4.22a3.67,3.67,0,0,1-2.8,1.45c-1.26,0-1.8-.88-2.78-1.36Z"/><path d="M646.12,43.89l-1.13-1-.57.47V40c1.34-1.57,3-2,4.57-1a3.35,3.35,0,0,1,1.2,4c-.31.57-.81,1.27-1.36,1.42a15.19,15.19,0,0,1-3.11.24Z"/><path d="M684.4,34.15a15.72,15.72,0,0,1,.06-3c.09-.5.78-1,1.3-1.29a4.44,4.44,0,0,1,3.36.41c1,1.2,1.61,2.94,1,3.39-.9.67-1.23,2-2.63,2.1A3.19,3.19,0,0,1,684.4,34.15Z"/><path d="M562.36,48.79c1.19-1.5,2.64-2.11,4-1.15,1,.72,2.49,1.68,1.87,3.39a3.63,3.63,0,0,1-1.51,2,9.93,9.93,0,0,1-3.07.31l.39-.56-.83-1.26-.82.66Z"/><path d="M710.14,35.49l-1.1-1-.22.08V31.12l1.44-1.32c1,.12,2.44-.69,3.3.67.59.92,2,1.89,1,3.1S712.28,36.56,710.14,35.49Z"/><path d="M710.44,44.57c-2-1.35-2-3-1.55-4.61,1.09-1.36,2.56-2.06,3.9-1.06,1,.74,2.57,1.68,1.86,3.44A3.83,3.83,0,0,1,713,44.28,7.42,7.42,0,0,1,710.44,44.57Z"/><path d="M563.67,35.5l-1.09-1-.23.08V31.12l1.44-1.32c1,.12,2.44-.69,3.3.67.58.92,2,1.89,1,3.1C567,34.94,565.81,36.56,563.67,35.5Z"/><path d="M782.06,48.66c1.27-1.29,2.57-2.07,4-.86,1,.83,2.6,1.83,1.61,3.34-.51.77-.59,2.44-2.45,2.22a3.81,3.81,0,0,1-3.2-1.61Z"/><path d="M782.11,34.43c-.43-2.61,0-4.05,1.27-4.62.81-.35,3.27-.07,3.41.5.28,1.14,2,2.08.9,3.31-.68.77-1.21,1.9-2.5,2.11A3.44,3.44,0,0,1,782.11,34.43Z"/><path d="M757.65,43.29c0-.43-.07-.89-.07-1.36,0-.7,0-1.4,0-2,1.32-1.1,2.57-2.2,4.16-.82,1,.87,2.59,1.77,1.54,3.4-.53.82-.79,2.36-2.5,2.07C759.85,44.42,759.82,44.57,757.65,43.29Z"/><path d="M637,35.62l-1.43-1.29c0-.39-.08-1-.09-1.62s.06-1.16.08-1.57a3.39,3.39,0,0,1,4.57-1c.81.38,1.65,2.74,1.26,3.28a6.91,6.91,0,0,1-2.08,2.15C638.66,35.9,637.66,35.62,637,35.62Z"/><path d="M586.78,51.85V48.7l1.36-1.3a3.32,3.32,0,0,1,3.73,1.31c.6.79,1.14,1.5.71,2.41A3.86,3.86,0,0,1,591,53.05a8.91,8.91,0,0,1-2.84.28Z"/><path d="M611.17,34.53V31.12a3.34,3.34,0,0,1,4.67-.92c1,.6,1.54,3,1.07,3.46a20.06,20.06,0,0,0-1.62,1.57c-.62.85-1.46.52-2.12.4A7,7,0,0,1,611.17,34.53Z"/><path d="M586.78,34.19V31l.28.23,1.42-.88-.51-.63c1.25.2,2.76-.69,3.66.89.53.92,1.8,1.89.83,3-.7.78-1.25,1.93-2.56,2.1A3,3,0,0,1,586.78,34.19Z"/><path d="M734.51,29.75c1.19.19,2.66-.63,3.51.78.54.91,1.76,1.76,1,3a5.38,5.38,0,0,1-2.08,2,5.32,5.32,0,0,1-2.31.07l-1.36-1.3V31l.43.39,1.2-1Z"/></g></g></svg>