<svg xmlns="http://www.w3.org/2000/svg" viewBox="0 0 814.57 256.69"><defs><style>.cls-1{fill:#010101;}</style></defs><title>Asset 4</title><g id="Layer_2" data-name="Layer 2"><g id="Layer_6" data-name="Layer 6"><path class="cls-1" d="M158.64,53.52v48.85H133.45V71.94H120.81V63.08a27.54,27.54,0,0,0,15.57-9.56Z"/><path class="cls-1" d="M188.58,83.11H163.39V72.71h25.19Z"/><path class="cls-1" d="M216.08,73.9c2.45-4.26,7.4-9.29,18.43-9.29,11.87,0,17.1,3.7,17.1,15.57v22.19h-23.8V81.64c0-5.23-2.79-6.7-5.79-6.7-3.56,0-5.59,3.35-5.73,6.84v20.59H192.56V52.05h23.73V67.47l-.42,6.43Z"/><path class="cls-1" d="M294.53,83.81V65.24h25.2V83.81c0,15.56-5,19.26-31.69,19.26s-31.69-3.7-31.69-19.26V65.24h25.2V83.81c0,10.4,1.33,11.86,6.49,11.86S294.53,94.21,294.53,83.81Z"/><path class="cls-1" d="M360.49,81.57c0-5.16-2.79-6.63-5.73-6.63-3.62,0-5.65,3.35-5.79,6.84v20.59H325.24V65.24h22.34l.55,9.63h.14c2.24-4.46,7.12-10.33,18.92-10.33s18.49,3.7,18.49,15.57v22.26H360.49Z"/><path class="cls-1" d="M426.44,81.57c0-5.16-2.79-6.63-5.72-6.63-3.63,0-5.65,3.35-5.79,6.84v20.59H391.2V65.24h22.33l.56,9.63h.14c2.23-4.46,7.12-10.33,18.92-10.33s18.49,3.7,18.49,15.57v22.26h-25.2Z"/><path class="cls-1" d="M486.19,103.07c-26,0-30.57-3.7-30.57-19.26,0-16.27,4.6-19.27,30.57-19.27s30.57,3,30.57,19.27a19.65,19.65,0,0,1-.42,4.18H479.63c0,7.4,2.23,9.15,6.56,9.15,3.28,0,5.93-.7,5.93-5.17a6,6,0,0,0-.14-1h23.87a4,4,0,0,1,.14,1C516,100.63,506.15,103.07,486.19,103.07Zm-6.56-21.36h13.05c0-8.09-1.74-9.77-6.49-9.77S479.63,73.62,479.63,81.71Z"/><path class="cls-1" d="M544.75,77.52h.07c1-6.49,6-13,13.26-13a11.9,11.9,0,0,1,2.79.28V80.73s-1.81-.62-6.84-.62c-5.24,0-7.89,2.23-8.86,5.09v17.17H521.5V65.24h22.27Z"/><path class="cls-1" d="M592.35,103.07c-26,0-30.57-3.7-30.57-19.26,0-16.27,4.6-19.27,30.57-19.27s30.57,3,30.57,19.27A19.65,19.65,0,0,1,622.5,88H585.79c0,7.4,2.23,9.15,6.56,9.15,3.28,0,5.93-.7,5.93-5.17a6,6,0,0,0-.14-1H622a4,4,0,0,1,.14,1C622.15,100.63,612.31,103.07,592.35,103.07Zm-6.56-21.36h13.05c0-8.09-1.75-9.77-6.49-9.77S585.79,73.62,585.79,81.71Z"/><path class="cls-1" d="M644.69,64.54c8.87,0,14.1,2.93,17,7.19V52.05h23.66v50.32H663.61l-.91-8.65h-.14c-2.65,5.51-8,9.35-17.87,9.35-11.86,0-18.56-4.4-18.56-20C626.13,68.24,632.83,64.54,644.69,64.54Zm17,18.5c-.21-5.45-2.3-8.8-6.56-8.8-4.47,0-6.49,2.24-6.49,9.64s2,9.63,6.49,9.63,6.56-3.7,6.56-9.63Z"/><path class="cls-1" d="M261.56,158.35c0-5.17-2.87-6.63-5.8-6.63-3.56,0-5.58,3.35-5.79,6.84v20.59H226.24V142h22.33l.56,9.63h.14c2.17-4.47,7.12-10.33,19-10.33,9.49,0,14.79,2.44,16.4,9.63h.21c2.58-4.33,7.54-9.63,17.87-9.63,11.86,0,18.56,3.7,18.56,15.56v22.27H296.11v-20.8c0-5.17-2.87-6.63-5.8-6.63-3.56,0-4.88,3.35-5,6.84v20.59H261.56Z"/><path class="cls-1" d="M355.85,179.85c-26,0-30.57-3.7-30.57-19.27,0-16.26,4.6-19.26,30.57-19.26s30.57,3,30.57,19.26a19.81,19.81,0,0,1-.42,4.19H349.29c0,7.4,2.23,9.14,6.56,9.14,3.28,0,5.93-.69,5.93-5.16a6.16,6.16,0,0,0-.14-1h23.87a4.09,4.09,0,0,1,.14,1C385.65,177.4,375.81,179.85,355.85,179.85Zm-6.56-21.36h13c0-8.1-1.75-9.77-6.49-9.77S349.29,150.39,349.29,158.49Z"/><path class="cls-1" d="M427.46,179.15l-.28-3.7-.07-1.89a4.89,4.89,0,0,1-.91,1.12c-2.58,2.37-7.54,5.24-15.77,5.24-15.36,0-20.8-2.45-20.8-11,0-9.08,9.07-12.15,29.8-12.15h6.7v-1.12c0-5.09-1.4-6.9-6.7-6.9-4.61,0-6.56,1.46-6.56,3.83a5.7,5.7,0,0,0,.28,1.4H392.07a5.7,5.7,0,0,1-.28-1.4c0-7.39,10.47-11.3,27.85-11.3,16.61,0,29.8,2.37,29.8,14.37v23.46ZM426.13,165v-.91h-4.19c-7.95,0-9.63,2-9.63,4.61,0,3.14,1.47,4,5.45,4C424.32,172.73,426.13,168.54,426.13,165Z"/><path class="cls-1" d="M492.37,160.58V142h25.19v18.56c0,15.57-5,19.27-31.69,19.27s-31.68-3.7-31.68-19.27V142h25.19v18.56c0,10.4,1.33,11.87,6.49,11.87S492.37,171,492.37,160.58Z"/><path class="cls-1" d="M531.73,156.11,520,142h27.85l3.77,5.65,2,3.49,1.6-3.49,3-5.65h26.38l-11.72,14.16-3.35,3.63,3.35,3.42,14,15.92H560.48l-5.09-8.31-1.4-2.65-1.46,2.65-5.38,8.31H519.23l12.5-15.5,3.42-3.84Z"/><path class="cls-1" d="M85.92,255.92H60V235l.21-7H60l-2.8,7-9.91,20.94H36.64L26.87,235l-2.93-7.12h-.07l.21,7.12v20.94H0V207.06H32.18l6.56,14,4.12,9.43H43L47.11,221l6.56-14H85.92Z"/><path class="cls-1" d="M121.86,255.92H93.73V207.06h28.13Z"/><path class="cls-1" d="M128.42,241.4h28.76a13.1,13.1,0,0,0-.14,1.68c0,3.14,2.51,4.68,5.93,4.68,4.47,0,5.93-2,5.93-4.19,0-10.19-40.76.77-40.76-20.31,0-15.57,8.17-17,33.37-17,27.36,0,32.59.76,32.59,12.91a11.26,11.26,0,0,1-.21,1.81H167.23a11.26,11.26,0,0,0,.21-1.81c0-2.72-1.54-4.05-5.93-4.05-3.7,0-5.94.42-5.94,3.42,0,9.77,41.46-.14,41.46,20.24,0,16.33-8.16,17.8-34.06,17.8-25.19,0-34.69-.77-34.69-13.54A13.1,13.1,0,0,1,128.42,241.4Z"/><path class="cls-1" d="M262.43,219.63h-17.8v36.29H216.5V219.63H198V207.06h64.42Z"/><path class="cls-1" d="M277.43,207.06h42.93l17.8,48.86H310l-2.58-8c-3.22-.14-6.77-.21-9.29-.21s-6.14.07-9.35.21l-2.51,8H259.63Zm20.73,11.24h-.07l-1.25,4.54-5.66,17.66c2.52.07,5.1.14,7,.14s4.4-.07,6.91-.14l-5.58-17.66Z"/><path class="cls-1" d="M357.42,241.4h28.75a13.1,13.1,0,0,0-.14,1.68c0,3.14,2.52,4.68,5.94,4.68,4.46,0,5.93-2,5.93-4.19,0-10.19-40.76.77-40.76-20.31,0-15.57,8.16-17,33.36-17,27.36,0,32.6.76,32.6,12.91a11.26,11.26,0,0,1-.21,1.81H396.22a11.26,11.26,0,0,0,.21-1.81c0-2.72-1.53-4.05-5.93-4.05-3.7,0-5.93.42-5.93,3.42,0,9.77,41.46-.14,41.46,20.24,0,16.33-8.17,17.8-34.06,17.8-25.2,0-34.69-.77-34.69-13.54A13.1,13.1,0,0,1,357.42,241.4Z"/><path class="cls-1" d="M484.86,255.92H432.31V207.06h51.86V219.7H460.43v6.63h23v10.33h-23v6.63h24.43Z"/><path class="cls-1" d="M519.27,243.36h23v12.56h-51.1V207.06h28.13Z"/><path class="cls-1" d="M598,255.92H545.44V207.06H597.3V219.7H573.57v6.63h23v10.33h-23v6.63H598Z"/><path class="cls-1" d="M639,256.69c-29.66,0-36.29-1.54-36.29-25.2S609.38,206.3,639,206.3c25.62,0,34.13,1.46,34.13,19.26a11.26,11.26,0,0,1-.21,1.81H645.39a11.26,11.26,0,0,0,.21-1.81c0-8.93-1.6-11.17-6.56-11.17-7.4,0-8.17,3-8.17,17.1s.77,17,8.17,17c5.23,0,6.7-2.23,6.7-12.63a17,17,0,0,0-.14-1.82h27.71a17,17,0,0,1,.14,1.82C673.45,255.15,665.28,256.69,639,256.69Z"/><path class="cls-1" d="M738.85,219.63h-17.8v36.29H692.92V219.63h-18.5V207.06h64.43Z"/><path class="cls-1" d="M753.85,207.06h42.93l17.79,48.86H786.45l-2.59-8c-3.21-.14-6.77-.21-9.28-.21s-6.14.07-9.35.21l-2.52,8H736.05Zm20.73,11.24h-.07l-1.26,4.54L767.6,240.5c2.51.07,5.1.14,7,.14s4.4-.07,6.91-.14l-5.58-17.66Z"/><path class="cls-1" d="M320.5,38.42l-.59.37A28.55,28.55,0,0,1,317.06,26a31.15,31.15,0,0,1,1.74-10.7,30.79,30.79,0,0,1,4.78-8.66A29.82,29.82,0,0,1,330.71.12l.42.53a32.26,32.26,0,0,0-9.24,12.44,38.48,38.48,0,0,0-3.12,15.15,32.23,32.23,0,0,0,.54,5.57A23.51,23.51,0,0,0,320.5,38.42Z"/><path class="cls-1" d="M347.2,24a5.11,5.11,0,0,1-1.49,3.54,5.65,5.65,0,0,1-4.38,1.62,4.76,4.76,0,0,1-3.22-.95,2.73,2.73,0,0,1-1.07-2,1.62,1.62,0,0,1,.32-1,1,1,0,0,1,.83-.41c.74,0,1.12.39,1.12,1.18a3.12,3.12,0,0,1-.13.77,1.25,1.25,0,0,0-.08.36,1,1,0,0,0,.65.86,3.1,3.1,0,0,0,1.54.36,4,4,0,0,0,2.53-.88A2.91,2.91,0,0,0,345,25a10.45,10.45,0,0,0-1.6-4.26q-1.87-3.37-1.88-4.93a4.3,4.3,0,0,1,1.59-3.38,5.35,5.35,0,0,1,3.6-1.37,4.22,4.22,0,0,1,2.52.75,2,2,0,0,1,1.06,1.6c0,.74-.31,1.11-.92,1.11-.46,0-.79-.41-1-1.23A1.66,1.66,0,0,0,346.53,12a3.37,3.37,0,0,0-2.06.64,2,2,0,0,0-.87,1.69A8.77,8.77,0,0,0,345,18.17a26.29,26.29,0,0,1,1.76,3.43A6.81,6.81,0,0,1,347.2,24Z"/><path class="cls-1" d="M351.46,23.14a14.83,14.83,0,0,1,1.17-5.44A11.71,11.71,0,0,1,356,12.92a6.59,6.59,0,0,1,4.2-1.83,3.69,3.69,0,0,1,3,1.57,6.86,6.86,0,0,1,1.2,4.26,14.63,14.63,0,0,1-1.34,6.16,11.46,11.46,0,0,1-3.34,4.46,6.42,6.42,0,0,1-3.94,1.55,4.11,4.11,0,0,1-3-1.33C351.9,26.87,351.46,25.33,351.46,23.14Zm2.23,2.39a3.15,3.15,0,0,0,.58,1.92,1.87,1.87,0,0,0,1.6.79q2.79,0,4.59-5.29a27.48,27.48,0,0,0,1.8-8.07,3.46,3.46,0,0,0-.55-2.15,2,2,0,0,0-1.65-.72c-1.74,0-3.23,1.63-4.49,4.9A24.65,24.65,0,0,0,353.69,25.53Z"/><path class="cls-1" d="M382.24,24.33h.88c-1.18,3.24-2.78,4.87-4.79,4.87a2,2,0,0,1-1.53-.56,2.46,2.46,0,0,1-.51-1.69,18.84,18.84,0,0,1,1.12-5.06q-3.63,7.31-7.2,7.31a2.67,2.67,0,0,1-2.06-.81,2.89,2.89,0,0,1-.75-2,14.58,14.58,0,0,1,.94-3.94L370.9,15a10.7,10.7,0,0,0,.56-2,.48.48,0,0,0-.54-.54c-.87,0-1.83,1.18-2.87,3.52h-1a10.14,10.14,0,0,1,2.18-3.57A3.85,3.85,0,0,1,371.9,11a2,2,0,0,1,1.38.51,2,2,0,0,1,.57,1.53,12.12,12.12,0,0,1-.72,2.91l-2.63,7.7a12.33,12.33,0,0,0-.75,3,1.39,1.39,0,0,0,.3,1,1,1,0,0,0,.85.34q1.83,0,4.35-3.89a47.07,47.07,0,0,0,4.83-11.58l.35-1.18h2.5L379.29,23.2a19.8,19.8,0,0,0-.88,3.52,1.21,1.21,0,0,0,.21.78.76.76,0,0,0,.62.26Q380.83,27.76,382.24,24.33Z"/><path class="cls-1" d="M400.3,24.7h1.07a12.66,12.66,0,0,1-2.55,3.37,4.06,4.06,0,0,1-2.66,1.13,2.38,2.38,0,0,1-1.61-.58,2.09,2.09,0,0,1-.68-1.69,14.58,14.58,0,0,1,1-3.71l2.23-6.34a14.54,14.54,0,0,0,.89-3.37,1.48,1.48,0,0,0-.3-1,1.16,1.16,0,0,0-.92-.34q-1.59,0-4.14,3.72a35.42,35.42,0,0,0-4.38,9.73l-1,3.33h-2.53l3.66-11.82a27.15,27.15,0,0,0,1-3.75.81.81,0,0,0-.13-.52.45.45,0,0,0-.39-.17c-.82,0-1.79,1-2.92,3h-.95q2.6-4.73,4.93-4.72a1.5,1.5,0,0,1,1.22.49,2.27,2.27,0,0,1,.4,1.48,18,18,0,0,1-1.39,5.54Q393.86,11,397.41,11a2.89,2.89,0,0,1,2,.76,2.79,2.79,0,0,1,.85,2.21,13.65,13.65,0,0,1-.85,3.5l-2.23,6.64a23.54,23.54,0,0,0-.89,3,.7.7,0,0,0,.77.79,2.27,2.27,0,0,0,1.52-.81A11.21,11.21,0,0,0,400.3,24.7Z"/><path class="cls-1" d="M418.08,24.83h1a12.22,12.22,0,0,1-2.37,3,4.08,4.08,0,0,1-2.61,1.33,2,2,0,0,1-1.66-.67,3,3,0,0,1-.56-2,5.35,5.35,0,0,1,.1-1.1q-3,3.75-5.47,3.75a3.09,3.09,0,0,1-2.42-1.15,4.9,4.9,0,0,1-1-3.31,15.05,15.05,0,0,1,1.67-6.48,14.65,14.65,0,0,1,4.12-5.37,7.42,7.42,0,0,1,4.27-1.9,2.82,2.82,0,0,1,1.59.43,3.07,3.07,0,0,1,1.05,1.32l2.54-8.39a10.74,10.74,0,0,0,.46-1.81.83.83,0,0,0-.29-.71,2.73,2.73,0,0,0-1.38-.21h-.58l.27-.87A12.73,12.73,0,0,0,421.64,0h.52L415.5,21.91a29.44,29.44,0,0,0-1.23,4.79,1.21,1.21,0,0,0,.2.78.68.68,0,0,0,.57.26,2.11,2.11,0,0,0,1.38-.73A11,11,0,0,0,418.08,24.83Zm-12.57.87a3.14,3.14,0,0,0,.4,1.76,1.37,1.37,0,0,0,1.2.59c.93,0,2-.65,3.23-1.94a18.29,18.29,0,0,0,3.37-6.41,25.49,25.49,0,0,0,1.54-5.65,2.17,2.17,0,0,0-.52-1.4,1.73,1.73,0,0,0-1.38-.62,4.1,4.1,0,0,0-2.84,1.59,21,21,0,0,0-3.24,5.52A16.64,16.64,0,0,0,405.51,25.7Z"/><path class="cls-1" d="M430.23,24a5.11,5.11,0,0,1-1.49,3.54,5.65,5.65,0,0,1-4.38,1.62,4.72,4.72,0,0,1-3.21-.95,2.71,2.71,0,0,1-1.08-2,1.56,1.56,0,0,1,.33-1,1,1,0,0,1,.82-.41c.75,0,1.12.39,1.12,1.18a3.54,3.54,0,0,1-.12.77,1,1,0,0,0-.08.36,1,1,0,0,0,.64.86,3.1,3.1,0,0,0,1.54.36,4,4,0,0,0,2.54-.88A2.93,2.93,0,0,0,428,25a10.45,10.45,0,0,0-1.6-4.26q-1.87-3.37-1.87-4.93a4.32,4.32,0,0,1,1.58-3.38,5.35,5.35,0,0,1,3.6-1.37,4.23,4.23,0,0,1,2.53.75,2,2,0,0,1,1.05,1.6c0,.74-.31,1.11-.92,1.11-.45,0-.79-.41-1-1.23A1.66,1.66,0,0,0,429.56,12a3.39,3.39,0,0,0-2.06.64,2,2,0,0,0-.87,1.69A8.77,8.77,0,0,0,428,18.17a25.07,25.07,0,0,1,1.76,3.43A6.81,6.81,0,0,1,430.23,24Z"/><path class="cls-1" d="M450.92,15.09c1.83-2.74,3.61-4.1,5.34-4.1a3.12,3.12,0,0,1,2.8,1.5,6,6,0,0,1,1,3.35,15.44,15.44,0,0,1-1.34,5.73A13.35,13.35,0,0,1,454.6,27a8.45,8.45,0,0,1-5.12,2.19,4,4,0,0,1-2.76-1,3.51,3.51,0,0,1-1.11-2.72,17.51,17.51,0,0,1,.89-4.06l5.06-16.67a13.36,13.36,0,0,0,.58-2.22.82.82,0,0,0-.27-.69,2.68,2.68,0,0,0-1.37-.21h-.67l.25-.87A14.5,14.5,0,0,0,455,0h.52Zm-3.1,11.24a2.05,2.05,0,0,0,.44,1.44,1.69,1.69,0,0,0,1.32.49q3,0,5.54-5.12t2.54-8.28a3.59,3.59,0,0,0-.49-2,1.51,1.51,0,0,0-1.32-.75c-.9,0-2,.64-3.13,1.93a18.62,18.62,0,0,0-3.34,6.38A23.22,23.22,0,0,0,447.82,26.33Z"/><path class="cls-1" d="M463.3,16.63h-.88a8.22,8.22,0,0,1,1.3-4.3A3,3,0,0,1,466,11a2.79,2.79,0,0,1,2.47,1.88,13.56,13.56,0,0,1,.92,5.73,34.65,34.65,0,0,1-1.14,9.18,31,31,0,0,0,4-5.66,12.52,12.52,0,0,0,1.94-5.85A4.39,4.39,0,0,0,473.5,14a3.7,3.7,0,0,1-.67-1.67,1.51,1.51,0,0,1,.32-.95,1,1,0,0,1,.78-.4,1.4,1.4,0,0,1,1.23.85,5.26,5.26,0,0,1,.48,2.52,16.19,16.19,0,0,1-1.53,6.09,28.69,28.69,0,0,1-4.49,7.11,84.34,84.34,0,0,1-5.87,6.37,24.17,24.17,0,0,1-5,4A8.79,8.79,0,0,1,454.58,39c-1.76,0-2.64-.51-2.64-1.52a1.11,1.11,0,0,1,.56-1,2.15,2.15,0,0,1,1.18-.36,6.61,6.61,0,0,1,1.5.27,8.42,8.42,0,0,0,2.19.37,4.84,4.84,0,0,0,2.44-.69,16.4,16.4,0,0,0,3-2.42,13.26,13.26,0,0,0,2.46-3A16.38,16.38,0,0,0,466.49,26a43.55,43.55,0,0,0,.55-7.16,14.51,14.51,0,0,0-.54-4.49c-.36-1.06-.8-1.58-1.33-1.58C464.16,12.74,463.53,14,463.3,16.63Z"/><path class="cls-1" d="M494.08.5l.58-.38a28.61,28.61,0,0,1,2.85,12.76,30.62,30.62,0,0,1-3.76,15.18,29.66,29.66,0,0,1-9.89,10.73l-.42-.52a32,32,0,0,0,9.25-12.44,38.54,38.54,0,0,0,3.11-15.15,32.14,32.14,0,0,0-.54-5.57A23.62,23.62,0,0,0,494.08.5Z"/></g></g></svg>