<svg xmlns="http://www.w3.org/2000/svg" viewBox="0 0 193.76 194.46"><defs><style>.cls-1,.cls-2{fill:#fff;}.cls-1{fill-rule:evenodd;}</style></defs><title>Asset 5</title><g id="Layer_2" data-name="Layer 2"><g id="Assets"><path class="cls-1" d="M144.52,12.75c-31,64.56,18.27,15.94,19.86,15.14-46.86,54.2,14.29,19.93,15.88,19.93-58.77,39.85,7.94,23.11,10.32,23.11-68.29,23.91,1.59,24.71,3.18,25.5-71.47,4.78-4,23.91-3.18,24.71-69.88-13.55-10.32,22.31-9.53,23.91C116.73,114,165.17,163.38,166,165c-54-47-19.85,14.35-19.85,15.94-39.7-59-23,8-23,10.36-23.82-68.54-24.61,1.6-25.41,3.19-4.76-71.73-23.82-4-24.61-3.19,13.5-70.13-22.24-10.36-23.83-9.56,31-64.56-18.26-15.94-19.85-15.14,46.85-54.2-14.29-19.93-15.88-19.93C73.06,106.79,5.56,123.53,4,123.53,71.47,99.62,1.59,98.82,0,98c71.47-4.79,4.76-23.91,3.18-24.71C73.06,86.87,13.5,51,12.71,49.41,77,80.49,28.59,31.08,27.79,29.49c54,47,19.86-14.35,19.86-15.94,39.7,59.77,23-8,23-9.57C94.5,71.73,95.29,1.59,96.08,0c4.77,71.73,23.83,4.78,24.62,3.19C107.2,73.32,142.94,13.55,144.52,12.75ZM96.88,41.44c31,0,55.58,25.5,55.58,55.79a55.59,55.59,0,1,1-111.17,0C41.29,66.94,66.7,41.44,96.88,41.44Z"/><path class="cls-2" d="M92.66,91.71v-.65a2.49,2.49,0,0,0,1.32-.5,1.4,1.4,0,0,0,.38-1.08V79.63A1.44,1.44,0,0,0,94,78.54a2.57,2.57,0,0,0-1.32-.5V77.4h6.61v2.23h0a6,6,0,0,1,1.35-1.82,3.22,3.22,0,0,1,2.16-.76,2.14,2.14,0,0,1,1.56.58,2.76,2.76,0,0,1,0,3.45,2.07,2.07,0,0,1-1.58.66,1.69,1.69,0,0,1-.76-.15,3.35,3.35,0,0,1-.64-.44,2.7,2.7,0,0,0-.5-.35,1.18,1.18,0,0,0-.55-.12c-.57,0-.85.59-.85,1.76v5.63a4.62,4.62,0,0,0,.38,2.23,2.07,2.07,0,0,0,1.61.76v.65Z"/><path class="cls-2" d="M105.25,86.43h.65a5.84,5.84,0,0,0,1.43,2.95,3.57,3.57,0,0,0,2.77,1.27,1.64,1.64,0,0,0,1.26-.47,1.54,1.54,0,0,0,.44-1.08,2,2,0,0,0-.72-1.47,17.67,17.67,0,0,0-2.2-1.67A19.49,19.49,0,0,1,106,83.69a3.28,3.28,0,0,1-1-2.36,4,4,0,0,1,1.29-3.17,5.16,5.16,0,0,1,3.5-1.11,10,10,0,0,1,2.63.41,5,5,0,0,0,1.08.23,1,1,0,0,0,.64-.17,1.13,1.13,0,0,0,.32-.47h.65v4.57h-.65a7.62,7.62,0,0,0-1.57-2.52,3,3,0,0,0-2.22-1c-1,0-1.46.47-1.46,1.41a1.43,1.43,0,0,0,.6,1.07,15.93,15.93,0,0,0,1.88,1.33c.7.43,1.28.81,1.74,1.13a10.1,10.1,0,0,1,1.34,1.16,5.39,5.39,0,0,1,1,1.51,4.15,4.15,0,0,1,.4,1.83,3.82,3.82,0,0,1-.4,1.73,4.47,4.47,0,0,1-1.08,1.44,5.37,5.37,0,0,1-1.59,1,4.91,4.91,0,0,1-1.9.37,6.5,6.5,0,0,1-1.52-.16,8.93,8.93,0,0,1-1.34-.49,4.27,4.27,0,0,0-1.52-.41.79.79,0,0,0-.53.18,3.35,3.35,0,0,0-.46.53h-.65Z"/><path class="cls-2" d="M126.14,78.81h-2.8v9.44c0,1.13.3,1.7.9,1.7a2,2,0,0,0,.91-.25,2.49,2.49,0,0,0,.76-.63l.64.64a7.06,7.06,0,0,1-2.08,1.72,5.17,5.17,0,0,1-2.51.63,3.52,3.52,0,0,1-2.83-1.1,4.33,4.33,0,0,1-.94-2.89V78.81h-1.57v-.88a14.61,14.61,0,0,0,1.94-1A7.15,7.15,0,0,0,120,75.85a8.46,8.46,0,0,0,1.14-1.47,15.38,15.38,0,0,0,1-2h1.2v5h2.8Z"/><path class="cls-2" d="M83.25,115.52a2.39,2.39,0,0,0,.16,1.07.52.52,0,0,0,.48.28.68.68,0,0,0,.38-.15.84.84,0,0,1,.46-.15c.22,0,.33.12.33.35a1.14,1.14,0,0,1-.33.71,3.57,3.57,0,0,1-.89.72,6.28,6.28,0,0,1-1.21.54,4,4,0,0,1-1.23.2,2.75,2.75,0,0,1-1.78-.52,6.08,6.08,0,0,1-1.19-1.38.38.38,0,0,0-.09-.15,9.7,9.7,0,0,1-2.27,1.5,5.58,5.58,0,0,1-2.41.55,3.15,3.15,0,0,1-2.38-.92,3.4,3.4,0,0,1-.89-2.45,3.16,3.16,0,0,1,.79-2,7.51,7.51,0,0,1,2-1.63,16.85,16.85,0,0,1,2.34-1.15c.77-.32,1.58-.61,2.42-.88l.2-.06v-2.61a2.86,2.86,0,0,0-.38-1.64,1.47,1.47,0,0,0-1.31-.56,1.57,1.57,0,0,0-1,.32,1,1,0,0,0-.39.79,3,3,0,0,0,.26,1,3.78,3.78,0,0,1,.32,1.32,1.44,1.44,0,0,1-.68,1.25,3.07,3.07,0,0,1-1.71.45,2.23,2.23,0,0,1-2.4-2.46,3,3,0,0,1,1.74-2.7,9,9,0,0,1,4.51-1,11.92,11.92,0,0,1,3.08.33,4.35,4.35,0,0,1,1.9,1,3.25,3.25,0,0,1,1,1.52,7.58,7.58,0,0,1,.27,2.16Zm-5.15-4.37-.35.18a5.7,5.7,0,0,0-1.65,1.12,2.67,2.67,0,0,0-.57,1.89,2.52,2.52,0,0,0,.31,1.37,1.51,1.51,0,0,0,1.75.29,2.57,2.57,0,0,0,.51-.45Z"/><path class="cls-2" d="M85,118.74v-.64c1-.18,1.57-.71,1.57-1.59v-9.85c0-.88-.52-1.4-1.57-1.58v-.64h6.72v1.4a7.64,7.64,0,0,1,1.94-1.42,5.38,5.38,0,0,1,2.09-.34,3.93,3.93,0,0,1,2.38.66,3.11,3.11,0,0,1,1.15,1.4,10,10,0,0,1,2-1.59,4.68,4.68,0,0,1,2.22-.47,4.13,4.13,0,0,1,2.93,1.06,4.48,4.48,0,0,1,1.13,3.4v8c0,.88.52,1.41,1.57,1.59v.64h-7.82v-.64a1.51,1.51,0,0,0,.83-.52,1.77,1.77,0,0,0,.28-1.07v-8.12a2.76,2.76,0,0,0-.28-1.45,1,1,0,0,0-.89-.39,1.6,1.6,0,0,0-.86.22,3.89,3.89,0,0,0-.78.6v9.14q0,1.41,1.11,1.59v.64H93.41v-.64q1.11-.18,1.11-1.59v-8.12a2.66,2.66,0,0,0-.28-1.45,1,1,0,0,0-.89-.39,1.6,1.6,0,0,0-.86.22,4.16,4.16,0,0,0-.77.6v9.14q0,1.41,1.11,1.59v.64Z"/><path class="cls-2" d="M109.48,118.74v-.64c1-.18,1.57-.71,1.57-1.59v-9.85c0-.88-.52-1.4-1.57-1.58v-.64h6.89v12.07c0,.88.52,1.41,1.58,1.59v.64Z"/><path class="cls-2" d="M118.24,118.74v-.64c1.05-.18,1.58-.71,1.58-1.59V100.1c0-.88-.53-1.41-1.58-1.59v-.64h6.89v18.64c0,.88.53,1.41,1.58,1.59v.64Z"/><path class="cls-2" d="M135.27,112.06l1.66-4.17a4.48,4.48,0,0,0,.41-1.49c0-.82-.5-1.26-1.49-1.32v-.64h4.38v.64a2.65,2.65,0,0,0-1.08.79,8.5,8.5,0,0,0-1.08,2.14l-4.93,12.64a6.48,6.48,0,0,1-1.32,2.11,2.61,2.61,0,0,1-1.93.85,2.65,2.65,0,0,1-1.95-.78,2.45,2.45,0,0,1-.79-1.8,1.93,1.93,0,0,1,.52-1.38,1.82,1.82,0,0,1,1.38-.56,1.54,1.54,0,0,1,1.32.62,2.4,2.4,0,0,1,.46,1.49c0,.28.1.41.32.41a.48.48,0,0,0,.35-.19,1.94,1.94,0,0,0,.35-.66l.91-2.22L128,107.72a9.67,9.67,0,0,0-1-1.8,2.14,2.14,0,0,0-1.28-.84v-.64h8.36v.64c-.8.06-1.2.4-1.2,1a3.66,3.66,0,0,0,.35,1.23l.09.23Z"/><path class="cls-2" d="M88.11,98.84a2.87,2.87,0,0,1-2-4.9h0a2.73,2.73,0,0,1,2-.84,2.76,2.76,0,0,1,2,.84,2.87,2.87,0,0,1-2,4.9ZM86.24,94.1a2.64,2.64,0,1,0,3.73,0,2.62,2.62,0,0,0-3.73,0Z"/><path class="cls-2" d="M113.71,103.12a2.87,2.87,0,0,1-2.86-2.87,2.77,2.77,0,0,1,.84-2h0a2.86,2.86,0,0,1,4,4.06A2.73,2.73,0,0,1,113.71,103.12Zm-1.86-4.74a2.59,2.59,0,0,0-.77,1.87,2.56,2.56,0,0,0,.77,1.87,2.63,2.63,0,0,0,4.49-1.87,2.63,2.63,0,0,0-4.49-1.87Z"/><path class="cls-2" d="M66.53,70.85v.65a3.27,3.27,0,0,1,2.19.55,3,3,0,0,1,.62,2.2V88.32a3,3,0,0,1-.62,2.2,3.26,3.26,0,0,1-2.19.56v.64H78.45v-.64a3.3,3.3,0,0,1-2.19-.56,3,3,0,0,1-.61-2.2V81.76h0V80.47h0V72.14H79a5.12,5.12,0,0,1,3.5,1.07,4.9,4.9,0,0,1,1.4,3.39h.65V70.85Z"/><ellipse class="cls-2" cx="79.89" cy="80.99" rx="2.41" ry="2.42"/><path class="cls-2" d="M53.52,97.88v.64a3.28,3.28,0,0,1,2.19.56,3,3,0,0,1,.62,2.2v14.07a3,3,0,0,1-.62,2.2,3.28,3.28,0,0,1-2.19.56v.64H65.44v-.64a3.3,3.3,0,0,1-2.19-.56,3,3,0,0,1-.61-2.2v-6.57h0V107.5h0V99.17H66a5.12,5.12,0,0,1,3.5,1.07,4.9,4.9,0,0,1,1.4,3.39h.65V97.88Z"/><ellipse class="cls-2" cx="66.88" cy="108.02" rx="2.41" ry="2.42"/><path class="cls-2" d="M90.75,89.47V77.39h0l-5.3,2.13v10c0,.88-.52,1.4-1.57,1.58v.64h8.47v-.64C91.27,90.87,90.75,90.35,90.75,89.47Z"/><polygon class="cls-2" points="90.05 76.3 83.64 79.06 83.64 79.56 89.51 79.56 89.51 80.71 90.74 80.74 90.74 76.3 90.05 76.3"/></g></g></svg>