<svg xmlns="http://www.w3.org/2000/svg" viewBox="0 0 170.05 170.06"><defs><style>.cls-1{fill:#f4e09c;}</style></defs><title>Asset 5</title><g id="Layer_2" data-name="Layer 2"><g id="Layer_1-2" data-name="Layer 1"><path class="cls-1" d="M166.07,93.56l-2.8-.29A81.06,81.06,0,0,0,163.7,85H149.42a66.24,66.24,0,0,1-.35,6.76l-2.76-.29a63.59,63.59,0,0,0,.35-6.47,61,61,0,0,0-.74-9.46l2.1-.33a63.92,63.92,0,0,1,.67,6.76l2.1-.1h0L163,81.33c-.05-1.19-.14-2.38-.26-3.57h0a.77.77,0,0,0,0-.15.66.66,0,0,0,0-.14h0c-.14-1.47-.33-2.94-.56-4.4l3.44-.53a81.81,81.81,0,0,1,1,12.49h3.52A85,85,0,1,0,0,85H3.53A81.3,81.3,0,0,1,4,76.49l2.8.3A78.24,78.24,0,0,0,6.35,85H20.64A60.92,60.92,0,0,1,21,78.27l2.75.28A63.62,63.62,0,0,0,23.4,85a62.39,62.39,0,0,0,.73,9.46L22,94.81a61,61,0,0,1-.68-6.75l-2.1.09h0l-12.17.57c.06,1.19.15,2.39.26,3.58h0a1,1,0,0,1,0,.16.62.62,0,0,1,0,.13h0c.14,1.47.33,2.93.55,4.39l-3.43.53A81.58,81.58,0,0,1,3.53,85H0a85,85,0,1,0,170.05,0h-3.52A81.25,81.25,0,0,1,166.07,93.56ZM148.65,95a64.75,64.75,0,0,1-4.81,16.3l-2.53-1.13c.23-.51.46-1,.67-1.52a60.81,60.81,0,0,0,3.94-14.07Zm-7.85,26.27h0l.91.59.29.19h0l9,5.87c.66-1,1.28-2,1.9-3.09h0l.06-.12.09-.13h0q1.13-1.94,2.14-3.92l2.5,1.27a81.63,81.63,0,0,1-12.2,17.77l-2.22-2a79.64,79.64,0,0,0,5.2-6.39l-.46-.33h0l-1.68-1.23-.71-.52h0l-8.27-6h0l-.41-.3a64.93,64.93,0,0,1-4.26,5.24l-1.93-1.75A61.59,61.59,0,0,0,140,112.89l2.48,1.26a62.55,62.55,0,0,1-3.42,5.94ZM117,140.72l-1.3-2.26a62.39,62.39,0,0,0,12.89-9.85.1.1,0,0,1,0-.05l1.83,1.83A64.68,64.68,0,0,1,117,140.72Zm28.36-68.17A60.92,60.92,0,0,0,142,61.44c-.59-1.44-1.26-2.84-2-4.23l1.89-1a64.25,64.25,0,0,1,5.54,15.88Zm19.46-4-3.39.7a77.27,77.27,0,0,0-2.11-8l-2.12.68h0l-4,1.29h0l-2.36.75a67.85,67.85,0,0,1,1.87,7.16l3.46-.71c-.28-1.36-.6-2.71-1-4.06l1.81-.48a72.56,72.56,0,0,1,2.15,12L152,78.5a66.92,66.92,0,0,0-10.43-30l6.06-3.93a75.82,75.82,0,0,1,5.66,10.5l-1.72.76c-.56-1.28-1.15-2.54-1.78-3.78l-3.15,1.61a66.81,66.81,0,0,1,3,6.76l2.32-.88h0l2.74-1h0l3.3-1.26a79.32,79.32,0,0,0-3.32-7.49l3.08-1.56c.93,1.83,1.82,3.7,2.61,5.6A80.71,80.71,0,0,1,164.84,68.55Zm-9-23.89-3,1.72a76.18,76.18,0,0,0-4.43-6.89l-2,1.42-7.56,5.44-2.06,1.48a62.65,62.65,0,0,1,3.62,5.63l-1.85,1a62,62,0,0,0-9.87-13l1.61-1.6A64.15,64.15,0,0,1,134.84,45l1.64-1.32h0L146,36.05c-.75-.94-1.53-1.85-2.33-2.75h0l-.09-.1-.1-.12h0c-1-1.1-2-2.18-3-3.22l2.35-2.35A81.66,81.66,0,0,1,155.81,44.66Zm-43.94-29.3a74,74,0,0,1,10.77,5.18l-1,1.62c-1.2-.7-2.42-1.38-3.66-2l-1.61,3.14A70.48,70.48,0,0,1,122.84,27l1.94-3h0l1-1.58h0l1.93-2.95a77.11,77.11,0,0,0-7.1-4.12l1.51-2.93a82,82,0,0,1,17.69,12.23l-2.23,2.46a77.43,77.43,0,0,0-6.44-5.27l-1.32,1.8h0l-2.17,3-1.79,2.44a69.58,69.58,0,0,1,5.74,4.7L134,31.2c-1-.94-2.09-1.85-3.18-2.72L132,27a76.08,76.08,0,0,1,8.81,8.41l-5.4,4.8A67.73,67.73,0,0,0,109.27,22.1ZM128,37.74l-1.52,1.67a62,62,0,0,0-13.39-9.25l1-2A64,64,0,0,1,128,37.74Zm-9.51-27-1.35,3a75.65,75.65,0,0,0-7.65-3l-.18.54h0L106.12,21h0L105,24.32a60.67,60.67,0,0,1,6.25,2.42l-.94,2.09c-.57-.26-1.13-.52-1.71-.76a60.92,60.92,0,0,0-13.89-3.9l.38-2.42a65.91,65.91,0,0,1,6.67,1.42l.54-2h0l3.18-11.76c-1.16-.31-2.33-.59-3.51-.85h0l-.1,0-.18,0h0c-1.45-.32-2.91-.59-4.38-.82l.49-3.1a80.15,80.15,0,0,1,18.41,5.17C117,10,117.73,10.38,118.48,10.72ZM75.39,24.16,75,21.75a65.28,65.28,0,0,1,16.93-.41l-.26,2.43a60.87,60.87,0,0,0-16.29.39ZM93.8,4l-.34,3.12a79.67,79.67,0,0,0-8.32-.45V8.91h0v3.18h0v3.53a70.69,70.69,0,0,1,7.43.4l.38-3.51c-1.39-.15-2.78-.25-4.18-.32l.1-1.87a73.58,73.58,0,0,1,12.1,1.6L99.42,19a68.22,68.22,0,0,0-31.89.75l-1.87-7A74.86,74.86,0,0,1,77.44,10.6l.19,1.87c-1.39.14-2.78.31-4.16.53L74,16.49a70.57,70.57,0,0,1,7.4-.78l-.18-3.53h0l-.1-1.87h0L81,6.78a77.49,77.49,0,0,0-8.17.86l-.49-3.1A81,81,0,0,1,85,3.53,83.13,83.13,0,0,1,93.8,4Zm-40,5.71A80.65,80.65,0,0,1,68.32,5.26L69,8.34A78.1,78.1,0,0,0,61,10.43l1.08,3.36h0l2.69,8.38.6,1.86a60.3,60.3,0,0,1,6.5-1.71l.5,2.39a61.48,61.48,0,0,0-10.94,3.36c-1.5.62-3,1.32-4.42,2.06L55.83,27.8A61.25,61.25,0,0,1,62.08,25l-1.27-3.29h0L57,11.68c-1.13.43-2.24.9-3.34,1.38h0l-.13.06-.13.06h0c-1.36.6-2.7,1.24-4,1.92L48,12.45C49.9,11.47,51.84,10.54,53.83,9.72ZM30.06,57.16,27.58,55.9A64.72,64.72,0,0,1,31,50l-1.76-1.15h0L19,42.18c-.66,1-1.29,2-1.9,3.08h0l-.06.11a1,1,0,0,0-.08.14h0c-.75,1.29-1.45,2.6-2.13,3.93l-2.51-1.27A81.74,81.74,0,0,1,24.55,30.4l2.22,2a77.77,77.77,0,0,0-5.2,6.38l2.85,2.08h0l5.84,4.26h0l.77.56,1.67,1.22h0l.41.3A64.66,64.66,0,0,1,37.36,42l1.93,1.74A62.42,62.42,0,0,0,30.06,57.16ZM41.45,41.45l0,0-1.84-1.83A64.6,64.6,0,0,1,53,29.34l1.3,2.26A61.9,61.9,0,0,0,41.45,41.45Zm3-27.07L45.9,17a80.93,80.93,0,0,0-7,4.55l1.31,1.8h0l2.41,3.3,1.54,2.12a71.06,71.06,0,0,1,6.25-4.06l-1.75-3.06c-1.22.7-2.41,1.44-3.58,2.21l-1-1.57A75,75,0,0,1,54.78,16.4L57.7,23A68.12,68.12,0,0,0,32.32,42.46L26.7,37.92A76.39,76.39,0,0,1,35,29.22l1.25,1.4c-1,.93-2.06,1.89-3,2.89L35.68,36a70.71,70.71,0,0,1,5.52-5l-1.56-1.93h0L37,25.78h0l-1.4-1.73a78,78,0,0,0-6.11,5.53l-2.12-2.12.06-.06A81.68,81.68,0,0,1,44.42,14.38ZM10,81.29a76.08,76.08,0,0,1,1.55-11.93l1.84.39c-.3,1.37-.56,2.76-.77,4.14l3.49.53a70.28,70.28,0,0,1,1.53-7.31l-3.42-.9h0l-3.07-.82h0L9,64.82a76.94,76.94,0,0,0-1.69,8.09l-2.78-.43A80.53,80.53,0,0,1,9.72,53.83c.28-.68.59-1.34.89-2L13.17,53a77.86,77.86,0,0,0-3,7.82l2.12.69h0l4,1.3h0l2.36.77a72.75,72.75,0,0,1,2.68-7l-3.22-1.44c-.57,1.28-1.1,2.58-1.6,3.9l-1.76-.67A75.37,75.37,0,0,1,20,47.29l6.25,3.63A67.75,67.75,0,0,0,17.2,81.65Zm11.43-6.2a64.25,64.25,0,0,1,4.8-16.29l2.53,1.13c-.22.5-.46,1-.67,1.51a61.37,61.37,0,0,0-3.93,14.08Zm9.92-12.3A58.38,58.38,0,1,1,26.93,85,58.31,58.31,0,0,1,31.33,62.79ZM85,146.66a62.24,62.24,0,0,0,9.64-.77L95,148.3a64.78,64.78,0,0,1-16.92.41l.26-2.42A61.32,61.32,0,0,0,85,146.66Zm-37.62,2.86,1-1.62c1.2.7,2.42,1.38,3.67,2l1.6-3.15A67.31,67.31,0,0,1,47.21,143l-1.93,3h0l-1,1.57h0l-1.93,3a80.79,80.79,0,0,0,7.1,4.11l-1.5,2.94a81.82,81.82,0,0,1-17.7-12.24l2.23-2.45a80.86,80.86,0,0,0,6.44,5.27l1.32-1.8h0l1.88-2.57h0l.43-.58.19-.26h0l1.47-2a68,68,0,0,1-5.75-4.69l-2.38,2.61c1,.94,2.1,1.84,3.18,2.72L38.05,143a75.32,75.32,0,0,1-8.81-8.41l5.4-4.81A67.72,67.72,0,0,0,60.78,148l-2.59,6.74A75.2,75.2,0,0,1,47.41,149.52Zm-5.35-17.2,1.53-1.68A62,62,0,0,0,57,139.9l-1,2A64.77,64.77,0,0,1,42.06,132.32ZM24.67,97.5a60.68,60.68,0,0,0,3.4,11.11c.6,1.44,1.27,2.85,2,4.23l-1.89,1a63.24,63.24,0,0,1-5.54-15.87Zm-19.46,4,3.4-.7a79.3,79.3,0,0,0,2.1,8l2.13-.68h0l4-1.29h0l2.37-.76A67.89,67.89,0,0,1,17.35,99l-3.46.71c.28,1.36.61,2.72,1,4.06l-1.82.48a74.59,74.59,0,0,1-2.15-12l7.19-.69a67.14,67.14,0,0,0,10.44,30l-6.06,3.92a73.22,73.22,0,0,1-5.66-10.5l1.72-.75c.56,1.27,1.15,2.53,1.78,3.77l3.14-1.6a69.29,69.29,0,0,1-3-6.77l-3.3,1.26h0l-2.13.81-2.92,1.11a74.76,74.76,0,0,0,3.32,7.49l-3.09,1.57c-.93-1.84-1.81-3.7-2.6-5.6A80.6,80.6,0,0,1,5.21,101.5Zm9,23.89,3-1.71a79,79,0,0,0,4.42,6.89l2.87-2.06h0l5.86-4.22h0l2.87-2.07a60.52,60.52,0,0,1-3.62-5.63l1.84-1a62.12,62.12,0,0,0,9.88,13l-1.61,1.61a64.15,64.15,0,0,1-4.54-5.07l-2.75,2.21h0L24.09,134c.75.93,1.53,1.85,2.32,2.74h0l.08.09.11.13h0c1,1.11,2,2.18,3,3.23l-2.36,2.34A82,82,0,0,1,14.24,125.39Zm37.33,33.94,1.36-3a79.67,79.67,0,0,0,7.65,3l.17-.54h0l.43-1.32.49-1.49h0l2.26-6.87h0l1.1-3.35a61.64,61.64,0,0,1-6.25-2.43l1-2.08c.56.25,1.13.51,1.7.75a61,61,0,0,0,13.9,3.9L75,148.3a60.36,60.36,0,0,1-6.67-1.42l-.55,2h0l-3.17,11.76c1.16.32,2.33.6,3.5.86h0l.1,0,.18,0h0c1.45.31,2.91.58,4.37.81l-.49,3.11a81.17,81.17,0,0,1-18.41-5.17C53.07,160,52.32,159.67,51.57,159.33ZM76.26,166l.33-3.12a77.35,77.35,0,0,0,8.33.45v-2.22h0v-4.23h0v-2.48A71,71,0,0,1,77.5,154l-.38,3.51c1.39.15,2.79.25,4.18.32l-.09,1.88a76.07,76.07,0,0,1-12.11-1.6l1.54-7.07a68.09,68.09,0,0,0,31.89-.75l1.87,7a76.17,76.17,0,0,1-11.79,2.16l-.19-1.87c1.39-.14,2.78-.32,4.16-.54L96,153.57a68,68,0,0,1-7.4.77l.18,3.53h0l.16,3.18h0l.11,2.22a80.11,80.11,0,0,0,8.18-.85l.49,3.1a82.32,82.32,0,0,1-12.72,1A80.27,80.27,0,0,1,76.26,166Zm40-5.7a80.37,80.37,0,0,1-14.49,4.45l-.64-3.07a77.65,77.65,0,0,0,8-2.1l-.17-.54h0l-3.13-9.7h0L104.67,146a63.26,63.26,0,0,1-6.49,1.72l-.5-2.4A60.32,60.32,0,0,0,108.61,142c1.51-.62,3-1.32,4.42-2.06l1.19,2.33A62.07,62.07,0,0,1,108,145l.75,2h0l4.36,11.38c1.12-.43,2.24-.89,3.34-1.37h0l.14-.06.13-.05h0q2-.9,4-1.92l1.36,2.65C120.16,158.59,118.21,159.51,116.22,160.34Zm9.42-4.67-1.48-2.57a78.49,78.49,0,0,0,7-4.55l-1.31-1.8h0l-2.49-3.42h0l-1.46-2a68.84,68.84,0,0,1-6.25,4.06l1.76,3.06c1.21-.7,2.4-1.44,3.58-2.2l1,1.57a74.9,74.9,0,0,1-10.75,5.84L112.35,147a68.18,68.18,0,0,0,25.39-19.45l5.61,4.54a74.68,74.68,0,0,1-8.26,8.7l-1.25-1.39c1-.94,2.06-1.9,3-2.89l-2.51-2.49a67.06,67.06,0,0,1-5.53,5l1.58,1.95,2.65,3.26h0l1.41,1.73a79.72,79.72,0,0,0,6.1-5.52l2.12,2.11-.05.07A82.24,82.24,0,0,1,125.64,155.67Zm34.7-39.44c-.28.67-.59,1.33-.89,2l-2.56-1.14a79,79,0,0,0,3-7.83l-2.12-.68h0l-4-1.3h0l-2.37-.76a66.78,66.78,0,0,1-2.68,7l3.22,1.44c.58-1.28,1.11-2.58,1.61-3.89l1.75.66A74.47,74.47,0,0,1,150,122.77l-6.24-3.64a67.87,67.87,0,0,0,9.09-30.72l7.21.35a74.92,74.92,0,0,1-1.55,11.93l-1.83-.39c.29-1.37.55-2.75.76-4.14L154,95.63a67.92,67.92,0,0,1-1.52,7.32l3.41.9h0l3.08.81h0l2.15.57a76.72,76.72,0,0,0,1.68-8.08l2.79.43A81.17,81.17,0,0,1,160.34,116.23Z"/><path class="cls-1" d="M80.13,78.63v-.75a3,3,0,0,0,1.53-.57,1.65,1.65,0,0,0,.44-1.26V64.64a1.64,1.64,0,0,0-.44-1.25,3,3,0,0,0-1.53-.58v-.75H87.8v2.58h.07a6.85,6.85,0,0,1,1.56-2.1A3.78,3.78,0,0,1,92,61.66a2.49,2.49,0,0,1,1.81.67,3.16,3.16,0,0,1,0,4,2.38,2.38,0,0,1-1.83.77,2,2,0,0,1-.88-.17,4,4,0,0,1-.75-.51A2.71,2.71,0,0,0,89.7,66a1.41,1.41,0,0,0-.64-.13c-.66,0-1,.67-1,2v6.52A5.19,5.19,0,0,0,88.52,77a2.35,2.35,0,0,0,1.86.88v.75Z"/><path class="cls-1" d="M94.76,72.52h.75a6.79,6.79,0,0,0,1.66,3.41,4.17,4.17,0,0,0,3.23,1.48,1.92,1.92,0,0,0,1.46-.54,1.81,1.81,0,0,0,.51-1.26,2.33,2.33,0,0,0-.83-1.7A21,21,0,0,0,99,72a21.76,21.76,0,0,1-3.32-2.63,3.81,3.81,0,0,1-1.16-2.74A4.59,4.59,0,0,1,96,63a6,6,0,0,1,4.08-1.29,11.76,11.76,0,0,1,3,.47,5.54,5.54,0,0,0,1.26.27,1.18,1.18,0,0,0,.75-.2,1.41,1.41,0,0,0,.37-.54h.75V67h-.75A9,9,0,0,0,103.66,64a3.5,3.5,0,0,0-2.58-1.15c-1.13,0-1.7.54-1.7,1.63a1.66,1.66,0,0,0,.7,1.24,20.38,20.38,0,0,0,2.19,1.54c.81.5,1.48.93,2,1.31a11.13,11.13,0,0,1,1.56,1.34,6.41,6.41,0,0,1,1.22,1.75,4.81,4.81,0,0,1,.46,2.12,4.48,4.48,0,0,1-.46,2,5.26,5.26,0,0,1-1.26,1.67A6.29,6.29,0,0,1,104,78.61a5.68,5.68,0,0,1-2.2.43,6.84,6.84,0,0,1-1.77-.19,9.94,9.94,0,0,1-1.56-.56,4.84,4.84,0,0,0-1.77-.47.88.88,0,0,0-.61.2,3.89,3.89,0,0,0-.54.61h-.75Z"/><path class="cls-1" d="M119,63.69h-3.26V74.62c0,1.32.35,2,1,2a2.23,2.23,0,0,0,1-.28,2.82,2.82,0,0,0,.89-.73l.74.74a8.14,8.14,0,0,1-2.41,2,6.14,6.14,0,0,1-2.92.73,4.11,4.11,0,0,1-3.29-1.27,5,5,0,0,1-1.09-3.35V63.69H108v-1a17.73,17.73,0,0,0,2.26-1.1,8.2,8.2,0,0,0,1.66-1.31,9.83,9.83,0,0,0,1.33-1.69,19.92,19.92,0,0,0,1.17-2.28h1.39v5.77H119Z"/><path class="cls-1" d="M69.18,106.21a2.7,2.7,0,0,0,.19,1.24.61.61,0,0,0,.56.32.82.82,0,0,0,.44-.17,1,1,0,0,1,.54-.17c.25,0,.38.13.38.41a1.3,1.3,0,0,1-.38.81,3.89,3.89,0,0,1-1,.83,6.89,6.89,0,0,1-1.41.63,4.66,4.66,0,0,1-1.43.24,3.17,3.17,0,0,1-2.07-.61,6.93,6.93,0,0,1-1.39-1.6.48.48,0,0,0-.1-.17,11.47,11.47,0,0,1-2.63,1.73,6.55,6.55,0,0,1-2.8.65,3.68,3.68,0,0,1-2.77-1.07,3.91,3.91,0,0,1-1-2.84,3.59,3.59,0,0,1,.92-2.37,8.83,8.83,0,0,1,2.27-1.89,20.12,20.12,0,0,1,2.72-1.34q1.37-.54,2.82-1l.24-.06v-3a3.33,3.33,0,0,0-.45-1.9,1.7,1.7,0,0,0-1.52-.64,1.76,1.76,0,0,0-1.17.37,1.14,1.14,0,0,0-.46.92,3.39,3.39,0,0,0,.3,1.12,4.24,4.24,0,0,1,.38,1.53,1.64,1.64,0,0,1-.8,1.44,3.55,3.55,0,0,1-2,.53,2.58,2.58,0,0,1-2.78-2.86,3.49,3.49,0,0,1,2-3.12A10.46,10.46,0,0,1,62,93a14.34,14.34,0,0,1,3.59.37,5.28,5.28,0,0,1,2.2,1.1,3.93,3.93,0,0,1,1.11,1.77,9,9,0,0,1,.3,2.49Zm-6-5.06-.41.2a6.74,6.74,0,0,0-1.92,1.31,3.08,3.08,0,0,0-.66,2.19,2.91,2.91,0,0,0,.35,1.58,1.4,1.4,0,0,0,1.24.52,1.51,1.51,0,0,0,.8-.18,3.45,3.45,0,0,0,.6-.53Z"/><path class="cls-1" d="M71.22,109.94v-.75q1.83-.3,1.83-1.83V96q0-1.53-1.83-1.83v-.75H79V95a8.94,8.94,0,0,1,2.25-1.64A6.23,6.23,0,0,1,83.71,93a4.55,4.55,0,0,1,2.77.76,3.62,3.62,0,0,1,1.34,1.61,11.6,11.6,0,0,1,2.38-1.83A5.48,5.48,0,0,1,92.78,93a4.77,4.77,0,0,1,3.41,1.22,5.18,5.18,0,0,1,1.31,3.94v9.23q0,1.53,1.83,1.83v.75h-9.1v-.75a1.73,1.73,0,0,0,1-.59,2.06,2.06,0,0,0,.32-1.24V98a3.14,3.14,0,0,0-.32-1.68,1.18,1.18,0,0,0-1-.46,1.9,1.9,0,0,0-1,.25,5.54,5.54,0,0,0-.9.7v10.59q0,1.64,1.29,1.83v.75H81v-.75q1.29-.19,1.29-1.83V98A3,3,0,0,0,82,96.28a1.16,1.16,0,0,0-1-.46,1.88,1.88,0,0,0-1,.25,4.79,4.79,0,0,0-.9.7v10.59q0,1.64,1.29,1.83v.75Z"/><path class="cls-1" d="M99.67,109.94v-.75q1.83-.3,1.83-1.83V96q0-1.53-1.83-1.83v-.75h8v14q0,1.53,1.83,1.83v.75Z"/><path class="cls-1" d="M109.85,109.94v-.75c1.23-.2,1.84-.81,1.84-1.83v-19c0-1-.61-1.63-1.84-1.84v-.74h8v21.59q0,1.53,1.83,1.83v.75Z"/><path class="cls-1" d="M129.65,102.2l1.93-4.82a5.11,5.11,0,0,0,.48-1.73c0-1-.58-1.46-1.73-1.53v-.75h5.09v.75a3,3,0,0,0-1.26.92,9.45,9.45,0,0,0-1.25,2.48l-5.74,14.63a7.47,7.47,0,0,1-1.53,2.44,3,3,0,0,1-2.24,1,3.1,3.1,0,0,1-2.27-.9,2.82,2.82,0,0,1-.92-2.09,2.24,2.24,0,0,1,.61-1.6,2.1,2.1,0,0,1,1.6-.64,1.81,1.81,0,0,1,1.54.71,2.85,2.85,0,0,1,.53,1.73c0,.32.12.48.37.48a.6.6,0,0,0,.41-.22,2.62,2.62,0,0,0,.41-.77l1-2.58-5.54-12.52a10.85,10.85,0,0,0-1.13-2.09,2.48,2.48,0,0,0-1.48-1v-.75h9.71v.75c-.93.07-1.39.46-1.39,1.19a4,4,0,0,0,.4,1.42l.11.28Z"/><path class="cls-1" d="M74.83,86.89a3.31,3.31,0,0,1-3.32-3.32,3.22,3.22,0,0,1,1-2.35h0a3.32,3.32,0,1,1,2.35,5.67ZM72.67,81.4a3.06,3.06,0,1,0,5.23,2.17,3.06,3.06,0,0,0-3.07-3.06,3,3,0,0,0-2.16.89Z"/><path class="cls-1" d="M104.59,91.85a3.32,3.32,0,0,1-2.35-5.67h0a3.32,3.32,0,1,1,2.35,5.67Zm-2.16-5.49a3.06,3.06,0,0,0,2.16,5.23,3.06,3.06,0,1,0,0-6.12,3,3,0,0,0-2.16.89Z"/><path class="cls-1" d="M49.76,54.48v.74a3.8,3.8,0,0,1,2.54.65A3.4,3.4,0,0,1,53,58.42V74.71a3.4,3.4,0,0,1-.72,2.55,3.81,3.81,0,0,1-2.54.64v.75H63.61V77.9a3.86,3.86,0,0,1-2.55-.64,3.45,3.45,0,0,1-.71-2.55v-7.6h0v-1.5h0V56h3.94a6,6,0,0,1,4.07,1.24A5.71,5.71,0,0,1,70,61.13h.75V54.48Z"/><circle class="cls-1" cx="65.28" cy="66.22" r="2.8"/><path class="cls-1" d="M34.64,85.78v.75a3.81,3.81,0,0,1,2.54.64,3.4,3.4,0,0,1,.72,2.55V106a3.39,3.39,0,0,1-.72,2.54,3.8,3.8,0,0,1-2.54.65V110H48.49v-.74a3.85,3.85,0,0,1-2.55-.65,3.44,3.44,0,0,1-.71-2.54V98.41h0V96.92h0V87.27h3.94a6,6,0,0,1,4.07,1.24,5.73,5.73,0,0,1,1.63,3.92h.75V85.78Z"/><circle class="cls-1" cx="50.16" cy="97.52" r="2.8"/><path class="cls-1" d="M77.9,76v-14h0l-6.16,2.47V76q0,1.53-1.83,1.83v.75h9.85v-.75C78.51,77.67,77.9,77.06,77.9,76Z"/><polygon class="cls-1" points="77.09 60.79 69.64 63.98 69.64 64.57 76.47 64.57 76.47 65.9 77.9 65.93 77.9 60.79 77.09 60.79"/></g></g></svg>