<svg xmlns="http://www.w3.org/2000/svg" viewBox="0 0 692 692"><defs><style>.cls-1{fill:#010101;}</style></defs><title>Asset 1</title><g id="Layer_2" data-name="Layer 2"><g id="Layer_1-2" data-name="Layer 1"><path class="cls-1" d="M346,692C155.22,692,0,536.78,0,346S155.22,0,346,0,692,155.21,692,346,536.78,692,346,692Zm0-681.85C160.81,10.15,10.15,160.81,10.15,346S160.81,681.85,346,681.85,681.85,531.19,681.85,346,531.19,10.15,346,10.15Z"/><path class="cls-1" d="M321.56,314v-3.73c3.61-.56,6.16-1.52,7.63-2.87s2.21-3.44,2.21-6.26V244.17q0-4.23-2.21-6.26c-1.47-1.36-4-2.31-7.63-2.88V231.3h38.29v12.89h.34a34,34,0,0,1,7.8-10.51,18.84,18.84,0,0,1,12.54-4.4,12.46,12.46,0,0,1,9.07,3.39q3.47,3.39,3.47,10.16a13.64,13.64,0,0,1-3.56,9.74,11.93,11.93,0,0,1-9.15,3.81,9.86,9.86,0,0,1-4.4-.83,19.57,19.57,0,0,1-3.73-2.55,13.88,13.88,0,0,0-2.87-2,7.34,7.34,0,0,0-3.22-.68q-4.92,0-4.91,10.16V293q0,9.32,2.21,12.88t9.32,4.4V314h-51.2Z"/><path class="cls-1" d="M394.56,283.45h3.73a33.83,33.83,0,0,0,8.3,17,20.82,20.82,0,0,0,16.1,7.38c3.16,0,5.59-.91,7.28-2.71a8.85,8.85,0,0,0,2.55-6.26q0-4.56-4.15-8.47a104.44,104.44,0,0,0-12.8-9.65A110.17,110.17,0,0,1,399,267.64,18.85,18.85,0,0,1,393.21,254q0-11.87,7.46-18.29T421,229.28a59.55,59.55,0,0,1,15.25,2.38A26.55,26.55,0,0,0,442.5,233a5.71,5.71,0,0,0,3.73-1,7,7,0,0,0,1.86-2.7h3.73v26.43h-3.73a44.94,44.94,0,0,0-9.15-14.57,17.47,17.47,0,0,0-12.88-5.77c-5.65,0-8.47,2.7-8.47,8.13,0,2.15,1.14,4.21,3.47,6.17A99.58,99.58,0,0,0,432,257.41q6.11,3.72,10.08,6.52a55,55,0,0,1,7.78,6.69,31.81,31.81,0,0,1,6.09,8.72,24.39,24.39,0,0,1,2.3,10.59,22.61,22.61,0,0,1-2.3,10,26.18,26.18,0,0,1-6.26,8.3,31.15,31.15,0,0,1-9.24,5.68,29.35,29.35,0,0,1-11,2.12,35.43,35.43,0,0,1-8.81-.92,53.08,53.08,0,0,1-7.79-2.79c-3.73-1.57-6.67-2.38-8.81-2.38a4.55,4.55,0,0,0-3,1,20,20,0,0,0-2.71,3.05h-3.73V283.45Z"/><path class="cls-1" d="M515.69,239.41H499.42V294c0,6.55,1.74,9.82,5.25,9.82a11.19,11.19,0,0,0,5.25-1.44,13.28,13.28,0,0,0,4.4-3.64l3.73,3.73a41.15,41.15,0,0,1-12,9.91A30.4,30.4,0,0,1,491.44,316q-11,0-16.42-6.35T469.6,293V239.43h-9.16v-5.08a86.32,86.32,0,0,0,11.28-5.51,41.72,41.72,0,0,0,8.3-6.52,49,49,0,0,0,6.6-8.47,89.6,89.6,0,0,0,5.85-11.34h6.95V231.3h16.27Z"/><path class="cls-1" d="M266.91,451.54c0,3,.31,5.11.93,6.18a3,3,0,0,0,2.79,1.6,3.88,3.88,0,0,0,2.2-.83,5.05,5.05,0,0,1,2.71-.86c1.25,0,1.86.68,1.86,2a6.52,6.52,0,0,1-1.86,4.07,20,20,0,0,1-5.17,4.15,33.89,33.89,0,0,1-7,3.14,23.78,23.78,0,0,1-7.12,1.18q-6.6,0-10.33-3a35,35,0,0,1-6.95-8,2.13,2.13,0,0,0-.51-.84A57.5,57.5,0,0,1,225.31,469a32.68,32.68,0,0,1-14,3.21q-8.66,0-13.81-5.33t-5.16-14.15a18,18,0,0,1,4.56-11.86,43.88,43.88,0,0,1,11.35-9.41,101.78,101.78,0,0,1,13.55-6.69q6.77-2.71,14.06-5.08l1.18-.34V404.29c0-4.18-.74-7.34-2.21-9.5s-4-3.22-7.63-3.22a8.94,8.94,0,0,0-5.85,1.87,5.72,5.72,0,0,0-2.29,4.57,16.68,16.68,0,0,0,1.52,5.59,21,21,0,0,1,1.87,7.63,8.2,8.2,0,0,1-4,7.2,17.61,17.61,0,0,1-9.91,2.64,14,14,0,0,1-10.07-3.64c-2.53-2.43-3.82-6-3.82-10.6q0-9.82,10.08-15.58t26.17-5.77a71,71,0,0,1,17.88,1.87,26,26,0,0,1,11,5.51,19.21,19.21,0,0,1,5.51,8.81,44.6,44.6,0,0,1,1.52,12.45v37.42Zm-29.8-25.24c-.68.35-1.35.69-2,1a33.29,33.29,0,0,0-9.56,6.52c-2.21,2.31-3.3,6-3.3,10.93,0,3.51.6,6.13,1.78,7.87s3.25,2.64,6.17,2.64a7.41,7.41,0,0,0,4-.92,14.47,14.47,0,0,0,3-2.64Z"/><path class="cls-1" d="M277.08,470.19v-3.73q9.15-1.51,9.15-9.16V400.39c0-5.09-3.05-8.13-9.15-9.16V387.5h39v8.13q6.78-6.27,11.27-8.21t12.12-1.95c5.76,0,10.35,1.26,13.8,3.81s5.68,5.22,6.69,8a58.13,58.13,0,0,1,11.86-9.15q5.08-2.7,12.88-2.7,10.5,0,17,6.09t6.52,19.65v46.08q0,7.62,9.16,9.15v3.73H372v-3.71a8.62,8.62,0,0,0,4.82-3c1.08-1.4,1.61-3.47,1.61-6.18V410.39c0-4.07-.53-6.86-1.61-8.38s-2.78-2.29-5.16-2.29a9.67,9.67,0,0,0-5,1.26,27.48,27.48,0,0,0-4.48,3.48V457.3c0,5.43,2.14,8.47,6.43,9.16v3.73H325.89v-3.73c4.29-.69,6.43-3.73,6.43-9.16V410.38c0-4.08-.53-6.86-1.61-8.39a5.89,5.89,0,0,0-5.17-2.29,9.56,9.56,0,0,0-5,1.27,26.83,26.83,0,0,0-4.48,3.47v52.85c0,5.42,2.13,8.47,6.43,9.15v3.73H277.08Z"/><path class="cls-1" d="M419,470.19v-3.73q9.13-1.51,9.15-9.16V400.39c0-5.09-3-8.13-9.15-9.16V387.5h40v69.8c0,5.09,3.05,8.13,9.16,9.16v3.73Z"/><path class="cls-1" d="M469.87,470.19v-3.73q9.13-1.51,9.15-9.16V362.44q0-7.62-9.15-9.15v-3.73h40V457.3c0,5.09,3,8.13,9.16,9.16v3.73Z"/><path class="cls-1" d="M568.64,431.56l9.65-24.06c1.57-3.83,2.37-6.72,2.37-8.64q0-7.11-8.63-7.63V387.5h25.4v3.73a15.24,15.24,0,0,0-6.26,4.57q-2.71,3.21-6.26,12.37l-28.62,73a37,37,0,0,1-7.63,12.2,15.13,15.13,0,0,1-11.19,4.91,15.61,15.61,0,0,1-11.35-4.49,14.17,14.17,0,0,1-4.56-10.41,11.07,11.07,0,0,1,3-8,10.51,10.51,0,0,1,8-3.22c3.39,0,6,1.18,7.7,3.56a14.17,14.17,0,0,1,2.64,8.64c0,1.58.61,2.38,1.86,2.38a2.91,2.91,0,0,0,2-1.1,12,12,0,0,0,2-3.81L554.1,469l-27.62-62.52a55.09,55.09,0,0,0-5.68-10.42,12,12,0,0,0-7.37-4.82v-3.73h48.45v3.73c-4.64.34-7,2.31-7,5.94,0,1.59.67,3.95,2,7.11l.51,1.35Z"/><path class="cls-1" d="M295.13,355.15a16.57,16.57,0,0,1-11.72-28.28h0a16.57,16.57,0,1,1,11.72,28.28Zm-10.82-27.37a15.32,15.32,0,1,0,10.82-4.47,14.79,14.79,0,0,0-10.82,4.47Z"/><path class="cls-1" d="M443.61,379.91a16.57,16.57,0,0,1-11.72-28.28h0a16.57,16.57,0,1,1,11.72,28.28ZM432.8,352.53a15.33,15.33,0,1,0,10.81-4.46,14.82,14.82,0,0,0-10.81,4.46Z"/><path class="cls-1" d="M170,193.42v3.73q9.15,0,12.72,3.22c2.37,2.16,3.55,6.38,3.55,12.71V294.4c0,6.33-1.18,10.55-3.55,12.71s-6.61,3.22-12.72,3.22v3.73h69.12v-3.73q-9.13,0-12.71-3.22t-3.56-12.71V256.45h0V249h0V200.88H242.5c8.91,0,15.71,2.07,20.32,6.18s7.34,10.64,8.13,19.57h3.73V193.42Z"/><circle class="cls-1" cx="247.46" cy="252.02" r="13.96"/><path class="cls-1" d="M94.55,349.62v3.73q9.14,0,12.71,3.22c2.38,2.16,3.56,6.38,3.56,12.71V450.6c0,6.33-1.18,10.55-3.56,12.71s-6.61,3.22-12.71,3.22v3.73h69.11v-3.73q-9.14,0-12.71-3.22t-3.56-12.71v-38h0v-7.46h0V357.08h19.66q13.38,0,20.33,6.18t8.12,19.57h3.73V349.62Z"/><circle class="cls-1" cx="172" cy="408.2" r="13.96"/><path class="cls-1" d="M319.64,310.21V314H270.49v-3.75l.34-.06a16.41,16.41,0,0,0,3.7-1.1,8,8,0,0,0,5.13-7.84V243.84h-10.4V240.9a2,2,0,0,0,.22-.09l5.66-2.42q15.41-6.63,30.82-13.23a4.13,4.13,0,0,0,.42-.22h4.09c0,2.24,0,4.48,0,6.7V300.8c0,.42,0,.87.05,1.3a7.77,7.77,0,0,0,3.89,6.31A14,14,0,0,0,319.64,310.21Z"/></g></g></svg>