<svg xmlns="http://www.w3.org/2000/svg" viewBox="0 0 708.17 516.16"><defs><style>.cls-1{fill:#fbba21;}.cls-2{fill:#fff;}</style></defs><title>Asset 2</title><g id="Layer_2" data-name="Layer 2"><g id="Layer_1-2" data-name="Layer 1"><path d="M196.52,147.4l-6.08-23.66V147.4H167.86V91.83h28.42l7.34,22.25,7.32-22.25h28.47V147.4H216.78V123.74l-6,23.66Z"/><path d="M255.13,147.38a25,25,0,0,1-6.46-.72,9.37,9.37,0,0,1-4.29-2.33,9.23,9.23,0,0,1-2.39-4.14,21.93,21.93,0,0,1-.75-6.16V103.64q0-6.23,3.33-9t10.56-2.8H278.9a29.4,29.4,0,0,1,6.64.65A10.7,10.7,0,0,1,290,94.54a8.22,8.22,0,0,1,2.56,3.7,15.85,15.85,0,0,1,.79,5.4V134q0,7.4-3.19,10.4a9.25,9.25,0,0,1-4.38,2.23,28.43,28.43,0,0,1-6.9.72Zm9.27-39,0,22.37a5.23,5.23,0,0,0,.66,3,3.1,3.1,0,0,0,4.43,0,5.34,5.34,0,0,0,.71-3l0-22.37c0-2.7-1-4-2.93-4a2.48,2.48,0,0,0-2.2,1A5.47,5.47,0,0,0,264.4,108.37Z"/><path d="M323.83,147.37v-21l-17-34.56h22.34l6.08,13.34,6.15-13.34h22.29l-17,34.56v21Z"/><path d="M355.86,147.4l10.61-55.57H400l10.61,55.57H387.93l-1.38-12.05h-6.74l-1.32,12.05Zm25.36-24.29h4l-2-18.9Z"/><path d="M425.18,147.42q-7.14,0-10.76-2.59t-3.5-8.59V126.5h23.5v3.77c0,2.57.94,3.85,2.84,3.85a2.54,2.54,0,0,0,2.2-1,5.61,5.61,0,0,0,.7-3.22,13.3,13.3,0,0,0-.13-2.08,3.55,3.55,0,0,0-.54-1.43,3.76,3.76,0,0,0-1.19-1.06,12,12,0,0,0-2.08-.93l-15.92-5.9c-3.7-1.37-6.19-2.82-7.46-4.37a10.21,10.21,0,0,1-1.92-6.49V101.9a8.6,8.6,0,0,1,3.63-7.51q3.63-2.55,10.76-2.54H449q7.16,0,10.77,2.54a8.61,8.61,0,0,1,3.62,7.51v6.37H440v-.65q0-3.66-3-3.66a2.7,2.7,0,0,0-2,.73,2.58,2.58,0,0,0-.76,1.93,3.72,3.72,0,0,0,.13,1,1.78,1.78,0,0,0,.57.83,6.29,6.29,0,0,0,1.24.84,21.54,21.54,0,0,0,2.19,1l18.53,7.17a12.59,12.59,0,0,1,3,1.64,7.6,7.6,0,0,1,2,2.26,9.46,9.46,0,0,1,1.11,3.18,24.35,24.35,0,0,1,.34,4.38v6q-.13,7.05-3.58,9.81t-10.94,2.76Z"/><path d="M465.17,147.4V91.83h22.59V147.4Z"/><path d="M489.6,147.4V91.83h24.58L524,114.75V91.83h22.72V147.4H523.21l-10.94-26.15V147.4Z"/><path class="cls-1" d="M190.87,141.75l-6.08-23.66v23.66H162.21V86.18h28.42L198,108.43l7.32-22.25h28.47v55.57H211.13V118.09l-6,23.66Z"/><path d="M234.52,142.51H210.37V124.15l-4.68,18.36H190.28l-4.73-18.41v18.41h-24.1V85.42h29.73L198,106l6.77-20.58h29.78ZM211.89,141H233V86.94H205.84L198,110.86l-7.89-23.92H163V141H184V112.08L191.46,141h13l7.38-29Z"/><path class="cls-1" d="M249.48,141.73A24.93,24.93,0,0,1,243,141a9.47,9.47,0,0,1-4.29-2.33,9.23,9.23,0,0,1-2.39-4.14,21.93,21.93,0,0,1-.75-6.16V98q0-6.22,3.33-9t10.56-2.8h23.77a30,30,0,0,1,6.64.64,11,11,0,0,1,4.48,2.08,8.3,8.3,0,0,1,2.56,3.71,15.81,15.81,0,0,1,.79,5.4v30.39q0,7.4-3.19,10.4a9.34,9.34,0,0,1-4.38,2.23,28.43,28.43,0,0,1-6.9.72Zm9.27-39,0,22.37a5.23,5.23,0,0,0,.66,3,3.1,3.1,0,0,0,4.43,0,5.27,5.27,0,0,0,.7-3V102.72c0-2.7-1-4-2.93-4a2.48,2.48,0,0,0-2.2,1A5.45,5.45,0,0,0,258.75,102.72Z"/><path d="M273.25,142.49H249.48a26.05,26.05,0,0,1-6.66-.74,10.43,10.43,0,0,1-4.63-2.52,10.25,10.25,0,0,1-2.58-4.48,22.63,22.63,0,0,1-.78-6.37V98c0-4.37,1.22-7.6,3.6-9.61s6-3,11-3h23.77a30.43,30.43,0,0,1,6.81.66,11.75,11.75,0,0,1,4.8,2.24,9.1,9.1,0,0,1,2.78,4,16.62,16.62,0,0,1,.84,5.66v30.39c0,5.12-1.15,8.8-3.43,11a10.1,10.1,0,0,1-4.71,2.42A29.56,29.56,0,0,1,273.25,142.49ZM249.48,86.92c-4.63,0-8,.88-10.07,2.62s-3,4.55-3.06,8.45v30.39a21.06,21.06,0,0,0,.72,5.94,8.57,8.57,0,0,0,2.19,3.82,8.84,8.84,0,0,0,4,2.14,24.34,24.34,0,0,0,6.26.69h23.77a28.11,28.11,0,0,0,6.72-.69,8.71,8.71,0,0,0,4-2.05c2-1.85,3-5.16,3-9.85V98a15.13,15.13,0,0,0-.75-5.15,7.63,7.63,0,0,0-2.32-3.37,10,10,0,0,0-4.18-1.92,28.39,28.39,0,0,0-6.46-.63Zm12.16,42.91a3.29,3.29,0,0,1-2.83-1.24,5.83,5.83,0,0,1-.8-3.5l0-22.37a6.17,6.17,0,0,1,.8-3.52,3.24,3.24,0,0,1,2.83-1.28c3.21,0,3.69,3,3.69,4.8v22.37a5.92,5.92,0,0,1-.85,3.5A3.3,3.3,0,0,1,261.64,129.83Zm-2.13-27.11,0,22.37a4.39,4.39,0,0,0,.51,2.6,1.83,1.83,0,0,0,1.6.62,1.88,1.88,0,0,0,1.61-.62,4.47,4.47,0,0,0,.55-2.6V102.72c0-3.28-1.52-3.28-2.17-3.28a1.78,1.78,0,0,0-1.58.63,4.74,4.74,0,0,0-.53,2.65Z"/><path class="cls-1" d="M318.18,141.72v-21l-17-34.57h22.34l6.08,13.35,6.15-13.35h22.29l-17,34.57v21Z"/><path d="M341.84,142.48H317.42V120.89L300,85.38h24l5.6,12.29,5.65-12.29h24l-17.44,35.51ZM318.94,141h21.38V120.54l.08-.16L356.84,86.9H336.26l-6.64,14.42L323.05,86.9H302.42l16.52,33.64Z"/><path class="cls-1" d="M350.2,141.75l10.61-55.57h33.55L405,141.75H382.28L380.9,129.7h-6.74l-1.32,12.05Zm25.37-24.29h4l-2-18.9Z"/><path d="M405.89,142.51H381.61l-1.39-12h-5.37l-1.32,12H349.29l10.9-57.09H395ZM383,141h21.09L393.74,86.94h-32.3L351.12,141h21l1.32-12.05h8.1Zm-2.55-22.77h-5.69l2.83-26.9Zm-4-1.52h2.31l-1.16-10.9Z"/><path class="cls-1" d="M419.52,141.77q-7.12,0-10.76-2.59t-3.49-8.59v-9.74h23.49v3.77q0,3.85,2.84,3.85a2.55,2.55,0,0,0,2.21-1,5.63,5.63,0,0,0,.7-3.22,13.3,13.3,0,0,0-.13-2.08,3.55,3.55,0,0,0-.54-1.43,3.76,3.76,0,0,0-1.19-1.06,12,12,0,0,0-2.08-.93l-15.92-5.9q-5.55-2.06-7.46-4.37a10.21,10.21,0,0,1-1.92-6.49V96.25a8.59,8.59,0,0,1,3.63-7.51q3.63-2.55,10.76-2.55H443.3q7.15,0,10.77,2.55a8.6,8.6,0,0,1,3.62,7.51v6.37H434.34V102c0-2.44-1-3.66-3-3.66a2.7,2.7,0,0,0-2,.73,2.54,2.54,0,0,0-.76,1.92,3.75,3.75,0,0,0,.13,1,1.78,1.78,0,0,0,.57.83,6.3,6.3,0,0,0,1.24.83,19.28,19.28,0,0,0,2.19,1l18.53,7.16a13,13,0,0,1,3,1.65,7.6,7.6,0,0,1,2,2.26,9.46,9.46,0,0,1,1.11,3.18,25.22,25.22,0,0,1,.34,4.38v6q-.13,7.05-3.58,9.81t-10.94,2.76Z"/><path d="M443.17,142.53H419.52c-4.89,0-8.66-.92-11.2-2.73s-3.9-5-3.81-9.23V120.09h25v4.53c0,3.09,1.46,3.09,2.08,3.09a1.85,1.85,0,0,0,1.6-.65,4.86,4.86,0,0,0,.55-2.77,13.13,13.13,0,0,0-.12-2,2.82,2.82,0,0,0-.42-1.12,2.93,2.93,0,0,0-.95-.84,11.34,11.34,0,0,0-1.95-.86l-15.93-5.9c-3.86-1.43-6.4-2.94-7.77-4.61a10.94,10.94,0,0,1-2.1-7V96.25a9.35,9.35,0,0,1,3.95-8.13c2.54-1.78,6.31-2.69,11.2-2.69H443.3c4.9,0,8.68.91,11.21,2.69a9.36,9.36,0,0,1,3.94,8.13v7.13H433.58V102c0-2.56-1.12-2.9-2.23-2.9a2,2,0,0,0-1.45.52,1.81,1.81,0,0,0-.53,1.37,3.05,3.05,0,0,0,.1.82,1.13,1.13,0,0,0,.35.48,6.36,6.36,0,0,0,1.09.73,18.15,18.15,0,0,0,2.1.9l18.53,7.18a13.8,13.8,0,0,1,3.16,1.74,8.56,8.56,0,0,1,2.2,2.48,10.6,10.6,0,0,1,1.2,3.43,25.94,25.94,0,0,1,.35,4.52v6c-.1,4.93-1.4,8.43-3.86,10.4S448.32,142.53,443.17,142.53ZM406,121.61v9c-.08,3.78,1,6.38,3.18,8S415,141,419.52,141h23.65c4.8,0,8.32-.88,10.47-2.59s3.2-4.79,3.29-9.23v-6a23.82,23.82,0,0,0-.33-4.25,8.79,8.79,0,0,0-1-2.93,6.86,6.86,0,0,0-1.8-2,12.07,12.07,0,0,0-2.8-1.55l-18.51-7.16a19.12,19.12,0,0,1-2.28-1,7.08,7.08,0,0,1-1.39-.94,2.54,2.54,0,0,1-.79-1.17,4.26,4.26,0,0,1-.16-1.25,3.32,3.32,0,0,1,1-2.46,3.49,3.49,0,0,1,2.52-1c1.39,0,3.71.56,3.75,4.31h21.83V96.25a7.83,7.83,0,0,0-3.3-6.89c-2.27-1.59-5.74-2.4-10.33-2.4H419.66c-4.58,0-8.05.81-10.32,2.41A7.78,7.78,0,0,0,406,96.25V102a9.52,9.52,0,0,0,1.76,6c1.17,1.42,3.57,2.82,7.12,4.13l15.92,5.9a12.75,12.75,0,0,1,2.21,1,4.33,4.33,0,0,1,1.42,1.28,4.25,4.25,0,0,1,.67,1.74,14.94,14.94,0,0,1,.14,2.2,6.21,6.21,0,0,1-.85,3.66,3.25,3.25,0,0,1-2.82,1.28c-1.34,0-3.6-.6-3.6-4.61v-3Z"/><path class="cls-1" d="M459.52,141.75V86.18h22.59v55.57Z"/><path d="M482.87,142.51H458.76V85.42h24.11ZM460.28,141h21.07V86.94H460.28Z"/><path class="cls-1" d="M484,141.75V86.18h24.57l9.83,22.92V86.18h22.72v55.57H517.56L506.62,115.6v26.15Z"/><path d="M541.83,142.51H517.06l-9.68-23.12v23.12H483.19V85.42H509l8.56,20v-20h24.24ZM518.07,141h22.24V86.94h-21.2v25.87L508,86.94H484.71V141h21.15V111.81Z"/><path d="M126.65,231.09V195.57h-4.71v-20h27.25v55.57Z"/><path d="M151,196.94h26.16v12.67H151Z"/><path d="M179,231.09V175.52h22.54v18.82h4.74V175.52h22.54v55.57H206.31V207h-4.74v24.09Z"/><path d="M259.65,175.19h23.2l0,11.83v31.14q0,7.4-3.19,10.39a9.34,9.34,0,0,1-4.39,2.24,28.58,28.58,0,0,1-6.91.72H244.56a24.85,24.85,0,0,1-6.45-.72,9.57,9.57,0,0,1-4.29-2.33,9.42,9.42,0,0,1-2.39-4.14,22.33,22.33,0,0,1-.74-6.16v-43l13.87,0h9.29v39.68a5.25,5.25,0,0,0,.66,3,2.52,2.52,0,0,0,2.2.93,2.59,2.59,0,0,0,2.23-.93,5.28,5.28,0,0,0,.71-3Z"/><path d="M284.69,231.09V175.52h24.58l9.82,22.93V175.52h22.72v55.57h-23.5L307.36,205v26.14Z"/><path d="M343.65,231.09V175.52h24.58l9.82,22.93V175.52h22.72v55.57h-23.5L366.32,205v26.14Z"/><path d="M402.61,231.09V175.52H443.5v12.67H425v8.75h16.42v12.67H425v8.82H443.5v12.66Z"/><path d="M468,215v16.14H445.33V175.52h37.09a27.43,27.43,0,0,1,6.63.69,11.08,11.08,0,0,1,4.47,2.12,8.2,8.2,0,0,1,2.53,3.73,16.61,16.61,0,0,1,.79,5.44v10.81q0,7.55-3.22,10.48a9.19,9.19,0,0,1-3.33,1.9q6.38,4.27,6.4,20.4H474Q474,214.94,468,215Zm3.06-26.9H468v11.1h3a3,3,0,0,0,2.43-.9,4.84,4.84,0,0,0,.74-3.08v-3.09a5.16,5.16,0,0,0-.72-3.11A2.8,2.8,0,0,0,471.08,188.05Z"/><path d="M498.68,231.09V175.52h40.88v12.67H521.08v8.75h16.43v12.67H521.08v8.82h18.48v12.66Z"/><path d="M541.4,231.09V175.52h36.91a27.11,27.11,0,0,1,6.58.69,10.92,10.92,0,0,1,4.45,2.12,8.18,8.18,0,0,1,2.52,3.73,16.9,16.9,0,0,1,.78,5.44v30.18q0,7.47-3.15,10.47a9.32,9.32,0,0,1-4.35,2.23,28.54,28.54,0,0,1-6.83.71ZM564,218.36h2.49a3.15,3.15,0,0,0,2.57-.85,5.12,5.12,0,0,0,.69-3.11V192.15A5.12,5.12,0,0,0,569,189a3.15,3.15,0,0,0-2.57-.85H564Z"/><path class="cls-1" d="M121,225.44V189.92h-4.71v-20h27.25v55.57Z"/><path d="M144.3,226.2H120.24V190.68h-4.71V169.11H144.3Zm-22.54-1.52h21V170.63H117.05v18.53h4.71Z"/><path class="cls-1" d="M145.38,191.29h26.16V204H145.38Z"/><path d="M172.3,204.72H144.62V190.53H172.3Zm-26.16-1.52h24.64V192.05H146.14Z"/><path class="cls-1" d="M173.38,225.44V169.87h22.54v18.82h4.74V169.87H223.2v55.57H200.66V201.35h-4.74v24.09Z"/><path d="M224,226.2H199.9V202.11h-3.22V226.2H172.62V169.11h24.06v18.82h3.22V169.11H224Zm-22.54-1.52h21V170.63h-21v18.82h-6.26V170.63h-21v54.05h21V200.59h6.26Z"/><path class="cls-1" d="M254,169.54H277.2l0,11.83v31.14q0,7.38-3.19,10.39a9.34,9.34,0,0,1-4.39,2.24,28.58,28.58,0,0,1-6.91.72H238.91a24.85,24.85,0,0,1-6.45-.72,9.57,9.57,0,0,1-4.29-2.33,9.42,9.42,0,0,1-2.39-4.14,22.33,22.33,0,0,1-.74-6.16v-43l13.87,0h9.29v39.68a5.25,5.25,0,0,0,.66,3.05,2.52,2.52,0,0,0,2.2.93,2.59,2.59,0,0,0,2.23-.93,5.28,5.28,0,0,0,.71-3.05Z"/><path d="M262.68,226.62H238.91a26,26,0,0,1-6.65-.74,10.31,10.31,0,0,1-4.62-2.53,10.08,10.08,0,0,1-2.59-4.47,23.08,23.08,0,0,1-.77-6.37V168.76l24.68,0v40.44a4.47,4.47,0,0,0,.51,2.6,1.81,1.81,0,0,0,1.59.62,1.87,1.87,0,0,0,1.62-.63,4.41,4.41,0,0,0,.56-2.6l0-40.43H278l0,12.59v31.14c0,5.12-1.15,8.8-3.43,11a10.19,10.19,0,0,1-4.72,2.42A29.65,29.65,0,0,1,262.68,226.62ZM225.8,170.28v42.23a21.56,21.56,0,0,0,.71,5.94,8.13,8.13,0,0,0,6.15,6,24.2,24.2,0,0,0,6.25.69h23.77a28.2,28.2,0,0,0,6.73-.69,8.66,8.66,0,0,0,4-2c2-1.86,3-5.17,3-9.85V181.37l0-11.07H254.76v38.92a5.82,5.82,0,0,1-.86,3.5,3.33,3.33,0,0,1-2.84,1.24,3.24,3.24,0,0,1-2.82-1.25,5.88,5.88,0,0,1-.8-3.5V170.3Z"/><path class="cls-1" d="M279,225.44V169.87h24.58l9.82,22.93V169.87h22.72v55.57H312.65l-10.94-26.15v26.15Z"/><path d="M336.92,226.2H312.15l-9.68-23.12V226.2H278.28V169.11h25.84l8.56,20v-20h24.24Zm-23.76-1.52H335.4V170.63H314.2V196.5l-11.09-25.87H279.8v54.05H301V195.51Z"/><path class="cls-1" d="M338,225.44V169.87h24.58l9.82,22.93V169.87h22.72v55.57h-23.5l-10.95-26.15v26.15Z"/><path d="M395.88,226.2H371.11l-9.68-23.12V226.2H337.24V169.11h25.84l8.56,20v-20h24.24Zm-23.76-1.52h22.24V170.63h-21.2V196.5l-11.08-25.87H338.76v54.05h21.15V195.51Z"/><path class="cls-1" d="M397,225.44V169.87h40.88v12.67H419.37v8.75h16.42V204H419.37v8.82h18.47v12.66Z"/><path d="M438.61,226.2H396.2V169.11h42.41V183.3H420.13v7.23h16.42v14.19H420.13V212h18.48Zm-40.89-1.52h39.36V213.54H418.61V203.2H435V192.05H418.61V181.78h18.47V170.63H397.72Z"/><path class="cls-1" d="M462.37,209.3v16.14H439.68V169.87h37.09a27.43,27.43,0,0,1,6.63.69,11.08,11.08,0,0,1,4.47,2.12,8.23,8.23,0,0,1,2.53,3.72,16.71,16.71,0,0,1,.79,5.45v10.81q0,7.54-3.22,10.48a9.19,9.19,0,0,1-3.33,1.9q6.38,4.28,6.4,20.4H468.35Q468.32,209.28,462.37,209.3Zm3.06-26.9h-3.06v11.1h3a3,3,0,0,0,2.43-.9,4.91,4.91,0,0,0,.74-3.08v-3.09a5.14,5.14,0,0,0-.72-3.11A2.8,2.8,0,0,0,465.43,182.4Z"/><path d="M491.8,226.2H467.59v-.76c0-5.27-.5-9.25-1.46-11.85-.74-2-1.73-3.13-3-3.44v16H438.92V169.11h37.85a28.42,28.42,0,0,1,6.81.71,12,12,0,0,1,4.77,2.27,9.09,9.09,0,0,1,2.77,4.07,17.6,17.6,0,0,1,.83,5.69v10.81c0,5.22-1.17,8.94-3.47,11a8.68,8.68,0,0,1-2.33,1.55c3.78,3.37,5.63,10,5.65,20.19Zm-22.69-1.52h21.17c-.12-10-2.16-16.38-6.06-19l-1.27-.85,1.44-.5a8.31,8.31,0,0,0,3.05-1.73c2-1.82,3-5.15,3-9.93V181.85a16,16,0,0,0-.75-5.2,7.43,7.43,0,0,0-2.3-3.38,10.38,10.38,0,0,0-4.17-2,27.5,27.5,0,0,0-6.44-.66H440.44v54.05h21.17V208.55h.77c2.32,0,4.06,1.52,5.17,4.53C468.53,215.7,469.05,219.6,469.11,224.68Zm-3.78-30.42h-3.72V181.64h3.82a3.54,3.54,0,0,1,2.95,1.21,5.73,5.73,0,0,1,.88,3.58v3.09a5.5,5.5,0,0,1-.92,3.57A3.72,3.72,0,0,1,465.33,194.26Zm-2.2-1.52h2.2a2.3,2.3,0,0,0,1.84-.62,4.11,4.11,0,0,0,.57-2.6v-3.09a4.32,4.32,0,0,0-.56-2.64,2.08,2.08,0,0,0-1.75-.63h-2.3Z"/><path class="cls-1" d="M493,225.44V169.87h40.88v12.67H515.43v8.75h16.43V204H515.43v8.82h18.48v12.66Z"/><path d="M534.67,226.2h-42.4V169.11h42.4V183.3H516.19v7.23h16.43v14.19H516.19V212h18.48Zm-40.88-1.52h39.36V213.54H514.67V203.2H531.1V192.05H514.67V181.78h18.48V170.63H493.79Z"/><path class="cls-1" d="M535.75,225.44V169.87h36.91a27.17,27.17,0,0,1,6.58.69,10.92,10.92,0,0,1,4.45,2.12,8.21,8.21,0,0,1,2.52,3.72,17,17,0,0,1,.78,5.45V212q0,7.47-3.16,10.47a9.14,9.14,0,0,1-4.34,2.22,28,28,0,0,1-6.83.72Zm22.57-12.73h2.49a3.15,3.15,0,0,0,2.57-.85,5.12,5.12,0,0,0,.69-3.11V186.5a5.12,5.12,0,0,0-.69-3.11,3.15,3.15,0,0,0-2.57-.85h-2.49Z"/><path d="M572.66,226.2H535V169.11h37.67a28.24,28.24,0,0,1,6.77.71,12,12,0,0,1,4.75,2.27,9,9,0,0,1,2.75,4.07,17.89,17.89,0,0,1,.82,5.69V212c0,5.17-1.14,8.88-3.39,11a10.08,10.08,0,0,1-4.68,2.41A29.12,29.12,0,0,1,572.66,226.2Zm-36.15-1.52h36.15a27.52,27.52,0,0,0,6.64-.69,8.62,8.62,0,0,0,4-2c2-1.85,2.93-5.19,2.93-9.93V181.85a16.29,16.29,0,0,0-.74-5.2,7.56,7.56,0,0,0-2.28-3.39,10.46,10.46,0,0,0-4.16-2,27.1,27.1,0,0,0-6.39-.66H536.51Zm24.3-11.21h-3.25V181.78h3.25a3.84,3.84,0,0,1,3.17,1.13,5.81,5.81,0,0,1,.85,3.59v22.25a5.81,5.81,0,0,1-.85,3.59A3.89,3.89,0,0,1,560.81,213.47ZM559.08,212h1.73a2.54,2.54,0,0,0,2-.57,4.36,4.36,0,0,0,.52-2.63V186.5a4.36,4.36,0,0,0-.52-2.63,2.54,2.54,0,0,0-2-.57h-1.73Z"/><path d="M51.4,314.83V259.26H88.31a27.75,27.75,0,0,1,6.59.68,11.25,11.25,0,0,1,4.45,2.12,8.17,8.17,0,0,1,2.51,3.73,16.67,16.67,0,0,1,.79,5.45v30.17q0,7.47-3.16,10.48a9.32,9.32,0,0,1-4.34,2.22,28.08,28.08,0,0,1-6.84.72ZM74,302.1h2.49a3.21,3.21,0,0,0,2.57-.85,5.15,5.15,0,0,0,.68-3.11V275.88a5.15,5.15,0,0,0-.68-3.11,3.21,3.21,0,0,0-2.57-.85H74Z"/><path d="M102.81,314.83l10.61-55.57H147l10.61,55.57H134.89l-1.38-12.05h-6.74l-1.32,12.05Zm25.37-24.29h4l-2-18.9Z"/><path d="M182.11,298.69v16.14H159.42V259.26h37.09a28.05,28.05,0,0,1,6.63.68,11.23,11.23,0,0,1,4.46,2.12,8.22,8.22,0,0,1,2.54,3.73,16.94,16.94,0,0,1,.79,5.45v10.81q0,7.53-3.23,10.47a9.07,9.07,0,0,1-3.32,1.91q6.36,4.27,6.4,20.4H188.09Q188.06,298.68,182.11,298.69Zm3.06-26.9h-3.06v11.09h3a3,3,0,0,0,2.43-.89,4.93,4.93,0,0,0,.74-3.08v-3.09a5.14,5.14,0,0,0-.72-3.11A2.78,2.78,0,0,0,185.17,271.79Z"/><path d="M212.77,314.83V259.26h22.42v42.9H249v12.67Z"/><path d="M250.84,314.83V259.26h22.59v55.57Z"/><path d="M275.27,314.83V259.26h24.57l9.83,22.92V259.26h22.72v55.57H308.88l-10.94-26.15v26.15Z"/><path d="M362.45,294.76h-3.09l0-12.38H385v22.17q0,10.27-9.79,10.28H347.74a23.74,23.74,0,0,1-6.28-.72,9.26,9.26,0,0,1-4.18-2.33,9.54,9.54,0,0,1-2.33-4.14,22.79,22.79,0,0,1-.72-6.16V271.14q0-6.24,3.24-9t10.27-2.8H370.9a28,28,0,0,1,6.47.64,10.41,10.41,0,0,1,4.37,2.08,8.37,8.37,0,0,1,2.48,3.7,16.41,16.41,0,0,1,.77,5.41v5.61H362.4l0-.88a3.29,3.29,0,0,1,0-.38,1.31,1.31,0,0,0,0-.38,3.45,3.45,0,0,0-.8-2.39,2.7,2.7,0,0,0-2.11-.9,2.38,2.38,0,0,0-2.13,1,5.58,5.58,0,0,0-.66,3.09l0,22.32a5.35,5.35,0,0,0,.64,3.05,2.48,2.48,0,0,0,2.15.92,2.5,2.5,0,0,0,2.17-.92,5.38,5.38,0,0,0,.69-3.05Z"/><path d="M449.18,291.45v11.43a16.88,16.88,0,0,1-.78,5.47,8.3,8.3,0,0,1-2.47,3.71,10.78,10.78,0,0,1-4.36,2.12,26.66,26.66,0,0,1-6.46.68H412q-7,0-10.26-2.87t-3.24-9.11l0-30.34a22,22,0,0,1,.72-6.16A8.67,8.67,0,0,1,405.7,260a23.55,23.55,0,0,1,6.27-.72h23.12a27.1,27.1,0,0,1,6.72.72,9.06,9.06,0,0,1,4.26,2.22q3.1,3,3.12,10.33v7.32H426.65v-4a5.41,5.41,0,0,0-.67-3.11,2.51,2.51,0,0,0-2.18-.93,2.38,2.38,0,0,0-2.14,1,5.58,5.58,0,0,0-.65,3.08v22.39a5.48,5.48,0,0,0,.64,3.08,2.38,2.38,0,0,0,2.14,1c1.9,0,2.86-1.34,2.87-4l0-6.77Z"/><path d="M451,314.83V259.26h22.54v18.81h4.75V259.26h22.53v55.57H478.3V290.74h-4.75v24.09Z"/><path d="M531.63,258.92h23.2l0,11.83V301.9q0,7.38-3.19,10.39a9.44,9.44,0,0,1-4.39,2.24,28.58,28.58,0,0,1-6.91.72H516.54a24.85,24.85,0,0,1-6.45-.72,9.67,9.67,0,0,1-4.29-2.33,9.51,9.51,0,0,1-2.39-4.15,22.26,22.26,0,0,1-.74-6.15v-43h23.16l0,39.69a5.12,5.12,0,0,0,.65,3,2.52,2.52,0,0,0,2.2.93,2.59,2.59,0,0,0,2.23-.93,5.15,5.15,0,0,0,.71-3Z"/><path d="M607.36,291.45v11.43a17.17,17.17,0,0,1-.77,5.47,8.3,8.3,0,0,1-2.47,3.71,10.84,10.84,0,0,1-4.36,2.12,26.75,26.75,0,0,1-6.47.68H570.17q-7,0-10.27-2.87t-3.23-9.11l0-30.34a22,22,0,0,1,.72-6.16,8.67,8.67,0,0,1,6.48-6.39,23.48,23.48,0,0,1,6.26-.72h23.13A27,27,0,0,1,600,260a9.06,9.06,0,0,1,4.26,2.22q3.12,3,3.13,10.33l0,7.32H584.84v-4a5.4,5.4,0,0,0-.68-3.11,2.5,2.5,0,0,0-2.18-.93,2.41,2.41,0,0,0-2.14,1,5.67,5.67,0,0,0-.65,3.08l0,22.39a5.58,5.58,0,0,0,.63,3.08,2.41,2.41,0,0,0,2.14,1c1.91,0,2.87-1.34,2.88-4l0-6.77Z"/><path d="M609.2,314.83V259.26h22.57v22.45l7.44-22.45h23.45l-8.87,25.79,9.39,29.78H640l-8.2-25.4v25.4Z"/><path class="cls-1" d="M45.75,309.18V253.61H82.66a27.66,27.66,0,0,1,6.58.68,11.3,11.3,0,0,1,4.46,2.12,8.17,8.17,0,0,1,2.51,3.73,16.67,16.67,0,0,1,.79,5.45v30.17q0,7.47-3.16,10.48a9.32,9.32,0,0,1-4.34,2.22,28.14,28.14,0,0,1-6.84.72Zm22.58-12.73h2.49a3.17,3.17,0,0,0,2.57-.86,5.1,5.1,0,0,0,.68-3.1V270.23a5.15,5.15,0,0,0-.68-3.11,3.21,3.21,0,0,0-2.57-.85H68.33Z"/><path d="M82.66,309.94H45V252.85H82.66a28.23,28.23,0,0,1,6.77.7,11.89,11.89,0,0,1,4.75,2.28,8.94,8.94,0,0,1,2.75,4.06,17.66,17.66,0,0,1,.83,5.7v30.17c0,5.17-1.14,8.88-3.4,11a10.07,10.07,0,0,1-4.68,2.41A29,29,0,0,1,82.66,309.94Zm-36.15-1.52H82.66a27.51,27.51,0,0,0,6.65-.7,8.57,8.57,0,0,0,4-2c2-1.86,2.94-5.2,2.94-9.94V265.59a16,16,0,0,0-.75-5.2A7.38,7.38,0,0,0,93.21,257a10.42,10.42,0,0,0-4.15-2,26.73,26.73,0,0,0-6.4-.66H46.51Zm24.31-11.21H67.57v-31.7h3.25A3.83,3.83,0,0,1,74,266.65a5.69,5.69,0,0,1,.85,3.58v22.26a5.7,5.7,0,0,1-.85,3.58A3.87,3.87,0,0,1,70.82,297.21Zm-1.73-1.52h1.73a2.59,2.59,0,0,0,2-.57,4.4,4.4,0,0,0,.51-2.63V270.23a4.4,4.4,0,0,0-.51-2.63,2.59,2.59,0,0,0-2-.57H69.09Z"/><path class="cls-1" d="M97.16,309.18l10.61-55.57h33.55l10.61,55.57H129.24l-1.38-12.05h-6.74l-1.32,12.05Zm25.37-24.3h4l-2-18.89Z"/><path d="M152.85,309.94H128.56l-1.38-12.05H121.8l-1.32,12.05H96.24l10.9-57.09H142Zm-22.93-1.52H151l-10.32-54.05H108.4L98.08,308.42h21l1.32-12.05h8.09Zm-2.56-22.78h-5.68l2.83-26.89Zm-4-1.52h2.3l-1.15-10.9Z"/><path class="cls-1" d="M176.46,293v16.14H153.77V253.61h37.09a28,28,0,0,1,6.62.68,11.21,11.21,0,0,1,4.47,2.12,8.22,8.22,0,0,1,2.54,3.73,16.94,16.94,0,0,1,.79,5.45V276.4q0,7.53-3.23,10.47a9.07,9.07,0,0,1-3.32,1.91q6.36,4.28,6.4,20.4H182.44Q182.41,293,176.46,293Zm3-26.9h-3v11.09h2.95a3,3,0,0,0,2.44-.89,4.93,4.93,0,0,0,.74-3.08v-3.1a5.12,5.12,0,0,0-.72-3.1A2.79,2.79,0,0,0,179.51,266.14Z"/><path d="M205.89,309.94H181.68v-.76c0-5.27-.51-9.26-1.47-11.85-.74-2-1.72-3.13-3-3.44v16.05H153V252.85h37.85a28.52,28.52,0,0,1,6.81.7,12.05,12.05,0,0,1,4.77,2.28,9,9,0,0,1,2.76,4.06,17.38,17.38,0,0,1,.84,5.7V276.4c0,5.22-1.17,8.93-3.47,11a9,9,0,0,1-2.34,1.56c3.79,3.36,5.64,10,5.66,20.19Zm-22.7-1.52h21.17c-.12-10-2.15-16.39-6.06-19l-1.26-.85,1.44-.5a8.41,8.41,0,0,0,3.05-1.74c2-1.81,3-5.15,3-9.92V265.59a16,16,0,0,0-.75-5.2,7.49,7.49,0,0,0-2.3-3.39,10.58,10.58,0,0,0-4.17-2,27,27,0,0,0-6.44-.66H154.53v54.05H175.7V292.28h.77c2.32,0,4.06,1.52,5.17,4.52C182.61,299.43,183.14,303.34,183.19,308.42ZM179.41,278H175.7V265.38h3.81a3.52,3.52,0,0,1,3,1.21,5.78,5.78,0,0,1,.88,3.57v3.1a5.49,5.49,0,0,1-.92,3.56A3.7,3.7,0,0,1,179.41,278Zm-2.19-1.52h2.19a2.31,2.31,0,0,0,1.85-.62,4.07,4.07,0,0,0,.57-2.59v-3.1a4.26,4.26,0,0,0-.56-2.63,2.07,2.07,0,0,0-1.76-.63h-2.29Z"/><path class="cls-1" d="M207.11,309.18V253.61h22.43v42.9h13.81v12.67Z"/><path d="M244.11,309.94H206.35V252.85h24v42.9h13.81Zm-36.23-1.52h34.71V297.27H228.78v-42.9h-20.9Z"/><path class="cls-1" d="M245.19,309.18V253.61h22.59v55.57Z"/><path d="M268.54,309.94H244.43V252.85h24.11ZM246,308.42H267V254.37H246Z"/><path class="cls-1" d="M269.62,309.18V253.61h24.57L304,276.53V253.61h22.72v55.57H303.23L292.29,283v26.15Z"/><path d="M327.5,309.94H302.73l-9.68-23.12v23.12H268.86V252.85h25.83l8.57,20v-20H327.5Zm-23.76-1.52H326V254.37h-21.2v25.87l-11.09-25.87H270.38v54.05h21.15V279.24Z"/><path class="cls-1" d="M356.8,289.11h-3.09l0-12.38h25.65V298.9q0,10.28-9.79,10.28H342.09a23.74,23.74,0,0,1-6.28-.72,9.21,9.21,0,0,1-4.18-2.33A9.52,9.52,0,0,1,329.3,302a22.66,22.66,0,0,1-.72-6.15V265.49q0-6.24,3.24-9t10.27-2.8h23.16a28,28,0,0,1,6.47.64,10.41,10.41,0,0,1,4.37,2.08,8.37,8.37,0,0,1,2.48,3.7,16.41,16.41,0,0,1,.77,5.41v5.61h-22.6l0-.89a3.32,3.32,0,0,1,0-.37,1.31,1.31,0,0,0,0-.38,3.45,3.45,0,0,0-.8-2.39,2.7,2.7,0,0,0-2.11-.9,2.41,2.41,0,0,0-2.14,1,5.67,5.67,0,0,0-.65,3.08l0,22.33a5.35,5.35,0,0,0,.64,3,2.48,2.48,0,0,0,2.15.92,2.5,2.5,0,0,0,2.17-.92,5.38,5.38,0,0,0,.69-3Z"/><path d="M369.55,309.94H342.09a24.34,24.34,0,0,1-6.48-.75,9.9,9.9,0,0,1-4.52-2.53,10.26,10.26,0,0,1-2.52-4.47,23.4,23.4,0,0,1-.75-6.36V265.49c0-4.37,1.19-7.6,3.5-9.61s5.91-3,10.77-3h23.16a29.06,29.06,0,0,1,6.65.66,11.29,11.29,0,0,1,4.68,2.24,9.13,9.13,0,0,1,2.71,4,17.17,17.17,0,0,1,.81,5.66l0,6.37H356l.06-1.67a3.26,3.26,0,0,1,0-.46,1.4,1.4,0,0,0,0-.18v-.09a2.72,2.72,0,0,0-.61-1.89,1.94,1.94,0,0,0-1.54-.64,1.61,1.61,0,0,0-1.51.63,4.87,4.87,0,0,0-.52,2.65l0,22.33a4.66,4.66,0,0,0,.5,2.61,1.76,1.76,0,0,0,1.53.6,1.79,1.79,0,0,0,1.56-.61,4.69,4.69,0,0,0,.54-2.61v-2.66H353l0-13.9H380.1V298.9C380.1,306.12,376.45,309.94,369.55,309.94Zm-27.46-55.52c-4.49,0-7.78.88-9.77,2.61s-3,4.55-3,8.46v30.34a22.15,22.15,0,0,0,.69,5.95,8.75,8.75,0,0,0,2.14,3.81,8.45,8.45,0,0,0,3.84,2.14,23.14,23.14,0,0,0,6.08.69h27.46c6.07,0,9-3.11,9-9.52V277.49H354.45l0,10.86h3.09v4.19a6.16,6.16,0,0,1-.83,3.49,3.74,3.74,0,0,1-5.56,0,6,6,0,0,1-.78-3.5l0-22.31a6.2,6.2,0,0,1,.79-3.51,3.11,3.11,0,0,1,2.76-1.3,3.44,3.44,0,0,1,2.67,1.15,4.17,4.17,0,0,1,1,2.87,3.12,3.12,0,0,1,0,.51,1.53,1.53,0,0,0,0,.27v.13h21v-4.85a15.69,15.69,0,0,0-.73-5.16,7.63,7.63,0,0,0-2.26-3.37,9.61,9.61,0,0,0-4-1.92,27.61,27.61,0,0,0-6.29-.62Z"/><path class="cls-1" d="M443.53,285.8v11.43a16.88,16.88,0,0,1-.78,5.47,8.21,8.21,0,0,1-2.47,3.7,10.73,10.73,0,0,1-4.36,2.13,26.66,26.66,0,0,1-6.46.68H406.33q-7,0-10.26-2.87t-3.24-9.11l0-30.34a22,22,0,0,1,.72-6.16,8.67,8.67,0,0,1,6.48-6.39,23.55,23.55,0,0,1,6.27-.72h23.12a27.1,27.1,0,0,1,6.72.72,9.06,9.06,0,0,1,4.26,2.22q3.1,3,3.12,10.33v7.32H421v-4a5.41,5.41,0,0,0-.67-3.11,2.53,2.53,0,0,0-2.18-.93,2.38,2.38,0,0,0-2.14,1,5.58,5.58,0,0,0-.65,3.08v22.39a5.5,5.5,0,0,0,.64,3.08,2.38,2.38,0,0,0,2.14,1c1.9,0,2.86-1.34,2.87-4l0-6.77Z"/><path d="M429.46,310H406.33c-4.86,0-8.48-1-10.77-3.06s-3.49-5.32-3.49-9.68l0-30.34a22.76,22.76,0,0,1,.75-6.37,9.43,9.43,0,0,1,7-6.91,24.21,24.21,0,0,1,6.47-.75h23.12a27.7,27.7,0,0,1,6.91.75A9.83,9.83,0,0,1,441,256c2.2,2.13,3.33,5.79,3.34,10.86l0,8.08h-24v-4.79a4.7,4.7,0,0,0-.53-2.67,1.79,1.79,0,0,0-1.56-.61,1.59,1.59,0,0,0-1.51.63,4.77,4.77,0,0,0-.52,2.65v22.39a4.76,4.76,0,0,0,.51,2.66c.18.27.53.62,1.51.62.62,0,2.1,0,2.11-3.28l0-7.53h24.05v12.19a17.87,17.87,0,0,1-.82,5.72,9.09,9.09,0,0,1-2.69,4,11.48,11.48,0,0,1-4.67,2.28A27.2,27.2,0,0,1,429.46,310Zm-23.14-55.59a23.43,23.43,0,0,0-6.07.69,8.75,8.75,0,0,0-3.83,2.1A8.64,8.64,0,0,0,394.3,261a21.16,21.16,0,0,0-.69,5.94l0,30.34c0,3.91,1,6.78,3,8.54s5.29,2.68,9.76,2.68h23.13a25.65,25.65,0,0,0,6.27-.66,10.2,10.2,0,0,0,4.06-2,7.65,7.65,0,0,0,2.24-3.37,16.29,16.29,0,0,0,.73-5.23V286.56h-21l0,6c0,4-2,4.8-3.63,4.8a3.11,3.11,0,0,1-2.77-1.29,6.19,6.19,0,0,1-.77-3.52l0-22.38a6.24,6.24,0,0,1,.79-3.51,3.11,3.11,0,0,1,2.77-1.29,3.22,3.22,0,0,1,2.79,1.24,6.07,6.07,0,0,1,.82,3.56v3.27h21v-6.56c0-4.64-1-7.93-2.89-9.78a8.36,8.36,0,0,0-3.92-2,26.58,26.58,0,0,0-6.53-.7Z"/><path class="cls-1" d="M445.36,309.18V253.61H467.9v18.81h4.75V253.61h22.53v55.57H472.65v-24.1H467.9v24.1Z"/><path d="M495.94,309.94H471.88V285.85h-3.22v24.09H444.6V252.85h24.06v18.81h3.22V252.85h24.06Zm-22.53-1.52h21V254.37h-21v18.81h-6.27V254.37h-21v54.05h21v-24.1h6.27Z"/><path class="cls-1" d="M526,253.27h23.2l0,11.83v31.15q0,7.38-3.19,10.39a9.44,9.44,0,0,1-4.39,2.24,28.58,28.58,0,0,1-6.91.72H510.89a24.85,24.85,0,0,1-6.45-.72,9.67,9.67,0,0,1-4.29-2.33,9.51,9.51,0,0,1-2.39-4.15,22.26,22.26,0,0,1-.74-6.15v-43h23.16V293a5.21,5.21,0,0,0,.66,3.05,2.52,2.52,0,0,0,2.2.93,2.59,2.59,0,0,0,2.23-.93A5.24,5.24,0,0,0,526,293Z"/><path d="M534.66,310.36H510.89a25.5,25.5,0,0,1-6.65-.75,10.4,10.4,0,0,1-4.62-2.52,10.23,10.23,0,0,1-2.59-4.47,23.13,23.13,0,0,1-.77-6.37V252.49l24.68,0L521,293a4.43,4.43,0,0,0,.5,2.61,1.83,1.83,0,0,0,1.59.61,1.87,1.87,0,0,0,1.62-.62,4.41,4.41,0,0,0,.56-2.6l0-40.44H550l0,12.59v31.15c0,5.11-1.15,8.8-3.43,10.94a10.09,10.09,0,0,1-4.72,2.42A29.11,29.11,0,0,1,534.66,310.36ZM497.78,254v42.23a21.56,21.56,0,0,0,.71,5.94,8.64,8.64,0,0,0,2.2,3.81,8.75,8.75,0,0,0,3.95,2.14,24.21,24.21,0,0,0,6.25.7h23.77a28.15,28.15,0,0,0,6.73-.7,8.65,8.65,0,0,0,4-2c2-1.86,3-5.17,3-9.85V265.1l0-11.07H526.74V293a5.86,5.86,0,0,1-.86,3.51,3.32,3.32,0,0,1-2.84,1.23,3.25,3.25,0,0,1-2.82-1.24,5.9,5.9,0,0,1-.8-3.5V254Z"/><path class="cls-1" d="M601.71,285.8v11.43a17.17,17.17,0,0,1-.77,5.47,8.21,8.21,0,0,1-2.47,3.7,10.73,10.73,0,0,1-4.36,2.13,26.75,26.75,0,0,1-6.47.68H564.52q-7,0-10.27-2.87T551,297.23l0-30.34a21.69,21.69,0,0,1,.71-6.16,8.7,8.7,0,0,1,6.49-6.39,23.48,23.48,0,0,1,6.26-.72h23.13a27,27,0,0,1,6.71.72,9.06,9.06,0,0,1,4.26,2.22q3.12,3,3.13,10.33l0,7.32H579.19v-4a5.4,5.4,0,0,0-.68-3.11,2.51,2.51,0,0,0-2.18-.93,2.41,2.41,0,0,0-2.14,1,5.67,5.67,0,0,0-.65,3.08l0,22.39a5.6,5.6,0,0,0,.63,3.08,2.41,2.41,0,0,0,2.14,1c1.91,0,2.86-1.34,2.88-4l0-6.77Z"/><path d="M587.64,310H564.52c-4.86,0-8.48-1-10.77-3.06s-3.49-5.32-3.49-9.68l0-30.34a22.79,22.79,0,0,1,.74-6.37,9.43,9.43,0,0,1,7-6.91,24.32,24.32,0,0,1,6.47-.75h23.13a27.56,27.56,0,0,1,6.9.75,9.73,9.73,0,0,1,4.61,2.42c2.21,2.13,3.34,5.79,3.35,10.86l0,8.08h-24v-4.79a4.7,4.7,0,0,0-.53-2.67,1.81,1.81,0,0,0-1.57-.61c-1.08,0-1.4.47-1.51.63a4.87,4.87,0,0,0-.52,2.65l0,22.39a4.89,4.89,0,0,0,.5,2.66,1.61,1.61,0,0,0,1.51.62c.63,0,2.1,0,2.12-3.28l0-7.53h24v12.19a17.59,17.59,0,0,1-.82,5.72,9,9,0,0,1-2.69,4,11.37,11.37,0,0,1-4.66,2.28A27.34,27.34,0,0,1,587.64,310ZM564.5,254.38a23.3,23.3,0,0,0-6.06.69,8.75,8.75,0,0,0-3.83,2.1,8.65,8.65,0,0,0-2.13,3.78,21.57,21.57,0,0,0-.68,5.94l0,30.34c0,3.91,1,6.78,3,8.54s5.28,2.68,9.76,2.68h23.12a25.68,25.68,0,0,0,6.28-.66,10.2,10.2,0,0,0,4.06-2,7.73,7.73,0,0,0,2.24-3.37,16.57,16.57,0,0,0,.73-5.23V286.56H580l0,6c0,4-2,4.8-3.64,4.8a3.13,3.13,0,0,1-2.77-1.29,6.28,6.28,0,0,1-.76-3.52l0-22.38a6.34,6.34,0,0,1,.78-3.51,3.13,3.13,0,0,1,2.77-1.29,3.23,3.23,0,0,1,2.8,1.24,6.07,6.07,0,0,1,.82,3.56v3.27h21l0-6.56c0-4.64-1-7.93-2.89-9.78a8.4,8.4,0,0,0-3.93-2,26.49,26.49,0,0,0-6.52-.7Z"/><path class="cls-1" d="M603.55,309.18V253.61h22.57v22.45l7.44-22.45H657l-8.87,25.79,9.39,29.78H634.32l-8.2-25.4v25.4Z"/><path d="M658.57,309.94h-24.8l-6.89-21.33v21.33H602.79V252.85h24.09v18.5l6.13-18.5h25.07l-9.14,26.56Zm-23.69-1.52h21.61l-9.15-29,8.61-25H634.1l-8.44,25.51Zm-30.57,0h21.05V254.37H604.31Z"/><path d="M152.63,398.59V343h36.91a27.75,27.75,0,0,1,6.59.68,11.25,11.25,0,0,1,4.45,2.12,8.17,8.17,0,0,1,2.51,3.73,16.67,16.67,0,0,1,.79,5.45v30.17q0,7.47-3.16,10.48a9.32,9.32,0,0,1-4.34,2.22,28.08,28.08,0,0,1-6.84.72Zm22.58-12.73h2.49a3.16,3.16,0,0,0,2.57-.86,5.1,5.1,0,0,0,.68-3.1V359.64a5.15,5.15,0,0,0-.68-3.11,3.19,3.19,0,0,0-2.57-.85h-2.49Z"/><path d="M256.52,343v42.24q0,7.44-3.14,10.4t-11.31,2.95H219.6a25,25,0,0,1-6.46-.72,9.61,9.61,0,0,1-4.29-2.33,9.32,9.32,0,0,1-2.39-4.15,21.9,21.9,0,0,1-.75-6.15V374.78h22.18V382a5.13,5.13,0,0,0,.68,3.05,2.54,2.54,0,0,0,2.18.93A2.65,2.65,0,0,0,233,385a5.26,5.26,0,0,0,.71-3.05l0-38.94Z"/><path d="M270,398.59V343h22.58v22.45L300,343h23.46l-8.87,25.79L324,398.59H300.78l-8.2-25.4v25.4Z"/><path d="M320.81,364.44H347V377.1H320.81Z"/><path d="M377.47,398.59l-6.09-23.66v23.66H348.81V343h28.42l7.34,22.25L391.89,343h28.47v55.57H397.73V374.93l-6,23.66Z"/><path d="M422.19,398.59V343h40.89v12.66H444.6v8.76H461V377.1H444.6v8.82h18.48v12.67Z"/><path d="M477.11,398.59V355.68h-12.2V343h47.95v12.66H500.68v42.91Z"/><path d="M507.18,398.59,517.79,343h33.55L562,398.59H539.26l-1.38-12h-6.74l-1.32,12Zm25.37-24.29h4l-2-18.9Z"/><path class="cls-1" d="M147,392.94V337.37h36.91a27.24,27.24,0,0,1,6.59.68,11.25,11.25,0,0,1,4.45,2.12,8.17,8.17,0,0,1,2.51,3.73,16.67,16.67,0,0,1,.79,5.45v30.17q0,7.47-3.16,10.48a9.32,9.32,0,0,1-4.34,2.22,28.08,28.08,0,0,1-6.84.72Zm22.58-12.73h2.49a3.17,3.17,0,0,0,2.57-.86,5.1,5.1,0,0,0,.68-3.1V354a5.15,5.15,0,0,0-.68-3.11,3.21,3.21,0,0,0-2.57-.85h-2.49Z"/><path d="M183.89,393.7H146.22V336.61h37.67a28.23,28.23,0,0,1,6.77.7,11.89,11.89,0,0,1,4.75,2.28,8.94,8.94,0,0,1,2.75,4.06,17.66,17.66,0,0,1,.83,5.7v30.17c0,5.17-1.14,8.88-3.4,11a10.07,10.07,0,0,1-4.68,2.41A29,29,0,0,1,183.89,393.7Zm-36.15-1.52h36.15a27.56,27.56,0,0,0,6.65-.7,8.66,8.66,0,0,0,4-2c1.94-1.86,2.93-5.2,2.93-9.94V349.35a16,16,0,0,0-.75-5.2,7.38,7.38,0,0,0-2.28-3.39,10.42,10.42,0,0,0-4.15-2,26.73,26.73,0,0,0-6.4-.66H147.74ZM172.05,381H168.8v-31.7h3.25a3.79,3.79,0,0,1,3.16,1.14,5.69,5.69,0,0,1,.85,3.58v22.26a5.7,5.7,0,0,1-.85,3.58A3.87,3.87,0,0,1,172.05,381Zm-1.73-1.52h1.73a2.59,2.59,0,0,0,2-.57,4.4,4.4,0,0,0,.51-2.63V354a4.4,4.4,0,0,0-.51-2.63,2.59,2.59,0,0,0-2-.57h-1.73Z"/><path class="cls-1" d="M250.87,337.37V379.6q0,7.45-3.14,10.41T236.42,393H214a25,25,0,0,1-6.46-.71,9.61,9.61,0,0,1-4.29-2.33,9.32,9.32,0,0,1-2.39-4.15,21.93,21.93,0,0,1-.75-6.16V369.13h22.18v7.18a5.13,5.13,0,0,0,.68,3.05,2.54,2.54,0,0,0,2.18.93,2.65,2.65,0,0,0,2.28-.93,5.26,5.26,0,0,0,.71-3.05l0-38.94Z"/><path d="M236.42,393.71H214a26.05,26.05,0,0,1-6.66-.74,10.43,10.43,0,0,1-4.63-2.52,10.21,10.21,0,0,1-2.58-4.47,22.72,22.72,0,0,1-.78-6.37V368.37H223l0,7.94a4.33,4.33,0,0,0,.53,2.6,1.8,1.8,0,0,0,1.57.62,1.94,1.94,0,0,0,1.67-.62,4.44,4.44,0,0,0,.56-2.6l0-39.7h24.31v43c0,5.16-1.13,8.84-3.38,10.95S242.12,393.71,236.42,393.71Zm-35.6-23.82v9.72a21.15,21.15,0,0,0,.72,5.94,8.59,8.59,0,0,0,2.19,3.81,8.84,8.84,0,0,0,4,2.14,24.34,24.34,0,0,0,6.26.69h22.47c5.22,0,8.85-.92,10.79-2.74s2.9-5.12,2.9-9.84V338.13H228.84l0,38.18a5.88,5.88,0,0,1-.86,3.51,3.37,3.37,0,0,1-2.89,1.23,3.26,3.26,0,0,1-2.79-1.23,5.75,5.75,0,0,1-.83-3.51v-6.42Z"/><path class="cls-1" d="M264.35,392.94V337.37h22.58v22.45l7.43-22.45h23.46L309,363.16l9.39,29.78H295.13l-8.2-25.4v25.4Z"/><path d="M319.37,393.7H294.58l-6.89-21.33V393.7h-24.1V336.61h24.1v18.5l6.12-18.5h25.07l-9.13,26.56Zm-23.69-1.52H317.3l-9.15-29,8.6-25H294.91l-8.45,25.51Zm-30.57,0h21.05V338.13H265.11Z"/><path class="cls-1" d="M315.16,358.79h26.17v12.66H315.16Z"/><path d="M342.09,372.21H314.4V358h27.69Zm-26.17-1.52h24.64V359.55H315.92Z"/><path class="cls-1" d="M371.82,392.94l-6.09-23.66v23.66H343.16V337.37h28.42l7.34,22.25,7.31-22.25h28.48v55.57H392.08V369.28l-6,23.66Z"/><path d="M415.47,393.7H391.32V375.34l-4.68,18.36H371.23l-4.74-18.41V393.7H342.4V336.61h29.73l6.79,20.58,6.76-20.58h29.79Zm-22.63-1.52h21.1V338.13H386.78l-7.86,23.92L371,338.13H343.92v54.05H365V363.27l7.44,28.91h13l7.38-29Z"/><path class="cls-1" d="M416.54,392.94V337.37h40.89V350H439v8.76h16.42v12.66H439v8.82h18.48v12.67Z"/><path d="M458.19,393.7H415.78V336.61h42.41v14.18H439.71V358h16.42v14.18H439.71v7.3h18.48Zm-40.89-1.52h39.37V381H438.19V370.69h16.42V359.55H438.19V349.27h18.48V338.13H417.3Z"/><path class="cls-1" d="M471.46,392.94V350h-12.2V337.37h47.95V350H495v42.91Z"/><path d="M495.79,393.7H470.7V350.79H458.5V336.61H508v14.18H495.79Zm-23.57-1.52h22V349.27h12.18V338.13H460v11.14h12.2Z"/><path class="cls-1" d="M501.53,392.94l10.61-55.57h33.55l10.61,55.57H533.61l-1.39-12.05h-6.73l-1.32,12.05Zm25.36-24.3h4l-2-18.89Z"/><path d="M557.22,393.7H532.93l-1.38-12.05h-5.38l-1.32,12.05H500.61l10.9-57.09h34.81Zm-22.93-1.52h21.09l-10.32-54.05H512.77l-10.32,54.05h21l1.32-12.05h8.09Zm-2.56-22.78h-5.68l2.83-26.89Zm-4-1.52H530L528.89,357Z"/><path class="cls-2" d="M3.69,474.65A2.41,2.41,0,0,0,4.2,476a3.4,3.4,0,0,0,2.51.73,3.94,3.94,0,0,0,1.72-.32,1,1,0,0,0,.63-1,1.05,1.05,0,0,0-.51-.94,21.48,21.48,0,0,0-3.81-1.09A8.18,8.18,0,0,1,1.39,472a3.22,3.22,0,0,1-1-2.51,4.36,4.36,0,0,1,1.52-3.32,6.13,6.13,0,0,1,4.27-1.39,7.79,7.79,0,0,1,4.26,1.05,4.44,4.44,0,0,1,1.89,3.6H8.72a2.13,2.13,0,0,0-.4-1.12,2.51,2.51,0,0,0-2.05-.74,3,3,0,0,0-1.7.37,1.07,1.07,0,0,0-.51.87,1,1,0,0,0,.54.91,23.3,23.3,0,0,0,3.81,1,6.94,6.94,0,0,1,3.26,1.55,3.5,3.5,0,0,1,1.08,2.62,4.23,4.23,0,0,1-1.55,3.38,7.28,7.28,0,0,1-4.77,1.31,7.18,7.18,0,0,1-4.86-1.39A4.48,4.48,0,0,1,0,474.65Z"/><path class="cls-2" d="M20.82,470.62a6,6,0,0,0,1.46-.32,1.1,1.1,0,0,0,.78-1,1.23,1.23,0,0,0-.6-1.18,3.78,3.78,0,0,0-1.77-.32,2.3,2.3,0,0,0-1.85.64,2.55,2.55,0,0,0-.52,1.27H14.8a5.34,5.34,0,0,1,1-3q1.46-1.85,5-1.84a8.82,8.82,0,0,1,4.08.91,3.47,3.47,0,0,1,1.79,3.42v6.4c0,.44,0,1,0,1.61a2.08,2.08,0,0,0,.22,1,1.31,1.31,0,0,0,.54.42v.54h-4a3.37,3.37,0,0,1-.23-.8,7.89,7.89,0,0,1-.11-.84,7.2,7.2,0,0,1-1.75,1.39,5.27,5.27,0,0,1-2.67.68,4.63,4.63,0,0,1-3.15-1.08,3.86,3.86,0,0,1-1.24-3.06,4,4,0,0,1,2-3.72,8.86,8.86,0,0,1,3.22-.9Zm2.23,1.7a4.66,4.66,0,0,1-.71.35,6.2,6.2,0,0,1-1,.25l-.83.15a5.78,5.78,0,0,0-1.67.5,1.66,1.66,0,0,0-.86,1.55,1.62,1.62,0,0,0,.52,1.35,2,2,0,0,0,1.28.41,3.8,3.8,0,0,0,2.2-.69,2.93,2.93,0,0,0,1.05-2.51Z"/><path class="cls-2" d="M28.3,467.88v-2.59h1.94V461.4h3.61v3.89h2.26v2.59H33.85v7.37a1.65,1.65,0,0,0,.22,1.07,2.37,2.37,0,0,0,1.33.21h.35l.36,0v2.72l-1.72.07c-1.73.06-2.9-.24-3.53-.9a2.65,2.65,0,0,1-.62-1.93v-8.58Z"/><path class="cls-2" d="M42,465.16v8.4a4.36,4.36,0,0,0,.28,1.79,1.93,1.93,0,0,0,2,1.06,2.53,2.53,0,0,0,2.54-1.51,5.4,5.4,0,0,0,.36-2.16v-7.58h3.69V479.1H47.23v-2s-.12.17-.25.38a2.63,2.63,0,0,1-.49.56,5.15,5.15,0,0,1-1.65,1.05,5.54,5.54,0,0,1-1.87.28c-2,0-3.44-.74-4.15-2.22a8.55,8.55,0,0,1-.6-3.62v-8.4Z"/><path class="cls-2" d="M61.93,464.83l.31,0v3.74a5,5,0,0,0-.62,0l-.43,0A3,3,0,0,0,58.24,470a5.62,5.62,0,0,0-.43,2.49v6.66H54.14V465.16h3.48v2.43a7.74,7.74,0,0,1,1.47-1.9,4,4,0,0,1,2.66-.86Z"/><path class="cls-2" d="M71.63,465.38a4.54,4.54,0,0,1,1.6,1.54v-6.64h3.7V479.1H73.38v-1.93a5.26,5.26,0,0,1-1.77,1.8,5.05,5.05,0,0,1-2.48.56,5.19,5.19,0,0,1-4.11-2,7.56,7.56,0,0,1-1.67-5.07A8.79,8.79,0,0,1,65,466.87a5.36,5.36,0,0,1,4.39-2A4.47,4.47,0,0,1,71.63,465.38Zm.9,9.93a5.14,5.14,0,0,0,.8-3A4.56,4.56,0,0,0,72,468.68,2.75,2.75,0,0,0,70.2,468a2.55,2.55,0,0,0-2.35,1.21,5.68,5.68,0,0,0-.74,3,5.55,5.55,0,0,0,.76,3.09,2.56,2.56,0,0,0,2.31,1.15A2.68,2.68,0,0,0,72.53,475.31Z"/><path class="cls-2" d="M85.63,470.62a5.9,5.9,0,0,0,1.45-.32,1.11,1.11,0,0,0,.79-1,1.21,1.21,0,0,0-.61-1.18,3.76,3.76,0,0,0-1.76-.32,2.31,2.31,0,0,0-1.86.64,2.64,2.64,0,0,0-.52,1.27H79.61a5.33,5.33,0,0,1,1-3q1.45-1.85,5-1.84a8.82,8.82,0,0,1,4.08.91,3.46,3.46,0,0,1,1.78,3.42v6.4c0,.44,0,1,0,1.61a2.08,2.08,0,0,0,.22,1,1.34,1.34,0,0,0,.53.42v.54h-4a3.92,3.92,0,0,1-.23-.8,8.1,8.1,0,0,1-.1-.84,7.4,7.4,0,0,1-1.75,1.39,5.31,5.31,0,0,1-2.68.68,4.63,4.63,0,0,1-3.14-1.08,3.83,3.83,0,0,1-1.24-3.06,4,4,0,0,1,2-3.72,8.86,8.86,0,0,1,3.22-.9Zm2.22,1.7a4.57,4.57,0,0,1-.7.35,6.51,6.51,0,0,1-1,.25l-.83.15a5.76,5.76,0,0,0-1.68.5,1.68,1.68,0,0,0-.86,1.55,1.63,1.63,0,0,0,.53,1.35,2,2,0,0,0,1.28.41,3.82,3.82,0,0,0,2.2-.69,2.9,2.9,0,0,0,1-2.51Z"/><path class="cls-2" d="M95.09,481.77l.46,0a5.71,5.71,0,0,0,1,0,2,2,0,0,0,.82-.3,2,2,0,0,0,.59-.91,2.2,2.2,0,0,0,.24-.84L93.1,465.16h4.05l3,10.28,2.88-10.28H107l-4.78,13.71a19.69,19.69,0,0,1-2.19,4.91c-.54.64-1.62,1-3.23,1H96l-.88-.05Z"/><path class="cls-2" d="M106.85,482.13a2.85,2.85,0,0,0,1.61-1,3.68,3.68,0,0,0,.6-2h-2.21v-3.83h3.93v3.31a7.38,7.38,0,0,1-.23,1.82,3.74,3.74,0,0,1-.85,1.64,4.65,4.65,0,0,1-1.59,1.12,4.09,4.09,0,0,1-1.26.37Z"/><path class="cls-2" d="M127.09,460.08l.77.06v3l-1-.06a1.23,1.23,0,0,0-1,.32,1.19,1.19,0,0,0-.27.75v1.18H128v2.57h-2.39V479.1h-3.62V467.86h-2v-2.57h2v-.9a4.72,4.72,0,0,1,.75-3.08c.53-.83,1.81-1.25,3.82-1.25Z"/><path class="cls-2" d="M139,465.44a5.73,5.73,0,0,1,2.4,2.06,6.88,6.88,0,0,1,1.11,2.89,17.27,17.27,0,0,1,.12,2.76H132.48a3.36,3.36,0,0,0,1.46,2.94,3.72,3.72,0,0,0,2,.53,3.09,3.09,0,0,0,2-.64,2.87,2.87,0,0,0,.75-1h3.72a4.5,4.5,0,0,1-1.35,2.52,6.78,6.78,0,0,1-5.24,2,7.63,7.63,0,0,1-4.91-1.71q-2.13-1.73-2.13-5.58a7.56,7.56,0,0,1,1.92-5.56,6.73,6.73,0,0,1,5-1.93A8.07,8.07,0,0,1,139,465.44Zm-5.46,3.15a3.87,3.87,0,0,0-1,2.16h6.28a3,3,0,0,0-1-2.2,3.15,3.15,0,0,0-2.16-.76A2.91,2.91,0,0,0,133.54,468.59Z"/><path class="cls-2" d="M156.24,466.84a8,8,0,0,1,1.57,5.11,9,9,0,0,1-1.54,5.38,5.6,5.6,0,0,1-7.1,1.45,5.72,5.72,0,0,1-1.36-1.43v1.75h-3.59V460.28h3.64V467a5.38,5.38,0,0,1,1.53-1.49,4.62,4.62,0,0,1,2.52-.64A5.18,5.18,0,0,1,156.24,466.84Zm-3,8.48a5.16,5.16,0,0,0,.79-3,6.62,6.62,0,0,0-.39-2.45,2.69,2.69,0,0,0-2.71-1.84,2.72,2.72,0,0,0-2.74,1.8,6.68,6.68,0,0,0-.39,2.48,5.22,5.22,0,0,0,.8,3,2.74,2.74,0,0,0,2.43,1.17A2.53,2.53,0,0,0,153.2,475.32Z"/><path class="cls-2" d="M168,464.83l.31,0v3.74a4.82,4.82,0,0,0-.61,0l-.43,0a3,3,0,0,0-3,1.43,5.64,5.64,0,0,0-.42,2.49v6.66h-3.67V465.16h3.48v2.43a7.51,7.51,0,0,1,1.47-1.9,4,4,0,0,1,2.66-.86Z"/><path class="cls-2" d="M173.9,465.16v8.4a4.36,4.36,0,0,0,.28,1.79,1.93,1.93,0,0,0,1.94,1.06,2.55,2.55,0,0,0,2.55-1.51,5.4,5.4,0,0,0,.36-2.16v-7.58h3.69V479.1h-3.54v-2s-.12.17-.26.38a2.34,2.34,0,0,1-.48.56,5.15,5.15,0,0,1-1.65,1.05,5.58,5.58,0,0,1-1.87.28c-2.06,0-3.44-.74-4.16-2.22a8.57,8.57,0,0,1-.59-3.62v-8.4Z"/><path class="cls-2" d="M191.65,470.62a6,6,0,0,0,1.46-.32,1.1,1.1,0,0,0,.78-1,1.23,1.23,0,0,0-.6-1.18,3.78,3.78,0,0,0-1.77-.32,2.3,2.3,0,0,0-1.85.64,2.55,2.55,0,0,0-.52,1.27h-3.52a5.34,5.34,0,0,1,1-3q1.46-1.85,5-1.84a8.89,8.89,0,0,1,4.09.91,3.48,3.48,0,0,1,1.78,3.42v6.4c0,.44,0,1,0,1.61a2,2,0,0,0,.21,1,1.31,1.31,0,0,0,.54.42v.54h-4a3.92,3.92,0,0,1-.23-.8,7.89,7.89,0,0,1-.11-.84,7,7,0,0,1-1.75,1.39,5.27,5.27,0,0,1-2.67.68,4.59,4.59,0,0,1-3.14-1.08,3.84,3.84,0,0,1-1.25-3.06,4,4,0,0,1,2-3.72,8.92,8.92,0,0,1,3.22-.9Zm2.23,1.7a4.25,4.25,0,0,1-.71.35,6.2,6.2,0,0,1-1,.25l-.83.15a5.78,5.78,0,0,0-1.67.5,1.68,1.68,0,0,0-.86,1.55,1.62,1.62,0,0,0,.52,1.35,2,2,0,0,0,1.28.41,3.8,3.8,0,0,0,2.2-.69,2.93,2.93,0,0,0,1-2.51Z"/><path class="cls-2" d="M208.3,464.83l.32,0v3.74a5,5,0,0,0-.62,0l-.43,0a3,3,0,0,0-2.95,1.43,5.48,5.48,0,0,0-.43,2.49v6.66h-3.67V465.16H204v2.43a7.51,7.51,0,0,1,1.47-1.9,4,4,0,0,1,2.66-.86Z"/><path class="cls-2" d="M211.17,481.77l.46,0a5.68,5.68,0,0,0,1,0,1.57,1.57,0,0,0,1.42-1.21,2.1,2.1,0,0,0,.23-.84l-5.12-14.55h4.06l3,10.28,2.88-10.28H223l-4.78,13.71a19,19,0,0,1-2.19,4.91c-.54.64-1.61,1-3.23,1h-.78l-.88-.05Z"/><path class="cls-2" d="M232.31,466.31v-2.48a16.21,16.21,0,0,0,2.41-.23,3.44,3.44,0,0,0,1.79-1,3.75,3.75,0,0,0,.85-2.07h3V479.1h-3.73V466.31Z"/><path class="cls-2" d="M254.53,465.22a1.89,1.89,0,0,0-.35-1,2,2,0,0,0-1.77-.87,2.62,2.62,0,0,0-2.53,2,12.27,12.27,0,0,0-.57,3.24,4.06,4.06,0,0,1,1.58-1.17,5.19,5.19,0,0,1,2-.37,5.31,5.31,0,0,1,4.05,1.67,6,6,0,0,1,1.58,4.28A7.25,7.25,0,0,1,257,477.6a5.72,5.72,0,0,1-4.81,2,5.51,5.51,0,0,1-5.16-2.93,11.91,11.91,0,0,1-1.29-5.9,26.55,26.55,0,0,1,.18-3.45,10.57,10.57,0,0,1,1.23-3.94,6.33,6.33,0,0,1,2.08-2.16,5.58,5.58,0,0,1,3.08-.82,6.08,6.08,0,0,1,4.11,1.32,5,5,0,0,1,1.73,3.52Zm-4.32,10.45a2.56,2.56,0,0,0,2,.95,2.27,2.27,0,0,0,1.91-.92,3.77,3.77,0,0,0,.7-2.37,3.56,3.56,0,0,0-.79-2.49,2.56,2.56,0,0,0-1.94-.86,2.59,2.59,0,0,0-1.65.56,3.19,3.19,0,0,0-1.08,2.69A3.61,3.61,0,0,0,250.21,475.67Z"/><path class="cls-2" d="M272.37,459.68h3l-7.34,19.42h-3Z"/><path class="cls-2" d="M279.52,459.68h3l-7.34,19.42h-3Z"/><path class="cls-2" d="M288.2,467.88v-2.59h1.95V461.4h3.6v3.89H296v2.59h-2.26v7.37a1.65,1.65,0,0,0,.22,1.07,2.4,2.4,0,0,0,1.33.21h.35l.36,0v2.72l-1.72.07c-1.72.06-2.9-.24-3.53-.9a2.65,2.65,0,0,1-.61-1.93v-8.58Z"/><path class="cls-2" d="M307.3,465.44a5.7,5.7,0,0,1,2.41,2.06,6.88,6.88,0,0,1,1.11,2.89,17.27,17.27,0,0,1,.12,2.76H300.79a3.36,3.36,0,0,0,1.46,2.94,3.72,3.72,0,0,0,2,.53,3.11,3.11,0,0,0,2-.64,2.87,2.87,0,0,0,.75-1h3.72a4.63,4.63,0,0,1-1.35,2.52,6.78,6.78,0,0,1-5.24,2,7.61,7.61,0,0,1-4.91-1.71q-2.13-1.73-2.13-5.58a7.56,7.56,0,0,1,1.92-5.56,6.71,6.71,0,0,1,5-1.93A8,8,0,0,1,307.3,465.44Zm-5.45,3.15a3.87,3.87,0,0,0-1,2.16h6.28a3,3,0,0,0-1-2.2,3.15,3.15,0,0,0-2.16-.76A2.91,2.91,0,0,0,301.85,468.59Z"/><path class="cls-2" d="M323.89,466a4.6,4.6,0,0,1,1.37,3.75v9.39h-3.73v-8.48a4,4,0,0,0-.29-1.69,2.07,2.07,0,0,0-2-1.07,2.52,2.52,0,0,0-2.53,1.57,5.39,5.39,0,0,0-.36,2.12v7.55h-3.64V465.19h3.53v2a6.4,6.4,0,0,1,1.32-1.55,4.62,4.62,0,0,1,2.84-.84A5.35,5.35,0,0,1,323.89,466Z"/><path class="cls-2" d="M334.23,467.88v-2.59h1.94V461.4h3.61v3.89H342v2.59h-2.26v7.37a1.65,1.65,0,0,0,.22,1.07,2.37,2.37,0,0,0,1.33.21h.35l.36,0v2.72l-1.72.07c-1.73.06-2.9-.24-3.53-.9a2.65,2.65,0,0,1-.62-1.93v-8.58Z"/><path class="cls-2" d="M348,463.5h-3.7v-3.36H348Zm-3.7,1.66H348V479.1h-3.7Z"/><path class="cls-2" d="M358.29,465.15a4.34,4.34,0,0,1,2.14,2v-2H364v13.22a7.48,7.48,0,0,1-.91,4.07c-1,1.56-3,2.35-6,2.35a8.11,8.11,0,0,1-4.36-1.05,3.86,3.86,0,0,1-1.87-3.13h4a1.72,1.72,0,0,0,.5.92,3.08,3.08,0,0,0,2,.5,2.67,2.67,0,0,0,2.64-1.32,6.68,6.68,0,0,0,.43-2.84V477a4.05,4.05,0,0,1-3.95,2.17,5.34,5.34,0,0,1-4.29-1.89,7.6,7.6,0,0,1-1.6-5.1,8.64,8.64,0,0,1,1.54-5.23,5.1,5.1,0,0,1,4.38-2.11A4.68,4.68,0,0,1,358.29,465.15Zm1.24,10a4.51,4.51,0,0,0,.88-3.08,4.67,4.67,0,0,0-.84-3,2.71,2.71,0,0,0-2.23-1,2.65,2.65,0,0,0-2.64,1.8,6.54,6.54,0,0,0-.38,2.37,5.44,5.44,0,0,0,.41,2.16,2.64,2.64,0,0,0,2.65,1.76A2.81,2.81,0,0,0,359.53,475.14Z"/><path class="cls-2" d="M376.34,465.44a5.82,5.82,0,0,1,2.41,2.06,6.88,6.88,0,0,1,1.11,2.89,18.55,18.55,0,0,1,.12,2.76H369.83a3.33,3.33,0,0,0,1.45,2.94,3.72,3.72,0,0,0,2,.53,2.83,2.83,0,0,0,2.78-1.6h3.72a4.63,4.63,0,0,1-1.35,2.52,6.8,6.8,0,0,1-5.25,2,7.63,7.63,0,0,1-4.91-1.71q-2.11-1.73-2.12-5.58a7.56,7.56,0,0,1,1.92-5.56,6.71,6.71,0,0,1,5-1.93A8,8,0,0,1,376.34,465.44Zm-5.45,3.15a3.74,3.74,0,0,0-1,2.16h6.27a3,3,0,0,0-1-2.2,3.15,3.15,0,0,0-2.16-.76A2.88,2.88,0,0,0,370.89,468.59Z"/><path class="cls-2" d="M389.43,464.83l.31,0v3.74a4.82,4.82,0,0,0-.61,0l-.43,0a3,3,0,0,0-3,1.43,5.64,5.64,0,0,0-.42,2.49v6.66h-3.67V465.16h3.48v2.43a7.51,7.51,0,0,1,1.47-1.9,4,4,0,0,1,2.66-.86Z"/><path class="cls-2" d="M394.57,474.65a2.48,2.48,0,0,0,.5,1.38,3.45,3.45,0,0,0,2.52.73,3.94,3.94,0,0,0,1.72-.32,1,1,0,0,0,.63-1,1.05,1.05,0,0,0-.51-.94,21.48,21.48,0,0,0-3.81-1.09,8.11,8.11,0,0,1-3.35-1.47,3.19,3.19,0,0,1-1-2.51,4.36,4.36,0,0,1,1.52-3.32,6.11,6.11,0,0,1,4.27-1.39,7.82,7.82,0,0,1,4.26,1.05,4.44,4.44,0,0,1,1.89,3.6H399.6a2.22,2.22,0,0,0-.4-1.12,2.52,2.52,0,0,0-2.05-.74,3,3,0,0,0-1.7.37,1.07,1.07,0,0,0-.51.87,1,1,0,0,0,.54.91,23.3,23.3,0,0,0,3.81,1,6.94,6.94,0,0,1,3.26,1.55,3.5,3.5,0,0,1,1.08,2.62,4.23,4.23,0,0,1-1.55,3.38,7.28,7.28,0,0,1-4.77,1.31,7.14,7.14,0,0,1-4.86-1.39,4.48,4.48,0,0,1-1.57-3.53Z"/><path class="cls-2" d="M425,466.66a7.4,7.4,0,0,1,1.71,5.29,8.35,8.35,0,0,1-1.67,5.61,5.4,5.4,0,0,1-4.29,1.93,4.46,4.46,0,0,1-2.78-.83,5.31,5.31,0,0,1-1.18-1.34v7.26h-3.61V465.16h3.49v2.06a6,6,0,0,1,1.26-1.43,4.63,4.63,0,0,1,2.91-.94A5.47,5.47,0,0,1,425,466.66Zm-2.79,2.62a2.59,2.59,0,0,0-2.41-1.24,2.73,2.73,0,0,0-2.75,1.88,7,7,0,0,0-.39,2.53,4,4,0,0,0,1.3,3.41,3,3,0,0,0,1.84.58,2.68,2.68,0,0,0,2.34-1.18,6.16,6.16,0,0,0,.07-6Z"/><path class="cls-2" d="M434.71,470.62a5.9,5.9,0,0,0,1.45-.32,1.11,1.11,0,0,0,.79-1,1.21,1.21,0,0,0-.61-1.18,3.76,3.76,0,0,0-1.76-.32,2.31,2.31,0,0,0-1.86.64,2.64,2.64,0,0,0-.52,1.27h-3.51a5.33,5.33,0,0,1,1-3q1.46-1.85,5-1.84a8.82,8.82,0,0,1,4.08.91,3.46,3.46,0,0,1,1.78,3.42v6.4c0,.44,0,1,0,1.61a2.08,2.08,0,0,0,.22,1,1.31,1.31,0,0,0,.54.42v.54h-4a3.92,3.92,0,0,1-.23-.8,8.1,8.1,0,0,1-.1-.84,7.4,7.4,0,0,1-1.75,1.39,5.31,5.31,0,0,1-2.68.68,4.63,4.63,0,0,1-3.14-1.08,3.83,3.83,0,0,1-1.24-3.06,4,4,0,0,1,2-3.72,8.86,8.86,0,0,1,3.22-.9Zm2.22,1.7a4.57,4.57,0,0,1-.7.35,6.51,6.51,0,0,1-1,.25l-.83.15a5.76,5.76,0,0,0-1.68.5,1.68,1.68,0,0,0-.86,1.55,1.63,1.63,0,0,0,.53,1.35,2,2,0,0,0,1.28.41,3.82,3.82,0,0,0,2.2-.69,2.9,2.9,0,0,0,1-2.51Z"/><path class="cls-2" d="M451.36,464.83l.31,0v3.74a4.82,4.82,0,0,0-.61,0l-.44,0a3,3,0,0,0-2.95,1.43,5.64,5.64,0,0,0-.42,2.49v6.66h-3.67V465.16h3.48v2.43a7.51,7.51,0,0,1,1.47-1.9,4,4,0,0,1,2.66-.86Z"/><path class="cls-2" d="M457.4,479.1h-3.65V460.25h3.65Z"/><path class="cls-2" d="M472.44,477.39a7.67,7.67,0,0,1-10.71,0,8,8,0,0,1-1.77-5.24,8.13,8.13,0,0,1,1.77-5.23,7.59,7.59,0,0,1,10.71,0,8.13,8.13,0,0,1,1.77,5.23A8,8,0,0,1,472.44,477.39Zm-2.91-2a6.56,6.56,0,0,0,0-6.46,3.24,3.24,0,0,0-4.92,0,6.5,6.5,0,0,0,0,6.46,3.24,3.24,0,0,0,4.92,0Z"/><path class="cls-2" d="M480.31,465.16v8.4a4.54,4.54,0,0,0,.28,1.79,1.93,1.93,0,0,0,2,1.06,2.52,2.52,0,0,0,2.54-1.51,5.4,5.4,0,0,0,.36-2.16v-7.58h3.7V479.1h-3.55v-2l-.25.38a2.89,2.89,0,0,1-.48.56,5.07,5.07,0,0,1-1.66,1.05,5.51,5.51,0,0,1-1.86.28q-3.09,0-4.16-2.22a8.55,8.55,0,0,1-.6-3.62v-8.4Z"/><path class="cls-2" d="M500.29,464.83l.31,0v3.74a4.82,4.82,0,0,0-.61,0l-.44,0A3,3,0,0,0,496.6,470a5.64,5.64,0,0,0-.42,2.49v6.66h-3.67V465.16H496v2.43a7.51,7.51,0,0,1,1.47-1.9,3.94,3.94,0,0,1,2.66-.86Z"/><path class="cls-2" d="M513.92,459.68h3l-7.33,19.42h-3Z"/><path class="cls-2" d="M521.06,459.68h3l-7.34,19.42h-3Z"/><path class="cls-2" d="M531.16,475.45a10.28,10.28,0,0,1,3.68-3.92,26,26,0,0,0,3.26-2.59,3.78,3.78,0,0,0,1.14-2.65,2.92,2.92,0,0,0-.66-2,2.66,2.66,0,0,0-4.13.46,6.35,6.35,0,0,0-.41,2.28H530.5a9,9,0,0,1,.86-3.83q1.46-2.78,5.18-2.77a6.56,6.56,0,0,1,4.69,1.63,5.63,5.63,0,0,1,1.74,4.31,5.84,5.84,0,0,1-1.23,3.66,12.22,12.22,0,0,1-2.65,2.37l-1.46,1c-.92.65-1.54,1.12-1.88,1.41a3.94,3.94,0,0,0-.85,1H543v3.21H530.3A8.63,8.63,0,0,1,531.16,475.45Z"/><path class="cls-2" d="M545.59,475.45a10.28,10.28,0,0,1,3.68-3.92,26,26,0,0,0,3.26-2.59,3.78,3.78,0,0,0,1.14-2.65,2.92,2.92,0,0,0-.66-2,2.65,2.65,0,0,0-4.12.46,6.13,6.13,0,0,0-.41,2.28h-3.55a9,9,0,0,1,.86-3.83q1.46-2.78,5.19-2.77a6.56,6.56,0,0,1,4.68,1.63,5.63,5.63,0,0,1,1.74,4.31,5.84,5.84,0,0,1-1.23,3.66,12.22,12.22,0,0,1-2.65,2.37l-1.46,1c-.91.65-1.54,1.12-1.88,1.41a4.15,4.15,0,0,0-.85,1h8.1v3.21h-12.7A8.63,8.63,0,0,1,545.59,475.45Z"/><path class="cls-2" d="M561.31,465.7h3.87v3.82h-3.87Zm0,9.57h3.87v3.83h-3.87Z"/><path class="cls-2" d="M579.11,462.92a18.24,18.24,0,0,1,0,14.16q-1.43,2.48-5,2.48t-5-2.48a18.24,18.24,0,0,1,0-14.16q1.43-2.49,5-2.49T579.11,462.92Zm-7.12,12a2.11,2.11,0,0,0,2.15,1.69,2.08,2.08,0,0,0,2.13-1.69,17.93,17.93,0,0,0,.51-4.89,17.67,17.67,0,0,0-.51-5,2.06,2.06,0,0,0-2.13-1.62,2.1,2.1,0,0,0-2.15,1.62,17.59,17.59,0,0,0-.52,5A17.86,17.86,0,0,0,572,474.9Z"/><path class="cls-2" d="M593.54,462.92a18.24,18.24,0,0,1,0,14.16c-.95,1.65-2.6,2.48-5,2.48s-4-.83-5-2.48a18.24,18.24,0,0,1,0-14.16q1.42-2.49,5-2.49C590.94,460.43,592.59,461.26,593.54,462.92Zm-7.11,12a2.1,2.1,0,0,0,2.14,1.69,2.07,2.07,0,0,0,2.13-1.69,17.93,17.93,0,0,0,.51-4.89,17.67,17.67,0,0,0-.51-5,2.06,2.06,0,0,0-2.13-1.62,2.09,2.09,0,0,0-2.14,1.62,17.15,17.15,0,0,0-.53,5A17.41,17.41,0,0,0,586.43,474.9Z"/><path class="cls-2" d="M603.54,470.07h7.13v3.45h-7.13Z"/><path class="cls-2" d="M630.85,462.92a18.36,18.36,0,0,1,0,14.16q-1.43,2.48-5,2.48t-5-2.48a18.36,18.36,0,0,1,0-14.16q1.43-2.49,5-2.49T630.85,462.92Zm-7.12,12a2.11,2.11,0,0,0,2.15,1.69A2.08,2.08,0,0,0,628,474.9a17.93,17.93,0,0,0,.51-4.89,17.67,17.67,0,0,0-.51-5,2.07,2.07,0,0,0-2.13-1.62,2.1,2.1,0,0,0-2.15,1.62,17.22,17.22,0,0,0-.52,5A17.47,17.47,0,0,0,623.73,474.9Z"/><path class="cls-2" d="M637.37,473.41a4.16,4.16,0,0,0,.36,1.84,2.45,2.45,0,0,0,2.41,1.34,2.67,2.67,0,0,0,1.87-.73,2.75,2.75,0,0,0,.8-2.12,2.39,2.39,0,0,0-1.48-2.44,7.48,7.48,0,0,0-2.65-.35v-2.61a6.79,6.79,0,0,0,2.47-.34,2.13,2.13,0,0,0,1.21-2.17,2.44,2.44,0,0,0-.62-1.73,2.27,2.27,0,0,0-1.74-.67,2.2,2.2,0,0,0-1.89.82,3.44,3.44,0,0,0-.58,2.19h-3.41a9.35,9.35,0,0,1,.48-2.62,5.81,5.81,0,0,1,1.4-2,5.06,5.06,0,0,1,1.7-1,7.39,7.39,0,0,1,2.42-.34,6.45,6.45,0,0,1,4.28,1.37,4.58,4.58,0,0,1,1.63,3.69,4.11,4.11,0,0,1-1,2.76,3.34,3.34,0,0,1-1.28,1,2.65,2.65,0,0,1,1.43.86,4.57,4.57,0,0,1,1.39,3.53,6,6,0,0,1-1.62,4.13,6.23,6.23,0,0,1-4.83,1.79q-3.93,0-5.46-2.57a7.6,7.6,0,0,1-.9-3.58Z"/><path class="cls-2" d="M650.5,465.7h3.87v3.82H650.5Zm0,9.57h3.87v3.83H650.5Z"/><path class="cls-2" d="M668.3,462.92a18.24,18.24,0,0,1,0,14.16q-1.42,2.48-5,2.48t-5-2.48a18.24,18.24,0,0,1,0-14.16q1.43-2.49,5-2.49T668.3,462.92Zm-7.11,12a2.19,2.19,0,0,0,4.27,0A17.93,17.93,0,0,0,666,470a17.67,17.67,0,0,0-.51-5,2.22,2.22,0,0,0-4.27,0,17.15,17.15,0,0,0-.53,5A17.41,17.41,0,0,0,661.19,474.9Z"/><path class="cls-2" d="M682.73,462.92a18.24,18.24,0,0,1,0,14.16c-1,1.65-2.6,2.48-5,2.48s-4-.83-5-2.48a18.24,18.24,0,0,1,0-14.16q1.43-2.49,5-2.49C680.13,460.43,681.78,461.26,682.73,462.92Zm-7.11,12a2.1,2.1,0,0,0,2.14,1.69,2.07,2.07,0,0,0,2.13-1.69,17.93,17.93,0,0,0,.51-4.89,17.67,17.67,0,0,0-.51-5,2.06,2.06,0,0,0-2.13-1.62,2.09,2.09,0,0,0-2.14,1.62,17.15,17.15,0,0,0-.53,5A17.41,17.41,0,0,0,675.62,474.9Z"/><path class="cls-2" d="M698,459.68h3L693.7,479.1h-3Z"/><path class="cls-2" d="M705.14,459.68h3l-7.33,19.42h-3Z"/><path class="cls-2" d="M74.55,491.5l.77.06v3c-.2,0-.55,0-1,0A1,1,0,0,0,73,495.53v1.18h2.39v2.57H73v11.24H69.4V499.28H67.35v-2.57h2v-.9a4.74,4.74,0,0,1,.75-3.08c.53-.83,1.81-1.25,3.83-1.25Z"/><path class="cls-2" d="M85.12,496.26h.31V500c-.23,0-.44,0-.61-.05l-.44,0a3,3,0,0,0-2.95,1.44,5.56,5.56,0,0,0-.42,2.48v6.66H77.34V496.58h3.47V499a8,8,0,0,1,1.47-1.9,4,4,0,0,1,2.66-.86Z"/><path class="cls-2" d="M96.51,496.86a5.65,5.65,0,0,1,2.41,2.07,6.78,6.78,0,0,1,1.11,2.88,17.27,17.27,0,0,1,.12,2.76H90a3.36,3.36,0,0,0,1.46,2.94,3.72,3.72,0,0,0,2,.53,3.11,3.11,0,0,0,2-.64,2.87,2.87,0,0,0,.75-1H100A4.56,4.56,0,0,1,98.61,509a6.78,6.78,0,0,1-5.24,2,7.61,7.61,0,0,1-4.91-1.71q-2.13-1.72-2.13-5.58a7.56,7.56,0,0,1,1.92-5.56,6.73,6.73,0,0,1,5-1.93A8,8,0,0,1,96.51,496.86ZM91.06,500a3.87,3.87,0,0,0-1,2.16h6.28a3,3,0,0,0-1-2.2,3.19,3.19,0,0,0-2.16-.75A2.9,2.9,0,0,0,91.06,500Z"/><path class="cls-2" d="M111,496.86a5.69,5.69,0,0,1,2.4,2.07,6.66,6.66,0,0,1,1.11,2.88,17.27,17.27,0,0,1,.12,2.76H104.43a3.36,3.36,0,0,0,1.46,2.94,3.72,3.72,0,0,0,2,.53,3.09,3.09,0,0,0,2-.64,2.87,2.87,0,0,0,.75-1h3.72A4.44,4.44,0,0,1,113,509a6.77,6.77,0,0,1-5.24,2,7.63,7.63,0,0,1-4.91-1.71c-1.42-1.15-2.12-3-2.12-5.58a7.56,7.56,0,0,1,1.92-5.56,6.71,6.71,0,0,1,5-1.93A8.07,8.07,0,0,1,111,496.86ZM105.5,500a3.81,3.81,0,0,0-1,2.16h6.28a3,3,0,0,0-1-2.2,3.19,3.19,0,0,0-2.16-.75A2.86,2.86,0,0,0,105.5,500Z"/><path class="cls-2" d="M135.34,498.26a8,8,0,0,1,1.56,5.11,8.92,8.92,0,0,1-1.54,5.38,5.59,5.59,0,0,1-7.09,1.45,5.73,5.73,0,0,1-1.37-1.43v1.75h-3.59V491.7H127v6.7a5.25,5.25,0,0,1,1.53-1.49,4.62,4.62,0,0,1,2.52-.64A5.19,5.19,0,0,1,135.34,498.26Zm-3.05,8.49a5.14,5.14,0,0,0,.79-3,6.62,6.62,0,0,0-.39-2.45,2.68,2.68,0,0,0-2.7-1.84,2.73,2.73,0,0,0-2.75,1.8,6.68,6.68,0,0,0-.39,2.48,5.22,5.22,0,0,0,.8,3,2.77,2.77,0,0,0,2.44,1.17A2.52,2.52,0,0,0,132.29,506.75Z"/><path class="cls-2" d="M148.39,496.86a5.69,5.69,0,0,1,2.4,2.07,6.78,6.78,0,0,1,1.11,2.88,17.27,17.27,0,0,1,.12,2.76H141.87a3.36,3.36,0,0,0,1.46,2.94,3.72,3.72,0,0,0,2,.53,3.11,3.11,0,0,0,2-.64,2.87,2.87,0,0,0,.75-1h3.72a4.56,4.56,0,0,1-1.35,2.52,6.78,6.78,0,0,1-5.24,2,7.63,7.63,0,0,1-4.91-1.71q-2.13-1.72-2.13-5.58a7.56,7.56,0,0,1,1.92-5.56,6.73,6.73,0,0,1,5-1.93A8.07,8.07,0,0,1,148.39,496.86ZM142.93,500a3.8,3.8,0,0,0-1,2.16h6.28a3,3,0,0,0-1-2.2,3.19,3.19,0,0,0-2.16-.75A2.9,2.9,0,0,0,142.93,500Z"/><path class="cls-2" d="M159.5,491.5l.77.06v3c-.21,0-.55,0-1,0a1,1,0,0,0-1.27,1.06v1.18h2.39v2.57H158v11.24h-3.62V499.28h-2v-2.57h2v-.9a4.74,4.74,0,0,1,.75-3.08c.53-.83,1.8-1.25,3.82-1.25Z"/><path class="cls-2" d="M174,508.81a7.68,7.68,0,0,1-10.72,0,8.09,8.09,0,0,1-1.76-5.24,8.18,8.18,0,0,1,1.76-5.23,7.6,7.6,0,0,1,10.72,0,8.18,8.18,0,0,1,1.76,5.23A8.09,8.09,0,0,1,174,508.81Zm-2.92-2a5.3,5.3,0,0,0,.86-3.23,5.23,5.23,0,0,0-.86-3.22,2.87,2.87,0,0,0-2.45-1.13,2.91,2.91,0,0,0-2.47,1.13,5.23,5.23,0,0,0-.86,3.22,5.3,5.3,0,0,0,.86,3.23,2.91,2.91,0,0,0,2.47,1.13A2.87,2.87,0,0,0,171,506.8Z"/><path class="cls-2" d="M185.93,496.26h.31V500c-.23,0-.43,0-.61-.05l-.44,0a3,3,0,0,0-2.95,1.44,5.56,5.56,0,0,0-.42,2.48v6.66h-3.67V496.58h3.48V499a7.51,7.51,0,0,1,1.47-1.9,3.94,3.94,0,0,1,2.66-.86Z"/><path class="cls-2" d="M197.33,496.86a5.69,5.69,0,0,1,2.4,2.07,6.67,6.67,0,0,1,1.12,2.88,20,20,0,0,1,.12,2.76H190.82a3.33,3.33,0,0,0,1.45,2.94,3.72,3.72,0,0,0,2,.53,2.83,2.83,0,0,0,2.78-1.6h3.72a4.52,4.52,0,0,1-1.36,2.52,6.77,6.77,0,0,1-5.24,2,7.63,7.63,0,0,1-4.91-1.71c-1.42-1.15-2.12-3-2.12-5.58a7.56,7.56,0,0,1,1.92-5.56,6.71,6.71,0,0,1,5-1.93A8,8,0,0,1,197.33,496.86ZM191.88,500a3.74,3.74,0,0,0-1,2.16h6.27a3,3,0,0,0-1-2.2,3.19,3.19,0,0,0-2.16-.75A2.88,2.88,0,0,0,191.88,500Z"/><path class="cls-2" d="M209.79,506.87a10.4,10.4,0,0,1,3.69-3.92,27.27,27.27,0,0,0,3.26-2.58,3.82,3.82,0,0,0,1.14-2.66,2.92,2.92,0,0,0-.66-2,2.66,2.66,0,0,0-4.13.46,6.17,6.17,0,0,0-.4,2.28h-3.55a9,9,0,0,1,.86-3.83q1.45-2.78,5.18-2.77a6.56,6.56,0,0,1,4.69,1.63,5.63,5.63,0,0,1,1.74,4.31,5.82,5.82,0,0,1-1.23,3.66,12.22,12.22,0,0,1-2.65,2.37l-1.46,1c-.92.65-1.54,1.12-1.88,1.41a3.94,3.94,0,0,0-.85,1h8.09v3.21H208.94A8.78,8.78,0,0,1,209.79,506.87Z"/><path class="cls-2" d="M226.82,504.83a4.16,4.16,0,0,0,.36,1.84,2.44,2.44,0,0,0,2.41,1.34,2.67,2.67,0,0,0,1.87-.73,2.75,2.75,0,0,0,.8-2.12,2.39,2.39,0,0,0-1.48-2.44,7.48,7.48,0,0,0-2.65-.35v-2.6a7,7,0,0,0,2.47-.35,2.14,2.14,0,0,0,1.21-2.17,2.44,2.44,0,0,0-.62-1.73,2.26,2.26,0,0,0-1.74-.66,2.2,2.2,0,0,0-1.89.81,3.44,3.44,0,0,0-.58,2.19h-3.4a9.06,9.06,0,0,1,.47-2.62,5.91,5.91,0,0,1,1.4-2,5,5,0,0,1,1.7-1,7.37,7.37,0,0,1,2.41-.34,6.46,6.46,0,0,1,4.29,1.37,4.61,4.61,0,0,1,1.63,3.69,4.11,4.11,0,0,1-1,2.76,3.34,3.34,0,0,1-1.28,1,2.65,2.65,0,0,1,1.43.86,4.57,4.57,0,0,1,1.39,3.53,5.91,5.91,0,0,1-1.63,4.13A6.19,6.19,0,0,1,229.6,511q-3.93,0-5.46-2.57a7.6,7.6,0,0,1-.9-3.58Z"/><path class="cls-2" d="M240,497.12h3.87v3.82H240Zm0,9.57h3.87v3.83H240Z"/><path class="cls-2" d="M257.75,494.34a18.36,18.36,0,0,1,0,14.16q-1.42,2.47-5,2.48t-5-2.48a18.24,18.24,0,0,1,0-14.16q1.43-2.49,5-2.49T257.75,494.34Zm-7.12,12a2.11,2.11,0,0,0,2.15,1.69,2.08,2.08,0,0,0,2.13-1.69,17.93,17.93,0,0,0,.51-4.89,17.67,17.67,0,0,0-.51-5,2.06,2.06,0,0,0-2.13-1.61,2.09,2.09,0,0,0-2.15,1.61,17.59,17.59,0,0,0-.52,5A17.86,17.86,0,0,0,250.63,506.32Z"/><path class="cls-2" d="M272.18,494.34a18.24,18.24,0,0,1,0,14.16c-.95,1.65-2.6,2.48-5,2.48s-4-.83-5-2.48a18.24,18.24,0,0,1,0-14.16q1.42-2.49,5-2.49C269.58,491.85,271.23,492.68,272.18,494.34Zm-7.11,12a2.1,2.1,0,0,0,2.14,1.69,2.07,2.07,0,0,0,2.13-1.69,17.93,17.93,0,0,0,.51-4.89,17.67,17.67,0,0,0-.51-5,2,2,0,0,0-2.13-1.61,2.08,2.08,0,0,0-2.14,1.61,17.15,17.15,0,0,0-.53,5A17.41,17.41,0,0,0,265.07,506.32Z"/><path class="cls-2" d="M289.85,496.58h3.7l2.12,10,2.17-10h3.8l-4,13.94h-3.75l-2.18-10.15-2.22,10.15h-3.78l-3.91-13.94h3.91l2.17,10Z"/><path class="cls-2" d="M307.26,494.92h-3.69v-3.36h3.69Zm-3.69,1.66h3.69v13.94h-3.69Z"/><path class="cls-2" d="M309.23,499.3v-2.59h1.94v-3.89h3.6v3.89H317v2.59h-2.27v7.37a1.7,1.7,0,0,0,.22,1.07,2.42,2.42,0,0,0,1.33.21h.35l.37,0v2.73l-1.73.06c-1.72.06-2.9-.24-3.53-.9a2.65,2.65,0,0,1-.61-1.93V499.3Z"/><path class="cls-2" d="M329.26,496.66A4.07,4.07,0,0,1,331,498a3.71,3.71,0,0,1,.7,1.6,21.14,21.14,0,0,1,.12,2.7v8.19h-3.72V502a3.7,3.7,0,0,0-.38-1.82,1.91,1.91,0,0,0-1.87-1,2.56,2.56,0,0,0-2.18,1,4.4,4.4,0,0,0-.74,2.76v7.55h-3.65V491.74h3.65v6.64a4.4,4.4,0,0,1,1.82-1.69,5.14,5.14,0,0,1,2.19-.48A5.87,5.87,0,0,1,329.26,496.66Z"/><path class="cls-2" d="M350,496.26h.31V500c-.23,0-.44,0-.61-.05l-.44,0a3,3,0,0,0-2.95,1.44,5.56,5.56,0,0,0-.42,2.48v6.66h-3.67V496.58h3.47V499a8,8,0,0,1,1.47-1.9,4,4,0,0,1,2.66-.86Z"/><path class="cls-2" d="M355.14,506.07a2.41,2.41,0,0,0,.5,1.38,3.41,3.41,0,0,0,2.52.73,3.86,3.86,0,0,0,1.71-.32,1,1,0,0,0,.64-1A1,1,0,0,0,360,506a20.7,20.7,0,0,0-3.82-1.1,8.06,8.06,0,0,1-3.34-1.47,3.19,3.19,0,0,1-1-2.51,4.35,4.35,0,0,1,1.51-3.32,6.15,6.15,0,0,1,4.28-1.38,7.82,7.82,0,0,1,4.26,1,4.49,4.49,0,0,1,1.89,3.6h-3.65a2.22,2.22,0,0,0-.39-1.12,2.54,2.54,0,0,0-2.06-.74,3,3,0,0,0-1.69.37,1.07,1.07,0,0,0-.51.87,1,1,0,0,0,.54.91,23,23,0,0,0,3.8,1,7,7,0,0,1,3.27,1.55,3.53,3.53,0,0,1,1.07,2.62,4.22,4.22,0,0,1-1.54,3.38,7.3,7.3,0,0,1-4.78,1.31A7.18,7.18,0,0,1,353,509.6a4.52,4.52,0,0,1-1.57-3.53Z"/><path class="cls-2" d="M375.33,496.58h3.91l-5,13.94h-3.84l-5-13.94h4.09l2.9,10.28Z"/><path class="cls-2" d="M392.9,498.08a7.44,7.44,0,0,1,1.7,5.29,8.35,8.35,0,0,1-1.67,5.61,5.4,5.4,0,0,1-4.29,1.93,4.48,4.48,0,0,1-2.78-.83,5.33,5.33,0,0,1-1.18-1.34V516h-3.61V496.58h3.49v2.06a6,6,0,0,1,1.27-1.43,4.65,4.65,0,0,1,2.9-.94A5.54,5.54,0,0,1,392.9,498.08Zm-2.8,2.62a2.59,2.59,0,0,0-2.41-1.24,2.73,2.73,0,0,0-2.75,1.88,7,7,0,0,0-.39,2.53,4,4,0,0,0,1.3,3.41,3,3,0,0,0,1.84.58,2.64,2.64,0,0,0,2.34-1.18,5.42,5.42,0,0,0,.81-3.13A5.5,5.5,0,0,0,390.1,500.7Z"/><path class="cls-2" d="M408.35,491.1h3l-7.34,19.42h-3Z"/><path class="cls-2" d="M415.5,491.1h3l-7.34,19.42h-3Z"/><path class="cls-2" d="M431.38,491.5l.77.06v3c-.21,0-.55,0-1,0a1,1,0,0,0-1.27,1.06v1.18h2.39v2.57h-2.39v11.24h-3.62V499.28h-2.05v-2.57h2v-.9a4.74,4.74,0,0,1,.75-3.08c.53-.83,1.8-1.25,3.82-1.25Z"/><path class="cls-2" d="M438,494.92h-3.7v-3.36H438Zm-3.7,1.66H438v13.94h-3.7Z"/><path class="cls-2" d="M449.09,496.26h.31V500c-.23,0-.43,0-.61-.05l-.44,0a3,3,0,0,0-3,1.44,5.56,5.56,0,0,0-.42,2.48v6.66h-3.67V496.58h3.48V499a7.51,7.51,0,0,1,1.47-1.9,3.94,3.94,0,0,1,2.66-.86Z"/><path class="cls-2" d="M454.23,506.07a2.48,2.48,0,0,0,.5,1.38,3.45,3.45,0,0,0,2.52.73,3.94,3.94,0,0,0,1.72-.32,1.07,1.07,0,0,0,.12-1.89,20.2,20.2,0,0,0-3.81-1.1,8.11,8.11,0,0,1-3.35-1.47,3.19,3.19,0,0,1-1-2.51,4.33,4.33,0,0,1,1.52-3.32,6.11,6.11,0,0,1,4.27-1.38,7.82,7.82,0,0,1,4.26,1,4.44,4.44,0,0,1,1.89,3.6h-3.64a2.32,2.32,0,0,0-.4-1.12,2.52,2.52,0,0,0-2.05-.74,3,3,0,0,0-1.7.37,1.07,1.07,0,0,0-.51.87,1,1,0,0,0,.54.91,23.36,23.36,0,0,0,3.8,1,7,7,0,0,1,3.27,1.55,3.53,3.53,0,0,1,1.07,2.62,4.22,4.22,0,0,1-1.54,3.38A7.28,7.28,0,0,1,457,511a7.14,7.14,0,0,1-4.86-1.39,4.48,4.48,0,0,1-1.57-3.53Z"/><path class="cls-2" d="M464.41,499.3v-2.59h1.94v-3.89H470v3.89h2.27v2.59H470v7.37a1.7,1.7,0,0,0,.22,1.07,2.42,2.42,0,0,0,1.33.21h.35l.37,0v2.73l-1.73.06c-1.72.06-2.9-.24-3.53-.9a2.65,2.65,0,0,1-.61-1.93V499.3Z"/><path class="cls-2" d="M480.19,491.5l.77.06v3c-.21,0-.55,0-1,0a1,1,0,0,0-1.27,1.06v1.18h2.39v2.57h-2.39v11.24H475V499.28H473v-2.57h2v-.9a4.74,4.74,0,0,1,.75-3.08c.53-.83,1.81-1.25,3.83-1.25Z"/><path class="cls-2" d="M488.53,502a5.46,5.46,0,0,0,1.46-.32,1.1,1.1,0,0,0,.78-1,1.23,1.23,0,0,0-.6-1.19,3.91,3.91,0,0,0-1.77-.32,2.3,2.3,0,0,0-1.85.64,2.64,2.64,0,0,0-.52,1.27h-3.51a5.26,5.26,0,0,1,1-3q1.45-1.84,5-1.84a8.83,8.83,0,0,1,4.09.91,3.46,3.46,0,0,1,1.78,3.42V507c0,.44,0,1,0,1.61a2,2,0,0,0,.22,1,1.21,1.21,0,0,0,.53.42v.54h-4a3.92,3.92,0,0,1-.23-.8,8.1,8.1,0,0,1-.1-.84,7.4,7.4,0,0,1-1.75,1.39,5.21,5.21,0,0,1-2.68.68,4.61,4.61,0,0,1-3.14-1.08,3.83,3.83,0,0,1-1.24-3.06,4,4,0,0,1,2-3.72,8.92,8.92,0,0,1,3.22-.9Zm2.23,1.7a3.81,3.81,0,0,1-.7.35,5.49,5.49,0,0,1-1,.25l-.83.15a5.76,5.76,0,0,0-1.68.5,1.68,1.68,0,0,0-.86,1.55,1.63,1.63,0,0,0,.53,1.35,2,2,0,0,0,1.28.42,3.83,3.83,0,0,0,2.2-.7,2.89,2.89,0,0,0,1-2.51Z"/><path class="cls-2" d="M514.83,496.63a4.08,4.08,0,0,1,1.63,1.26,4,4,0,0,1,.79,1.79,12.75,12.75,0,0,1,.13,2.05l0,8.79h-3.73v-8.88a2.92,2.92,0,0,0-.26-1.3,1.81,1.81,0,0,0-1.79-1,2.1,2.1,0,0,0-2.08,1.25,3.88,3.88,0,0,0-.29,1.6v8.3h-3.67v-8.3a4.61,4.61,0,0,0-.26-1.8,1.78,1.78,0,0,0-1.8-1,2.15,2.15,0,0,0-2.1,1,3.81,3.81,0,0,0-.29,1.71v8.39h-3.7V496.61h3.54v2a6,6,0,0,1,1.28-1.55,4.43,4.43,0,0,1,2.75-.82,4.31,4.31,0,0,1,2.58.71,4.12,4.12,0,0,1,1.21,1.67,4.51,4.51,0,0,1,1.77-1.8,5.49,5.49,0,0,1,2.51-.58A4.79,4.79,0,0,1,514.83,496.63Z"/><path class="cls-2" d="M524.34,494.92h-3.69v-3.36h3.69Zm-3.69,1.66h3.69v13.94h-3.69Z"/><path class="cls-2" d="M531.46,510.52h-3.64V491.67h3.64Z"/><path class="cls-2" d="M535.43,513.19l.46,0a6.93,6.93,0,0,0,1,0,1.83,1.83,0,0,0,.81-.3,1.88,1.88,0,0,0,.6-.91,2.42,2.42,0,0,0,.24-.84l-5.12-14.55h4l3,10.28,2.88-10.28h3.87l-4.78,13.71a19,19,0,0,1-2.19,4.91c-.53.64-1.61,1-3.22,1h-.78l-.89,0Z"/><path class="cls-2" d="M556.71,496.8a4.53,4.53,0,0,1,1.59,1.55V491.7H562v18.82h-3.54v-1.93a5.28,5.28,0,0,1-1.78,1.8,5.05,5.05,0,0,1-2.48.56,5.19,5.19,0,0,1-4.11-2,7.61,7.61,0,0,1-1.67-5.07,8.79,8.79,0,0,1,1.64-5.62,5.36,5.36,0,0,1,4.39-2A4.53,4.53,0,0,1,556.71,496.8Zm.89,9.93a5,5,0,0,0,.81-3,4.56,4.56,0,0,0-1.3-3.65,2.73,2.73,0,0,0-1.84-.67,2.57,2.57,0,0,0-2.34,1.21,5.61,5.61,0,0,0-.75,3,5.55,5.55,0,0,0,.76,3.09,2.58,2.58,0,0,0,2.31,1.15A2.68,2.68,0,0,0,557.6,506.73Z"/><path class="cls-2" d="M573.51,501.58a3.17,3.17,0,0,0-.52-1.41,2.21,2.21,0,0,0-1.91-.84,2.51,2.51,0,0,0-2.52,1.83,7.51,7.51,0,0,0-.36,2.57,7,7,0,0,0,.36,2.47,2.42,2.42,0,0,0,2.46,1.73,2.18,2.18,0,0,0,1.82-.69,3.51,3.51,0,0,0,.65-1.79h3.72a6.2,6.2,0,0,1-1.2,3.15,5.87,5.87,0,0,1-5.08,2.39,6,6,0,0,1-5-2,9.53,9.53,0,0,1,.17-10.76,6.1,6.1,0,0,1,4.84-2,7.23,7.23,0,0,1,4.29,1.18,5.47,5.47,0,0,1,2,4.15Z"/><path class="cls-2" d="M579.55,506.69h3.87v3.83h-3.87Z"/><path class="cls-2" d="M595.09,501.58a3.18,3.18,0,0,0-.53-1.41,2.2,2.2,0,0,0-1.91-.84,2.51,2.51,0,0,0-2.52,1.83,7.51,7.51,0,0,0-.36,2.57,7,7,0,0,0,.36,2.47,2.43,2.43,0,0,0,2.46,1.73,2.17,2.17,0,0,0,1.82-.69,3.34,3.34,0,0,0,.65-1.79h3.73a6.13,6.13,0,0,1-1.21,3.15A5.85,5.85,0,0,1,592.5,511a6,6,0,0,1-5-2,8.07,8.07,0,0,1-1.59-5.18,8.22,8.22,0,0,1,1.75-5.58,6.12,6.12,0,0,1,4.84-2,7.28,7.28,0,0,1,4.3,1.18,5.43,5.43,0,0,1,2,4.15Z"/><path class="cls-2" d="M612.81,508.81a7.68,7.68,0,0,1-10.72,0,8.09,8.09,0,0,1-1.76-5.24,8.18,8.18,0,0,1,1.76-5.23,7.6,7.6,0,0,1,10.72,0,8.18,8.18,0,0,1,1.76,5.23A8.09,8.09,0,0,1,612.81,508.81Zm-2.92-2a5.3,5.3,0,0,0,.86-3.23,5.23,5.23,0,0,0-.86-3.22,3.23,3.23,0,0,0-4.91,0,5.17,5.17,0,0,0-.87,3.22,5.24,5.24,0,0,0,.87,3.23,3.23,3.23,0,0,0,4.91,0Z"/><path class="cls-2" d="M634.44,496.63a4.12,4.12,0,0,1,1.62,1.26,3.91,3.91,0,0,1,.79,1.79,11.68,11.68,0,0,1,.13,2.05l0,8.79h-3.74v-8.88a2.93,2.93,0,0,0-.25-1.3,1.82,1.82,0,0,0-1.79-1,2.11,2.11,0,0,0-2.09,1.25,4,4,0,0,0-.29,1.6v8.3h-3.67v-8.3a4.61,4.61,0,0,0-.26-1.8,1.76,1.76,0,0,0-1.8-1,2.15,2.15,0,0,0-2.1,1,4,4,0,0,0-.29,1.71v8.39H617V496.61h3.55v2a6,6,0,0,1,1.27-1.55,4.43,4.43,0,0,1,2.75-.82,4.36,4.36,0,0,1,2.59.71,4.1,4.1,0,0,1,1.2,1.67,4.53,4.53,0,0,1,1.78-1.8,5.42,5.42,0,0,1,2.5-.58A4.88,4.88,0,0,1,634.44,496.63Z"/><path class="cls-2" d="M290,39.83l-.61.39A29.62,29.62,0,0,1,286.47,27a32.47,32.47,0,0,1,1.8-11.1,32,32,0,0,1,5-9,30.83,30.83,0,0,1,7.4-6.79l.43.54a33.54,33.54,0,0,0-9.58,12.9,40,40,0,0,0-3.23,15.71,32.68,32.68,0,0,0,.56,5.77A23.83,23.83,0,0,0,290,39.83Z"/><path class="cls-2" d="M306.66,24.92a5.31,5.31,0,0,1-1.54,3.68,5.89,5.89,0,0,1-4.54,1.67,4.92,4.92,0,0,1-3.33-1,2.8,2.8,0,0,1-1.12-2.1,1.66,1.66,0,0,1,.34-1,1,1,0,0,1,.85-.43q1.17,0,1.17,1.23a4,4,0,0,1-.13.8,1.15,1.15,0,0,0-.09.36,1.06,1.06,0,0,0,.67.9,3.21,3.21,0,0,0,1.6.38,4.21,4.21,0,0,0,2.63-.92,3,3,0,0,0,1.18-2.54,10.9,10.9,0,0,0-1.66-4.42q-1.94-3.5-1.94-5.11a4.48,4.48,0,0,1,1.64-3.5,5.52,5.52,0,0,1,3.73-1.42,4.4,4.4,0,0,1,2.63.78,2.11,2.11,0,0,1,1.08,1.66c0,.76-.31,1.14-.94,1.14-.48,0-.82-.42-1-1.27A1.73,1.73,0,0,0,306,12.38a3.51,3.51,0,0,0-2.13.67,2.07,2.07,0,0,0-.91,1.75,9.1,9.1,0,0,0,1.45,4,26.82,26.82,0,0,1,1.82,3.56A7.07,7.07,0,0,1,306.66,24.92Z"/><path class="cls-2" d="M321.77,12l-.31.95h-3.23l-2.85,9.42a34.58,34.58,0,0,0-1.42,5.4,1.22,1.22,0,0,0,.22.79.81.81,0,0,0,.66.27c.52,0,1.19-.49,2-1.47a15.37,15.37,0,0,0,2.24-3.69h.95a14.93,14.93,0,0,1-3,4.91A4.69,4.69,0,0,1,314,30.27a2.18,2.18,0,0,1-1.76-.78,2.91,2.91,0,0,1-.66-2,28.76,28.76,0,0,1,1.34-5.39L315.66,13h-3L313,12h2.95l2-6.54h2.59l-2,6.54Z"/><path class="cls-2" d="M335.32,11.72h2.59l-3.85,12.64a18.33,18.33,0,0,0-.84,3.32,1,1,0,0,0,.2.66.72.72,0,0,0,.58.23c1,0,2.14-1.14,3.43-3.41h.91a11.67,11.67,0,0,1-2.41,3.53,4.34,4.34,0,0,1-2.88,1.58,1.79,1.79,0,0,1-1.55-.75,3.14,3.14,0,0,1-.54-1.86,8.3,8.3,0,0,1,.43-2.31,13.64,13.64,0,0,1-2.82,3.29,5.39,5.39,0,0,1-3.46,1.63,3.32,3.32,0,0,1-2.6-1.28,5.17,5.17,0,0,1-1.09-3.47,14.09,14.09,0,0,1,1.68-6.28,17.23,17.23,0,0,1,4.39-5.6q2.72-2.25,4.63-2.25a2.72,2.72,0,0,1,1.78.54,2.72,2.72,0,0,1,.88,1.62ZM324,26.17a4.36,4.36,0,0,0,.43,2.15,1.42,1.42,0,0,0,1.3.72c.95,0,2.09-.7,3.42-2.09a17.45,17.45,0,0,0,3.46-6.41,22.82,22.82,0,0,0,1.47-5.87,2.54,2.54,0,0,0-.47-1.54,1.53,1.53,0,0,0-1.32-.64c-1.76,0-3.58,1.74-5.46,5.2S324,24,324,26.17Z"/><path class="cls-2" d="M340.65,17.22h-.95A14.73,14.73,0,0,1,342,13.1a3.72,3.72,0,0,1,2.71-1.71,1.5,1.5,0,0,1,1.38.75,4.41,4.41,0,0,1,.45,2.25,21.41,21.41,0,0,1-1,5.35c.09-.14.33-.66.72-1.55a27.33,27.33,0,0,1,2.8-5.2,3.24,3.24,0,0,1,2.42-1.6,1.6,1.6,0,0,1,1.21.48,1.58,1.58,0,0,1,.45,1.14,1.53,1.53,0,0,1-.38,1.06,1.18,1.18,0,0,1-.89.41,1.65,1.65,0,0,1-1.19-.71.65.65,0,0,0-.48-.28c-.72,0-1.82,1.72-3.32,5.18a92.21,92.21,0,0,0-3.62,9.77L342.78,30h-2.59l3.43-11.43a19.44,19.44,0,0,0,1-4.45,2,2,0,0,0-.16-.93.52.52,0,0,0-.48-.3c-.48,0-1.07.51-1.78,1.53A11.77,11.77,0,0,0,340.65,17.22Z"/><path class="cls-2" d="M355.12,17.22h-.95a15,15,0,0,1,2.28-4.12,3.7,3.7,0,0,1,2.71-1.71,1.5,1.5,0,0,1,1.38.75,4.41,4.41,0,0,1,.45,2.25,21.41,21.41,0,0,1-1,5.35c.09-.14.32-.66.71-1.55a27.82,27.82,0,0,1,2.81-5.2,3.23,3.23,0,0,1,2.41-1.6A1.61,1.61,0,0,1,367.62,13a1.53,1.53,0,0,1-.38,1.06,1.19,1.19,0,0,1-.9.41,1.64,1.64,0,0,1-1.18-.71.65.65,0,0,0-.48-.28c-.72,0-1.83,1.72-3.32,5.18a90.24,90.24,0,0,0-3.63,9.77L357.26,30h-2.59l3.43-11.43a19.44,19.44,0,0,0,1-4.45,2,2,0,0,0-.16-.93.53.53,0,0,0-.49-.3c-.47,0-1.06.51-1.78,1.53A12.53,12.53,0,0,0,355.12,17.22Z"/><path class="cls-2" d="M375.3,24.94h1a13.19,13.19,0,0,1-2.64,3.71,4.62,4.62,0,0,1-3.14,1.62,2.51,2.51,0,0,1-1.78-.72,2.79,2.79,0,0,1-.77-2.13A16.22,16.22,0,0,1,369.21,23l2.48-6.58a13.06,13.06,0,0,0,.87-2.8.89.89,0,0,0-.21-.65.82.82,0,0,0-.61-.22c-.56,0-1.23.44-2,1.31a10,10,0,0,0-1.63,2.36h-1a12.45,12.45,0,0,1,2.7-3.71,4.48,4.48,0,0,1,2.84-1.36,2.17,2.17,0,0,1,1.66.69,2.56,2.56,0,0,1,.65,1.81,14.77,14.77,0,0,1-1.14,4.19l-2.07,5.61a15.91,15.91,0,0,0-1.15,3.82,1.47,1.47,0,0,0,.25.94.87.87,0,0,0,.72.31Q373.15,28.76,375.3,24.94ZM373.7,1.88a1.8,1.8,0,0,1,.55-1.33A1.8,1.8,0,0,1,375.58,0a1.77,1.77,0,0,1,1.32.55,1.8,1.8,0,0,1,.55,1.33,1.82,1.82,0,0,1-.55,1.33,1.83,1.83,0,0,1-2.66,0A1.86,1.86,0,0,1,373.7,1.88Z"/><path class="cls-2" d="M393.68,25.61h1.1a12.89,12.89,0,0,1-2.64,3.5,4.23,4.23,0,0,1-2.75,1.16,2.55,2.55,0,0,1-1.68-.59,2.2,2.2,0,0,1-.7-1.76,14.84,14.84,0,0,1,1-3.84l2.3-6.58a14.63,14.63,0,0,0,.93-3.5,1.51,1.51,0,0,0-.31-1.05,1.24,1.24,0,0,0-1-.35q-1.64,0-4.28,3.85a36.76,36.76,0,0,0-4.55,10.09L380.09,30h-2.64l3.8-12.25a27.54,27.54,0,0,0,1-3.89,1,1,0,0,0-.13-.54.51.51,0,0,0-.41-.17q-1.28,0-3,3.15h-1q2.7-4.9,5.12-4.9a1.54,1.54,0,0,1,1.26.51,2.38,2.38,0,0,1,.42,1.54,18.75,18.75,0,0,1-1.44,5.74q3.9-7.78,7.59-7.79a3,3,0,0,1,2.07.79,2.91,2.91,0,0,1,.89,2.3,14.4,14.4,0,0,1-.89,3.62L390.44,25a22.82,22.82,0,0,0-.92,3.1.71.71,0,0,0,.79.82,2.34,2.34,0,0,0,1.58-.83A11.81,11.81,0,0,0,393.68,25.61Z"/><path class="cls-2" d="M400.82,24.49a5.32,5.32,0,0,1-2.1-2,5.91,5.91,0,0,1-.7-3,8.11,8.11,0,0,1,2.24-5.62,6.75,6.75,0,0,1,5.07-2.47,4.93,4.93,0,0,1,1.65.28,4.07,4.07,0,0,1,1.39.87,4.23,4.23,0,0,1,2.4-1.19,1.85,1.85,0,0,1,1.27.44,1.45,1.45,0,0,1,.5,1.11c0,.69-.33,1-1,1a1.45,1.45,0,0,1-1.1-.73q-.35-.48-.69-.48t-.75.54a6.47,6.47,0,0,1,.86,3.39,7.89,7.89,0,0,1-2.18,5.89,9.12,9.12,0,0,1-5.35,2.57q-4.68.6-4.68,2.5a1.18,1.18,0,0,0,.54,1,6.91,6.91,0,0,0,2.26.76c2,.44,3.64.85,4.9,1.2a5.7,5.7,0,0,1,2.82,1.59,3.63,3.63,0,0,1,.91,2.47,4.73,4.73,0,0,1-2.24,3.86,10.55,10.55,0,0,1-6.39,1.66,12.1,12.1,0,0,1-6.08-1.27,3.69,3.69,0,0,1-2.18-3.17,3.05,3.05,0,0,1,1.06-2.36,3,3,0,0,1,1.81-1c.5,0,.76.18.76.56,0,.2-.18.48-.52.84a2.78,2.78,0,0,0-.89,1.86,3.1,3.1,0,0,0,1.43,2.48,7.19,7.19,0,0,0,4.36,1.08A8.63,8.63,0,0,0,405,38.15a3,3,0,0,0,1.63-2.53,2.11,2.11,0,0,0-1.14-1.85,19.32,19.32,0,0,0-5-1.6c-2.22-.52-3.59-1.06-4.12-1.62a2.46,2.46,0,0,1-.82-1.79,3.48,3.48,0,0,1,1.38-2.58A8.06,8.06,0,0,1,400.82,24.49Zm-.45-3a2.72,2.72,0,0,0,.68,1.94,2.2,2.2,0,0,0,1.69.73,2.91,2.91,0,0,0,2.13-.95,9.88,9.88,0,0,0,1.83-3.51,13.74,13.74,0,0,0,.9-4.38,3.9,3.9,0,0,0-.53-2.24,1.83,1.83,0,0,0-1.59-.74c-1.26,0-2.43,1-3.5,3.14A13.07,13.07,0,0,0,400.37,21.45Z"/><path class="cls-2" d="M418.15.52l.6-.39a29.6,29.6,0,0,1,3,13.23,31.81,31.81,0,0,1-3.9,15.74,30.8,30.8,0,0,1-10.26,11.12l-.43-.54a33.36,33.36,0,0,0,9.59-12.9,40.06,40.06,0,0,0,3.23-15.71,33.57,33.57,0,0,0-.56-5.77A25.28,25.28,0,0,0,418.15.52Z"/></g></g></svg>