<svg xmlns="http://www.w3.org/2000/svg" viewBox="0 0 507.34 426.89"><defs><style>.cls-1{fill:#fefaea;}.cls-2{fill:#ed1c24;}</style></defs><title>Asset 2</title><g id="Layer_2" data-name="Layer 2"><g id="Layer_1-2" data-name="Layer 1"><path class="cls-1" d="M437.36,349.48v-.7a2.71,2.71,0,0,0,1.44-.55,1.52,1.52,0,0,0,.42-1.18V336.3a1.54,1.54,0,0,0-.42-1.19,2.81,2.81,0,0,0-1.44-.54v-.7h7.24v2.43h.06a6.82,6.82,0,0,1,1.47-2,3.59,3.59,0,0,1,2.37-.83,2.35,2.35,0,0,1,1.71.64,3,3,0,0,1,0,3.76,2.27,2.27,0,0,1-1.73.72,1.81,1.81,0,0,1-.83-.16,3.17,3.17,0,0,1-.71-.48,2.34,2.34,0,0,0-.54-.38,1.28,1.28,0,0,0-.61-.13q-.93,0-.93,1.92v6.14a5,5,0,0,0,.42,2.44,2.29,2.29,0,0,0,1.76.83v.7Z"/><path class="cls-1" d="M451.16,343.72h.7a6.38,6.38,0,0,0,1.57,3.22,3.91,3.91,0,0,0,3,1.39,1.8,1.8,0,0,0,1.38-.51,1.69,1.69,0,0,0,.48-1.19,2.22,2.22,0,0,0-.79-1.6,19.85,19.85,0,0,0-2.42-1.82,20.51,20.51,0,0,1-3.13-2.48,3.54,3.54,0,0,1-1.09-2.58,4.31,4.31,0,0,1,1.41-3.45,5.69,5.69,0,0,1,3.84-1.22,11.28,11.28,0,0,1,2.88.45,5.31,5.31,0,0,0,1.18.26,1.07,1.07,0,0,0,.71-.2,1.22,1.22,0,0,0,.35-.51h.7v5h-.7a8.39,8.39,0,0,0-1.73-2.75,3.3,3.3,0,0,0-2.43-1.09c-1.07,0-1.6.52-1.6,1.54a1.59,1.59,0,0,0,.65,1.17,19.48,19.48,0,0,0,2.07,1.45c.77.47,1.4.88,1.9,1.24a10.55,10.55,0,0,1,1.48,1.26,6,6,0,0,1,1.15,1.65,4.57,4.57,0,0,1,.43,2,4.29,4.29,0,0,1-.43,1.89,5,5,0,0,1-1.19,1.56,5.93,5.93,0,0,1-1.74,1.08,5.66,5.66,0,0,1-2.08.4,6.47,6.47,0,0,1-1.66-.18,10,10,0,0,1-1.48-.53,4.59,4.59,0,0,0-1.66-.45.85.85,0,0,0-.58.2,3.39,3.39,0,0,0-.51.57h-.7Z"/><path class="cls-1" d="M474,335.4H471v10.31c0,1.23.33,1.85,1,1.85a2.11,2.11,0,0,0,1-.27,2.46,2.46,0,0,0,.83-.69l.71.71a7.66,7.66,0,0,1-2.28,1.87,5.7,5.7,0,0,1-2.75.69,3.85,3.85,0,0,1-3.1-1.2,4.71,4.71,0,0,1-1-3.16V335.4h-1.72v-1a15.55,15.55,0,0,0,2.12-1,7.62,7.62,0,0,0,1.57-1.23,9.13,9.13,0,0,0,1.25-1.6,16.88,16.88,0,0,0,1.1-2.14H471v5.44H474Z"/><path class="cls-1" d="M427,375.48a2.53,2.53,0,0,0,.18,1.16.56.56,0,0,0,.53.31.69.69,0,0,0,.41-.16.93.93,0,0,1,.52-.16c.23,0,.35.13.35.38a1.26,1.26,0,0,1-.35.77,3.66,3.66,0,0,1-1,.78,6.37,6.37,0,0,1-1.33.6,4.41,4.41,0,0,1-1.34.22,3,3,0,0,1-1.95-.58,6.56,6.56,0,0,1-1.32-1.5.42.42,0,0,0-.09-.16,10.82,10.82,0,0,1-2.48,1.63,6.13,6.13,0,0,1-2.64.61,3.47,3.47,0,0,1-2.61-1,3.67,3.67,0,0,1-1-2.67,3.38,3.38,0,0,1,.87-2.24,8.39,8.39,0,0,1,2.14-1.78,18.92,18.92,0,0,1,2.56-1.26c.85-.34,1.74-.66,2.66-1l.22-.06v-2.85a3.22,3.22,0,0,0-.41-1.79,1.61,1.61,0,0,0-1.44-.61,1.68,1.68,0,0,0-1.11.35,1.06,1.06,0,0,0-.43.86,3.2,3.2,0,0,0,.29,1.06,4.12,4.12,0,0,1,.35,1.44,1.54,1.54,0,0,1-.75,1.36,3.35,3.35,0,0,1-1.88.5,2.44,2.44,0,0,1-2.62-2.69,3.32,3.32,0,0,1,1.9-2.95,10,10,0,0,1,4.95-1.08,13.33,13.33,0,0,1,3.38.35,4.9,4.9,0,0,1,2.08,1,3.67,3.67,0,0,1,1,1.66,8.5,8.5,0,0,1,.28,2.35Zm-5.63-4.77-.38.19a6.19,6.19,0,0,0-1.81,1.23,2.91,2.91,0,0,0-.62,2.07,2.68,2.68,0,0,0,.33,1.48,1.29,1.29,0,0,0,1.17.5,1.34,1.34,0,0,0,.75-.18,2.69,2.69,0,0,0,.56-.49Z"/><path class="cls-1" d="M429,379v-.71c1.16-.19,1.73-.77,1.73-1.73V365.81c0-1-.57-1.53-1.73-1.73v-.7h7.36v1.54a8.81,8.81,0,0,1,2.13-1.56,6,6,0,0,1,2.29-.36,4.3,4.3,0,0,1,2.61.72,3.36,3.36,0,0,1,1.26,1.52,10.76,10.76,0,0,1,2.24-1.73,5.16,5.16,0,0,1,2.44-.51,4.5,4.5,0,0,1,3.21,1.15,4.88,4.88,0,0,1,1.23,3.71v8.7c0,1,.58,1.54,1.73,1.73V379h-8.57v-.71a1.6,1.6,0,0,0,.91-.56,1.9,1.9,0,0,0,.3-1.17V367.7a2.92,2.92,0,0,0-.3-1.58,1.12,1.12,0,0,0-1-.44,1.78,1.78,0,0,0-.94.24,5,5,0,0,0-.85.66v10c0,1,.4,1.6,1.22,1.73V379h-8.07v-.71c.81-.13,1.22-.7,1.22-1.73V367.7a2.82,2.82,0,0,0-.31-1.58,1.1,1.1,0,0,0-1-.44,1.81,1.81,0,0,0-.95.24,5.48,5.48,0,0,0-.85.66v10c0,1,.41,1.6,1.22,1.73V379Z"/><path class="cls-1" d="M455.78,379v-.71c1.15-.19,1.73-.77,1.73-1.73V365.81c0-1-.58-1.53-1.73-1.73v-.7h7.55v13.18c0,1,.58,1.54,1.73,1.73V379Z"/><path class="cls-1" d="M465.38,379v-.71c1.15-.19,1.73-.77,1.73-1.73V358.64c0-1-.58-1.53-1.73-1.73v-.7h7.55v20.35c0,1,.58,1.54,1.73,1.73V379Z"/><path class="cls-1" d="M484,371.7l1.82-4.54a4.83,4.83,0,0,0,.45-1.64c0-.89-.54-1.37-1.63-1.44v-.7h4.8v.7a2.82,2.82,0,0,0-1.18.87,8.72,8.72,0,0,0-1.19,2.33l-5.41,13.8a6.93,6.93,0,0,1-1.44,2.3,2.82,2.82,0,0,1-2.11.93,2.91,2.91,0,0,1-2.14-.85,2.66,2.66,0,0,1-.87-2,2.06,2.06,0,0,1,.58-1.5,2,2,0,0,1,1.5-.61,1.7,1.7,0,0,1,1.46.67,2.67,2.67,0,0,1,.49,1.63q0,.45.36.45a.53.53,0,0,0,.38-.21,2.09,2.09,0,0,0,.39-.72l1-2.43L476.07,367a10.37,10.37,0,0,0-1.07-2,2.32,2.32,0,0,0-1.39-.92v-.7h9.15v.7c-.88.07-1.31.44-1.31,1.12a3.77,3.77,0,0,0,.38,1.35l.1.25Z"/><path class="cls-1" d="M432.37,357.27a3.13,3.13,0,0,1-2.21-5.35h0a3,3,0,0,1,2.21-.92,3.14,3.14,0,1,1,0,6.27Zm-2-5.18a2.9,2.9,0,1,0,2-.84,2.8,2.8,0,0,0-2,.84Z"/><path class="cls-1" d="M460.42,361.94a3,3,0,0,1-2.21-.91,3.13,3.13,0,0,1,0-4.43h0a3,3,0,0,1,2.21-.92,3.13,3.13,0,1,1,0,6.26Zm-2-5.17a2.79,2.79,0,0,0-.84,2,2.76,2.76,0,0,0,.84,2,2.88,2.88,0,1,0,0-4.08Z"/><path class="cls-1" d="M408.74,326.72v.7a3.59,3.59,0,0,1,2.4.61,3.24,3.24,0,0,1,.67,2.4v15.36a3.24,3.24,0,0,1-.67,2.4,3.59,3.59,0,0,1-2.4.61v.7h13.05v-.7a3.59,3.59,0,0,1-2.4-.61,3.2,3.2,0,0,1-.67-2.4v-7.17h0v-1.41h0v-9.09h3.71a5.58,5.58,0,0,1,3.84,1.17,5.37,5.37,0,0,1,1.54,3.7h.7v-6.27Z"/><circle class="cls-1" cx="423.37" cy="337.78" r="2.64"/><path class="cls-1" d="M394.48,356.22v.71a3.65,3.65,0,0,1,2.4.6,3.23,3.23,0,0,1,.67,2.4V375.3a3.23,3.23,0,0,1-.67,2.4,3.65,3.65,0,0,1-2.4.6V379h13.06v-.71a3.65,3.65,0,0,1-2.4-.6,3.23,3.23,0,0,1-.67-2.4v-7.17h0v-1.41h0v-9.09h3.71A5.62,5.62,0,0,1,412,358.8a5.36,5.36,0,0,1,1.53,3.69h.71v-6.27Z"/><circle class="cls-1" cx="409.11" cy="367.29" r="2.64"/><path class="cls-1" d="M435.26,347V333.85h0l-5.8,2.33V347c0,1-.58,1.53-1.73,1.73v.7H437v-.7C435.84,348.57,435.26,348,435.26,347Z"/><polygon class="cls-1" points="434.5 332.67 427.48 335.68 427.48 336.23 433.91 336.23 433.91 337.48 435.26 337.51 435.26 332.67 434.5 332.67"/><path class="cls-1" d="M442,420.87a65.36,65.36,0,1,1,65.36-65.36A65.43,65.43,0,0,1,442,420.87Zm0-128.8a63.45,63.45,0,1,0,63.44,63.44A63.51,63.51,0,0,0,442,292.07Z"/><rect class="cls-1" x="237.8" y="236.91" width="267.2" height="1.04"/><path class="cls-2" d="M1.75,140.89H5.57q3,16.67,15,26.38a43.4,43.4,0,0,0,28,9.72q10.25,0,17.1-4.16T72.57,161a15.08,15.08,0,0,0-2.25-8.24,22.64,22.64,0,0,0-6.25-6.34,57.53,57.53,0,0,0-8.68-4.94q-4.7-2.17-12.15-5.12-9.74-4-16.23-7.12a62.88,62.88,0,0,1-12.24-7.73,34.75,34.75,0,0,1-9.2-11.28A33.55,33.55,0,0,1,2.1,94.54,33.89,33.89,0,0,1,6,78.14,34.39,34.39,0,0,1,16.59,66.25a48.89,48.89,0,0,1,15-7,63.2,63.2,0,0,1,17.18-2.34A57.17,57.17,0,0,1,64,58.61a88.29,88.29,0,0,1,12.93,4.86q5.9,2.77,8.33,2.78a5.15,5.15,0,0,0,4.17-1.65Q90.79,63,91,59h3.82v36.8H91q-3.3-14.58-14.14-22.92T50.7,64.51q-8.85,0-14.32,4c-3.64,2.67-5.47,6.54-5.47,11.64A11.82,11.82,0,0,0,33,87a19.83,19.83,0,0,0,5.9,5.47q4.86,3.12,18.57,8.16,10.07,3.81,16.66,6.85a63.37,63.37,0,0,1,12.59,7.73A35,35,0,0,1,96.35,127,36.52,36.52,0,0,1,100,143.84a44.09,44.09,0,0,1-3.56,18.4,33.12,33.12,0,0,1-10,12.76,42.79,42.79,0,0,1-15.1,7.29,74,74,0,0,1-19.27,2.34,72.48,72.48,0,0,1-14.15-1.47q-7.38-1.49-16.4-4.08a53.26,53.26,0,0,0-7.81-1.74,8,8,0,0,0-5,1.74,9,9,0,0,0-3.13,4.16H1.75Z"/><path class="cls-2" d="M159.71,171.79a64.61,64.61,0,0,1-12.24,9.8q-5.29,3-13.28,3-10.75,0-17.44-6.25t-6.68-20.13V111q0-7.82-9.38-9.37V97.84h39.93V157c0,4.75.49,8.1,1.47,10.07s2.75,3,5.29,3a10.78,10.78,0,0,0,6.34-2,18.9,18.9,0,0,0,4.95-5.12V111c0-2.77-.55-4.89-1.65-6.33a8.76,8.76,0,0,0-5-3V97.84h38.19v71.52q0,7.8,9.37,9.37v3.82H159.71Z"/><path class="cls-2" d="M239.21,108.6a65.13,65.13,0,0,1,12.24-9.81q5.3-3,13.28-3,10.75,0,17.44,6.25t6.68,20.13v47.22q0,7.8,9.38,9.37v3.82H251.71v-3.82a8.73,8.73,0,0,0,4.94-3c1.1-1.44,1.65-3.56,1.65-6.33v-46c0-4.75-.46-8.1-1.39-10.07s-2.72-3-5.38-3a10.9,10.9,0,0,0-6.33,2,19.09,19.09,0,0,0-4.95,5.13v51.9c0,2.77.55,4.89,1.65,6.33a8.76,8.76,0,0,0,4.95,3v3.82H199.29v-3.82q9.36-1.56,9.37-9.37V111q0-7.82-9.37-9.37V97.84h39.92Z"/><path class="cls-2" d="M301.7,151.3h3.81A34.7,34.7,0,0,0,314,168.75a21.34,21.34,0,0,0,16.49,7.55q4.86,0,7.46-2.78a9.09,9.09,0,0,0,2.61-6.42q0-4.69-4.26-8.68a105.25,105.25,0,0,0-13.1-9.89,111.52,111.52,0,0,1-17-13.46,19.26,19.26,0,0,1-5.9-14q0-12.15,7.63-18.75t20.83-6.59a61.47,61.47,0,0,1,15.63,2.43,28.07,28.07,0,0,0,6.42,1.39,5.77,5.77,0,0,0,3.82-1,7,7,0,0,0,1.91-2.77h3.82v27.08h-3.82a45.62,45.62,0,0,0-9.38-14.93A17.89,17.89,0,0,0,334,102q-8.69,0-8.68,8.33,0,3.3,3.56,6.33a104.44,104.44,0,0,0,11.2,7.9q6.24,3.83,10.32,6.69a56.44,56.44,0,0,1,8,6.85,32.76,32.76,0,0,1,6.25,8.94A25.07,25.07,0,0,1,367,157.9a23.3,23.3,0,0,1-2.34,10.24,27.21,27.21,0,0,1-6.42,8.51,32,32,0,0,1-9.46,5.81,29.85,29.85,0,0,1-11.29,2.17,36.56,36.56,0,0,1-9-.95,53.68,53.68,0,0,1-8-2.87q-5.73-2.43-9-2.43a4.65,4.65,0,0,0-3.13,1,20.7,20.7,0,0,0-2.78,3.13H301.7Z"/><path class="cls-2" d="M399.42,137.76a43.32,43.32,0,0,0,2.26,11.81,37.86,37.86,0,0,0,5,9.89,25.09,25.09,0,0,0,7,6.77,15.37,15.37,0,0,0,8.25,2.43,18.15,18.15,0,0,0,11.54-3.73,31.79,31.79,0,0,0,8.24-10.16l4.87,2.09q-5.22,13-15.11,20.39t-24.47,7.38a33.25,33.25,0,0,1-15.54-3.73A39.62,39.62,0,0,1,379,170.74a49.43,49.43,0,0,1-8.25-14.4,45.65,45.65,0,0,1,0-32.29A49.61,49.61,0,0,1,379,109.64a39.72,39.72,0,0,1,12.49-10.15,33.25,33.25,0,0,1,15.54-3.73,41.14,41.14,0,0,1,17.62,3.47,33.55,33.55,0,0,1,12.15,9.46,38.8,38.8,0,0,1,6.94,13.45,55.61,55.61,0,0,1,2.17,15.62Zm19.44-6.24q0-16.5-2.51-23T409.14,102q-4.68,0-7.2,6.51t-2.52,23Z"/><path class="cls-2" d="M503.22,106.17H486.56v55.9q0,10.06,5.38,10.06a11.49,11.49,0,0,0,5.38-1.47,13.73,13.73,0,0,0,4.51-3.73l3.82,3.81a42,42,0,0,1-12.32,10.16,31,31,0,0,1-14.93,3.73q-11.29,0-16.84-6.51T456,161V106.17h-9.38V101a87.27,87.27,0,0,0,11.55-5.65,42.08,42.08,0,0,0,8.5-6.68A50.55,50.55,0,0,0,473.45,80a90.88,90.88,0,0,0,6-11.63h7.12V97.84h16.66Z"/><path class="cls-1" d="M0,.11H10.63V2.73H3.09V6.16H9.7V8.75H3.09V15H0Z"/><path class="cls-1" d="M15.59,2.66H12.67V0h2.92ZM12.67,4h2.92V15H12.67Z"/><path class="cls-1" d="M24.71,3.72H25v3a4.79,4.79,0,0,0-.49-.05h-.34a2.39,2.39,0,0,0-2.34,1.14,4.44,4.44,0,0,0-.33,2V15h-2.9V4h2.75V5.9a5.93,5.93,0,0,1,1.16-1.51,3.18,3.18,0,0,1,2.11-.68Z"/><path class="cls-1" d="M29.09,11.48a1.85,1.85,0,0,0,.4,1.09,2.66,2.66,0,0,0,2,.58,3.21,3.21,0,0,0,1.36-.25.85.85,0,0,0,.09-1.5,16.16,16.16,0,0,0-3-.87,6.35,6.35,0,0,1-2.65-1.16,2.54,2.54,0,0,1-.77-2,3.44,3.44,0,0,1,1.2-2.62,4.84,4.84,0,0,1,3.38-1.1,6.18,6.18,0,0,1,3.37.83A3.52,3.52,0,0,1,36,7.33H33.07a1.71,1.71,0,0,0-.32-.88,2,2,0,0,0-1.62-.58,2.27,2.27,0,0,0-1.34.29.82.82,0,0,0-.4.69.76.76,0,0,0,.42.72,18.59,18.59,0,0,0,3,.79A5.46,5.46,0,0,1,35.4,9.59a2.75,2.75,0,0,1,.85,2.07A3.34,3.34,0,0,1,35,14.34a5.73,5.73,0,0,1-3.77,1,5.71,5.71,0,0,1-3.85-1.09,3.58,3.58,0,0,1-1.24-2.8Z"/><path class="cls-1" d="M37.45,6.13v-2H39V1h2.85V4.08h1.79V6.13H41.84V12a1.35,1.35,0,0,0,.17.85,1.92,1.92,0,0,0,1.05.17h.57V15.1l-1.37.05a3.65,3.65,0,0,1-2.79-.71A2.12,2.12,0,0,1,39,12.92V6.13Z"/><path class="cls-1" d="M51.88.11H62.51V2.73H55V6.16h6.6V8.75H55V15h-3.1Z"/><path class="cls-1" d="M68.88,8.29A4.36,4.36,0,0,0,70,8a.87.87,0,0,0,.62-.82,1,1,0,0,0-.48-.93A2.91,2.91,0,0,0,68.77,6a1.84,1.84,0,0,0-1.46.5,2,2,0,0,0-.41,1H64.11a4.29,4.29,0,0,1,.82-2.37c.76-1,2.08-1.46,3.94-1.46a7,7,0,0,1,3.23.72,2.75,2.75,0,0,1,1.41,2.71V12.2c0,.35,0,.77,0,1.27a1.64,1.64,0,0,0,.17.77,1,1,0,0,0,.43.33V15H71a2.75,2.75,0,0,1-.18-.63c0-.19-.06-.42-.08-.67a6,6,0,0,1-1.38,1.11,4.28,4.28,0,0,1-2.12.53,3.67,3.67,0,0,1-2.49-.85,3.06,3.06,0,0,1-1-2.42,3.15,3.15,0,0,1,1.58-3,7.27,7.27,0,0,1,2.55-.71Zm1.76,1.35a3.66,3.66,0,0,1-.56.28,5.07,5.07,0,0,1-.77.19l-.66.13a4,4,0,0,0-1.33.39,1.32,1.32,0,0,0-.68,1.22,1.27,1.27,0,0,0,.42,1.07,1.57,1.57,0,0,0,1,.33,3,3,0,0,0,1.74-.55,2.31,2.31,0,0,0,.83-2Z"/><path class="cls-1" d="M90,4a3.19,3.19,0,0,1,1.91,2.4A9.59,9.59,0,0,1,92,8.05l0,7H89V8a2.36,2.36,0,0,0-.2-1,1.45,1.45,0,0,0-1.42-.77,1.67,1.67,0,0,0-1.65,1,3.19,3.19,0,0,0-.23,1.26V15h-2.9V8.43A3.78,3.78,0,0,0,82.43,7,1.43,1.43,0,0,0,81,6.21a1.71,1.71,0,0,0-1.66.8,3.12,3.12,0,0,0-.23,1.35V15H76.19V4H79V5.6a4.43,4.43,0,0,1,1-1.22,4,4,0,0,1,4.22-.09,3.3,3.3,0,0,1,1,1.32,3.61,3.61,0,0,1,1.4-1.42,4.25,4.25,0,0,1,2-.46A3.82,3.82,0,0,1,90,4Z"/><path class="cls-1" d="M97.82,2.66H94.9V0h2.92ZM94.9,4h2.92V15H94.9Z"/><path class="cls-1" d="M103.77,15h-2.89V.09h2.89Z"/><path class="cls-1" d="M107.22,17.11l.36,0a3.57,3.57,0,0,0,.81,0,1.44,1.44,0,0,0,.65-.23,1.53,1.53,0,0,0,.47-.72,1.82,1.82,0,0,0,.19-.67L105.65,4h3.2l2.41,8.14L113.53,4h3.07l-3.78,10.85a15.63,15.63,0,0,1-1.73,3.89,3.31,3.31,0,0,1-2.55.75h-.62l-.7,0Z"/><path class="cls-1" d="M134.71,8.55A5.73,5.73,0,0,1,131,9.64h-3.1V15h-3.09V.09h6.4a5.22,5.22,0,0,1,3.53,1.15A4.53,4.53,0,0,1,136,4.81,4.62,4.62,0,0,1,134.71,8.55Zm-2.37-5.37a2.53,2.53,0,0,0-1.66-.5h-2.81V7.07h2.81a2.39,2.39,0,0,0,1.66-.54,2.19,2.19,0,0,0,.59-1.7A2.06,2.06,0,0,0,132.34,3.18Z"/><path class="cls-1" d="M144.62,3.72h.25v3c-.19,0-.35,0-.49-.05H144a2.39,2.39,0,0,0-2.34,1.14,4.44,4.44,0,0,0-.33,2V15h-2.91V4h2.76V5.9a5.93,5.93,0,0,1,1.16-1.51,3.17,3.17,0,0,1,2.1-.68Z"/><path class="cls-1" d="M154,4.2a4.45,4.45,0,0,1,1.9,1.63,5.34,5.34,0,0,1,.88,2.28,13.18,13.18,0,0,1,.09,2.19h-8A2.61,2.61,0,0,0,150,12.62a2.9,2.9,0,0,0,1.59.42,2.44,2.44,0,0,0,1.6-.51,2.36,2.36,0,0,0,.59-.76h2.94a3.53,3.53,0,0,1-1.06,2,5.34,5.34,0,0,1-4.15,1.61A6,6,0,0,1,147.58,14a5.34,5.34,0,0,1-1.69-4.42,6,6,0,0,1,1.52-4.39,5.31,5.31,0,0,1,3.94-1.53A6.22,6.22,0,0,1,154,4.2Zm-4.32,2.49a3,3,0,0,0-.76,1.7h5a2.41,2.41,0,0,0-.77-1.74,2.51,2.51,0,0,0-1.7-.59A2.31,2.31,0,0,0,149.63,6.69Z"/><path class="cls-1" d="M160.72,11.48a2,2,0,0,0,.4,1.09,2.66,2.66,0,0,0,2,.58,3.21,3.21,0,0,0,1.36-.25.83.83,0,0,0,.5-.76.81.81,0,0,0-.4-.74,16.39,16.39,0,0,0-3-.87,6.41,6.41,0,0,1-2.65-1.16,2.53,2.53,0,0,1-.76-2,3.44,3.44,0,0,1,1.2-2.62,4.82,4.82,0,0,1,3.38-1.1,6.21,6.21,0,0,1,3.37.83,3.51,3.51,0,0,1,1.49,2.84H164.7a1.8,1.8,0,0,0-.31-.88,2,2,0,0,0-1.63-.58,2.29,2.29,0,0,0-1.34.29.82.82,0,0,0-.4.69.76.76,0,0,0,.42.72,18.94,18.94,0,0,0,3,.79A5.55,5.55,0,0,1,167,9.59a2.79,2.79,0,0,1,.85,2.07,3.35,3.35,0,0,1-1.23,2.68,7.38,7.38,0,0,1-7.62-.06,3.61,3.61,0,0,1-1.24-2.8Z"/><path class="cls-1" d="M177.4,4.2a4.53,4.53,0,0,1,1.91,1.63,5.33,5.33,0,0,1,.87,2.28,14.12,14.12,0,0,1,.1,2.19h-8a2.63,2.63,0,0,0,1.15,2.32A2.9,2.9,0,0,0,175,13a2.42,2.42,0,0,0,1.6-.51,2.38,2.38,0,0,0,.6-.76h2.94a3.61,3.61,0,0,1-1.07,2,5.34,5.34,0,0,1-4.15,1.61A6,6,0,0,1,171,14a5.37,5.37,0,0,1-1.68-4.42,5.93,5.93,0,0,1,1.52-4.39,5.3,5.3,0,0,1,3.94-1.53A6.18,6.18,0,0,1,177.4,4.2Zm-4.31,2.49a3,3,0,0,0-.77,1.7h5a2.45,2.45,0,0,0-.77-1.74,2.56,2.56,0,0,0-1.71-.59A2.29,2.29,0,0,0,173.09,6.69Z"/><path class="cls-1" d="M190.83,4.61a3.64,3.64,0,0,1,1.09,3V15h-3V8.29A3,3,0,0,0,188.73,7a1.62,1.62,0,0,0-1.61-.85,2,2,0,0,0-2,1.24A4.27,4.27,0,0,0,184.85,9v6H182V4h2.79V5.6a5,5,0,0,1,1.05-1.22,3.6,3.6,0,0,1,2.25-.67A4.2,4.2,0,0,1,190.83,4.61Z"/><path class="cls-1" d="M193.67,6.13v-2h1.54V1h2.85V4.08h1.79V6.13h-1.79V12a1.35,1.35,0,0,0,.17.85,1.92,1.92,0,0,0,1.05.17h.57V15.1l-1.37.05a3.65,3.65,0,0,1-2.79-.71,2.12,2.12,0,0,1-.48-1.52V6.13Z"/><path class="cls-1" d="M204.14,11.48a1.92,1.92,0,0,0,.4,1.09,2.66,2.66,0,0,0,2,.58,3.21,3.21,0,0,0,1.36-.25.83.83,0,0,0,.5-.76.81.81,0,0,0-.4-.74,16.68,16.68,0,0,0-3-.87,6.35,6.35,0,0,1-2.65-1.16,2.54,2.54,0,0,1-.77-2,3.44,3.44,0,0,1,1.2-2.62,4.86,4.86,0,0,1,3.38-1.1,6.18,6.18,0,0,1,3.37.83A3.52,3.52,0,0,1,211,7.33h-2.88a1.71,1.71,0,0,0-.32-.88,2,2,0,0,0-1.62-.58,2.27,2.27,0,0,0-1.34.29.82.82,0,0,0-.4.69.76.76,0,0,0,.42.72,18.94,18.94,0,0,0,3,.79,5.46,5.46,0,0,1,2.58,1.23,2.75,2.75,0,0,1,.85,2.07,3.34,3.34,0,0,1-1.22,2.68,7.38,7.38,0,0,1-7.62-.06,3.58,3.58,0,0,1-1.24-2.8Z"/><path class="cls-1" d="M3,239.39a3,3,0,0,0,.57,1.52,3.3,3.3,0,0,0,2.66.93A5.7,5.7,0,0,0,8,241.59a1.74,1.74,0,0,0,1.34-1.73,1.27,1.27,0,0,0-.66-1.14,7,7,0,0,0-2.07-.7L5,237.67a10,10,0,0,1-3.27-1.14A3.64,3.64,0,0,1,.24,233.3,4.27,4.27,0,0,1,1.72,230a6.28,6.28,0,0,1,4.33-1.32,6.61,6.61,0,0,1,4.07,1.25,4.42,4.42,0,0,1,1.76,3.62h-3a2.16,2.16,0,0,0-1.2-1.91,4.14,4.14,0,0,0-1.86-.37,3.57,3.57,0,0,0-2,.48,1.55,1.55,0,0,0-.73,1.36,1.27,1.27,0,0,0,.72,1.19,8.9,8.9,0,0,0,2,.62l2.62.61A6.64,6.64,0,0,1,11,236.59a3.66,3.66,0,0,1,1.33,3A4.28,4.28,0,0,1,10.78,243a6.66,6.66,0,0,1-4.46,1.35A7.25,7.25,0,0,1,1.69,243,4.37,4.37,0,0,1,0,239.39Z"/><path class="cls-1" d="M18.88,237.28A4.46,4.46,0,0,0,20,237a.87.87,0,0,0,.62-.82,1,1,0,0,0-.48-.93,2.91,2.91,0,0,0-1.4-.26,1.84,1.84,0,0,0-1.46.5,2,2,0,0,0-.41,1H14.12a4.22,4.22,0,0,1,.82-2.38c.76-1,2.08-1.46,3.94-1.46a7,7,0,0,1,3.23.72,2.75,2.75,0,0,1,1.41,2.71v5.06c0,.35,0,.77,0,1.27a1.64,1.64,0,0,0,.17.77,1,1,0,0,0,.43.33V244H21a2.75,2.75,0,0,1-.18-.63c0-.19-.06-.42-.08-.67a5.81,5.81,0,0,1-1.39,1.11,4.21,4.21,0,0,1-2.11.53,3.65,3.65,0,0,1-2.49-.85,3.06,3.06,0,0,1-1-2.42,3.15,3.15,0,0,1,1.58-2.95,7.08,7.08,0,0,1,2.55-.7Zm1.77,1.35a3.66,3.66,0,0,1-.56.28,4.94,4.94,0,0,1-.78.19l-.65.13a4.27,4.27,0,0,0-1.33.39,1.32,1.32,0,0,0-.68,1.22,1.27,1.27,0,0,0,.42,1.07,1.57,1.57,0,0,0,1,.33,3,3,0,0,0,1.74-.55,2.3,2.3,0,0,0,.83-2Z"/><path class="cls-1" d="M25.11,235.12v-2.05h1.54V230H29.5v3.08h1.79v2.05H29.5V241a1.33,1.33,0,0,0,.17.84,1.94,1.94,0,0,0,1.06.17h.56v2.15l-1.36,0a3.66,3.66,0,0,1-2.8-.71,2.12,2.12,0,0,1-.48-1.52v-6.79Z"/><path class="cls-1" d="M36.22,233v6.64a3.66,3.66,0,0,0,.22,1.42,1.53,1.53,0,0,0,1.54.84,2,2,0,0,0,2-1.2,4.48,4.48,0,0,0,.28-1.71v-6H43.2v11H40.4v-1.56a3.55,3.55,0,0,0-.2.31,2.32,2.32,0,0,1-.39.44,4.09,4.09,0,0,1-1.3.83,4.39,4.39,0,0,1-1.48.22,3.29,3.29,0,0,1-3.29-1.76,6.82,6.82,0,0,1-.47-2.86V233Z"/><path class="cls-1" d="M52.33,232.71h.25v3a4.64,4.64,0,0,0-.48,0h-.35a2.36,2.36,0,0,0-2.33,1.13,4.28,4.28,0,0,0-.34,2V244h-2.9V233h2.75v1.92a5.93,5.93,0,0,1,1.16-1.51,3.18,3.18,0,0,1,2.11-.68Z"/><path class="cls-1" d="M60.32,233.14a3.62,3.62,0,0,1,1.27,1.22V229.1h2.92V244h-2.8v-1.53a3.56,3.56,0,0,1-3.37,1.87,4.09,4.09,0,0,1-3.25-1.56,6,6,0,0,1-1.32-4,6.89,6.89,0,0,1,1.3-4.44,4.21,4.21,0,0,1,3.47-1.62A3.59,3.59,0,0,1,60.32,233.14ZM61,241a4,4,0,0,0,.64-2.36,3.61,3.61,0,0,0-1-2.89,2.22,2.22,0,0,0-1.46-.53,2,2,0,0,0-1.86,1,4.43,4.43,0,0,0-.59,2.37,4.38,4.38,0,0,0,.6,2.44,2.05,2.05,0,0,0,1.83.92A2.13,2.13,0,0,0,61,241Z"/><path class="cls-1" d="M71.7,237.28a4.27,4.27,0,0,0,1.15-.25.87.87,0,0,0,.63-.82,1,1,0,0,0-.48-.93,2.93,2.93,0,0,0-1.4-.26,1.88,1.88,0,0,0-1.47.5,2.17,2.17,0,0,0-.41,1H66.94a4.21,4.21,0,0,1,.81-2.38c.77-1,2.08-1.46,4-1.46a7,7,0,0,1,3.23.72,2.75,2.75,0,0,1,1.41,2.71v5.06c0,.35,0,.77,0,1.27a1.64,1.64,0,0,0,.17.77.94.94,0,0,0,.42.33V244H73.82a2.75,2.75,0,0,1-.18-.63,5.61,5.61,0,0,1-.08-.67,6,6,0,0,1-1.39,1.11,4.24,4.24,0,0,1-2.11.53,3.64,3.64,0,0,1-2.49-.85,3,3,0,0,1-1-2.42,3.14,3.14,0,0,1,1.58-2.95,7,7,0,0,1,2.54-.7Zm1.77,1.35a4.18,4.18,0,0,1-.56.28,4.94,4.94,0,0,1-.78.19l-.65.13a4.27,4.27,0,0,0-1.33.39,1.32,1.32,0,0,0-.68,1.22,1.27,1.27,0,0,0,.42,1.07,1.55,1.55,0,0,0,1,.33,3,3,0,0,0,1.74-.55,2.32,2.32,0,0,0,.83-2Z"/><path class="cls-1" d="M79.5,246.1l.36,0a3.6,3.6,0,0,0,.81,0,1.44,1.44,0,0,0,.65-.23,1.53,1.53,0,0,0,.47-.72,1.82,1.82,0,0,0,.19-.67l-4-11.5h3.2l2.41,8.13L85.81,233h3.07L85.1,243.81a15.63,15.63,0,0,1-1.73,3.89,3.33,3.33,0,0,1-2.56.75H80.2l-.7,0Z"/><path class="cls-1" d="M89.11,246.39a2.33,2.33,0,0,0,1.28-.81,3,3,0,0,0,.47-1.59H89.11v-3h3.12v2.61A5.71,5.71,0,0,1,92,245a2.94,2.94,0,0,1-.67,1.3,3.55,3.55,0,0,1-1.26.88,3.34,3.34,0,0,1-1,.3Z"/><path class="cls-1" d="M104.92,229.08h3.53L113.72,244h-3.38l-1-3.07h-5.49l-1,3.07H99.6Zm-.2,9.28h3.82l-1.89-5.87Z"/><path class="cls-1" d="M118.47,233v6.64a3.48,3.48,0,0,0,.22,1.42,1.53,1.53,0,0,0,1.54.84,2,2,0,0,0,2-1.2,4.3,4.3,0,0,0,.28-1.71v-6h2.92v11h-2.8v-1.56l-.2.31a2.27,2.27,0,0,1-.38.44,4.12,4.12,0,0,1-1.31.83,4.39,4.39,0,0,1-1.48.22,3.27,3.27,0,0,1-3.28-1.76,6.65,6.65,0,0,1-.48-2.86V233Z"/><path class="cls-1" d="M133.91,233a3.45,3.45,0,0,1,1.69,1.59V233h2.81v10.45a5.85,5.85,0,0,1-.71,3.22c-.83,1.24-2.4,1.86-4.74,1.86a6.48,6.48,0,0,1-3.45-.83,3,3,0,0,1-1.47-2.48h3.13a1.31,1.31,0,0,0,.4.73,2.45,2.45,0,0,0,1.57.4,2.1,2.1,0,0,0,2.08-1,5.24,5.24,0,0,0,.34-2.24v-.71a3.33,3.33,0,0,1-.89,1.06,3.56,3.56,0,0,1-2.23.66,4.26,4.26,0,0,1-3.4-1.49,6.07,6.07,0,0,1-1.26-4,6.76,6.76,0,0,1,1.22-4.13,4,4,0,0,1,3.46-1.68A3.79,3.79,0,0,1,133.91,233Zm1,7.9a3.56,3.56,0,0,0,.69-2.43,3.74,3.74,0,0,0-.66-2.39,2.14,2.14,0,0,0-1.76-.82,2.09,2.09,0,0,0-2.09,1.43,5.09,5.09,0,0,0-.3,1.87,4.38,4.38,0,0,0,.32,1.71,2.1,2.1,0,0,0,2.1,1.39A2.21,2.21,0,0,0,134.89,240.86Z"/><path class="cls-1" d="M144.18,233v6.64a3.45,3.45,0,0,0,.23,1.42,1.53,1.53,0,0,0,1.54.84,2,2,0,0,0,2-1.2,4.3,4.3,0,0,0,.28-1.71v-6h2.92v11h-2.8v-1.56l-.2.31a2.67,2.67,0,0,1-.38.44,4.12,4.12,0,0,1-1.31.83,4.39,4.39,0,0,1-1.48.22,3.27,3.27,0,0,1-3.28-1.76,6.65,6.65,0,0,1-.48-2.86V233Z"/><path class="cls-1" d="M156.41,240.47a1.92,1.92,0,0,0,.39,1.09,2.67,2.67,0,0,0,2,.58,3.17,3.17,0,0,0,1.36-.25.85.85,0,0,0,.1-1.5,16.39,16.39,0,0,0-3-.87,6.29,6.29,0,0,1-2.64-1.16,2.51,2.51,0,0,1-.77-2,3.44,3.44,0,0,1,1.2-2.62,4.84,4.84,0,0,1,3.38-1.1,6.21,6.21,0,0,1,3.37.83,3.48,3.48,0,0,1,1.49,2.84h-2.88a1.7,1.7,0,0,0-.31-.88,2,2,0,0,0-1.63-.58,2.32,2.32,0,0,0-1.34.29.84.84,0,0,0-.4.69.75.75,0,0,0,.43.72,18.26,18.26,0,0,0,3,.79,5.55,5.55,0,0,1,2.58,1.23,2.79,2.79,0,0,1,.85,2.07,3.37,3.37,0,0,1-1.22,2.68,5.78,5.78,0,0,1-3.78,1,5.66,5.66,0,0,1-3.84-1.09,3.59,3.59,0,0,1-1.25-2.8Z"/><path class="cls-1" d="M164.77,235.12v-2.05h1.53V230h2.85v3.08h1.79v2.05h-1.79V241q0,.68.18.84a1.87,1.87,0,0,0,1,.17h.56v2.15l-1.36,0a3.65,3.65,0,0,1-2.79-.71,2.07,2.07,0,0,1-.49-1.52v-6.79Z"/><path class="cls-1" d="M178.94,241.11a8.23,8.23,0,0,1,2.92-3.11,21.3,21.3,0,0,0,2.58-2,3,3,0,0,0,.9-2.1,2.36,2.36,0,0,0-.52-1.55,2.1,2.1,0,0,0-3.27.36,4.86,4.86,0,0,0-.32,1.8h-2.8a7.06,7.06,0,0,1,.68-3,4.23,4.23,0,0,1,4.1-2.2,5.19,5.19,0,0,1,3.7,1.29,4.46,4.46,0,0,1,1.38,3.42,4.6,4.6,0,0,1-1,2.89,9.94,9.94,0,0,1-2.1,1.87l-1.16.82c-.72.51-1.21.88-1.48,1.11a3.21,3.21,0,0,0-.67.8h6.4V244h-10A6.85,6.85,0,0,1,178.94,241.11Z"/><path class="cls-1" d="M192.76,240.07a2.88,2.88,0,0,0,.66,1.45,1.84,1.84,0,0,0,1.41.51,1.88,1.88,0,0,0,1.63-.76,3,3,0,0,0,.56-1.89,3.31,3.31,0,0,0-.52-1.9,1.86,1.86,0,0,0-1.64-.77,2.67,2.67,0,0,0-.9.13,1.74,1.74,0,0,0-1,.9l-2.59-.12,1-8.1h8.07V232h-6l-.52,3.21a6.28,6.28,0,0,1,1-.58,4.46,4.46,0,0,1,1.52-.23,4.6,4.6,0,0,1,3.17,1.22,4.55,4.55,0,0,1,1.36,3.56,5.61,5.61,0,0,1-1.31,3.64,4.75,4.75,0,0,1-3.9,1.59,5.15,5.15,0,0,1-3.43-1.12,4.35,4.35,0,0,1-1.5-3.18Z"/><path class="cls-1" d="M201.29,235.12v-2.05h1.53V230h2.85v3.08h1.8v2.05h-1.8V241q0,.68.18.84a1.87,1.87,0,0,0,1.05.17h.57v2.15l-1.37,0a3.65,3.65,0,0,1-2.79-.71,2.07,2.07,0,0,1-.49-1.52v-6.79Z"/><path class="cls-1" d="M217.45,233a3.18,3.18,0,0,1,1.36,1.08,2.79,2.79,0,0,1,.55,1.27,15.37,15.37,0,0,1,.1,2.13V244h-2.94v-6.71a3,3,0,0,0-.3-1.44,1.52,1.52,0,0,0-1.49-.77,2,2,0,0,0-1.72.76,3.55,3.55,0,0,0-.58,2.19v6h-2.89V229.13h2.89v5.26a3.45,3.45,0,0,1,1.44-1.34,4.12,4.12,0,0,1,1.73-.38A4.63,4.63,0,0,1,217.45,233Z"/><path class="cls-1" d="M12.2,292.91v2.64H7.74v12.27H4.6V295.55H.12v-2.64Z"/><path class="cls-1" d="M19.65,297a4.45,4.45,0,0,1,1.9,1.63,5.21,5.21,0,0,1,.88,2.28,14.19,14.19,0,0,1,.1,2.19h-8a2.63,2.63,0,0,0,1.15,2.32,2.9,2.9,0,0,0,1.59.42,2.42,2.42,0,0,0,1.6-.51,2.36,2.36,0,0,0,.59-.76h2.95a3.67,3.67,0,0,1-1.07,2,5.37,5.37,0,0,1-4.15,1.6,6,6,0,0,1-3.88-1.35,5.37,5.37,0,0,1-1.68-4.42A6,6,0,0,1,13.11,298a5.34,5.34,0,0,1,3.95-1.53A6.18,6.18,0,0,1,19.65,297Zm-4.31,2.49a3,3,0,0,0-.77,1.71h5a2.41,2.41,0,0,0-.76-1.75,2.56,2.56,0,0,0-1.71-.59A2.27,2.27,0,0,0,15.34,299.51Z"/><path class="cls-1" d="M33.08,297.43a3.64,3.64,0,0,1,1.08,3v7.42H31.21v-6.71a3.11,3.11,0,0,0-.23-1.33,1.62,1.62,0,0,0-1.61-.85,2,2,0,0,0-2,1.24,4.26,4.26,0,0,0-.29,1.68v6H24.21v-11H27v1.6a5,5,0,0,1,1.05-1.22,3.67,3.67,0,0,1,2.25-.67A4.2,4.2,0,0,1,33.08,297.43Z"/><path class="cls-1" d="M54.08,292.91v2.64H49.62v12.27H46.48V295.55H42v-2.64Z"/><path class="cls-1" d="M58.47,295.48H55.55v-2.66h2.92Zm-2.92,1.32h2.92v11H55.55Z"/><path class="cls-1" d="M66.92,296.79a3.47,3.47,0,0,1,1.7,1.59V296.8h2.81v10.45a5.84,5.84,0,0,1-.72,3.22q-1.23,1.86-4.73,1.86a6.48,6.48,0,0,1-3.45-.83A3,3,0,0,1,61.06,309h3.13a1.25,1.25,0,0,0,.4.73,2.44,2.44,0,0,0,1.56.4,2.11,2.11,0,0,0,2.09-1,5.24,5.24,0,0,0,.34-2.24v-.71a3.46,3.46,0,0,1-.89,1.06,3.56,3.56,0,0,1-2.23.66,4.26,4.26,0,0,1-3.4-1.49,6.07,6.07,0,0,1-1.27-4A6.83,6.83,0,0,1,62,298.21a4,4,0,0,1,3.47-1.68A3.74,3.74,0,0,1,66.92,296.79Zm1,7.9a3.56,3.56,0,0,0,.69-2.43,3.74,3.74,0,0,0-.66-2.39,2.15,2.15,0,0,0-1.77-.82,2.09,2.09,0,0,0-2.08,1.43,5.09,5.09,0,0,0-.3,1.87,4.21,4.21,0,0,0,.32,1.71,2.1,2.1,0,0,0,2.09,1.39A2.24,2.24,0,0,0,67.91,304.69Z"/><path class="cls-1" d="M81.51,297a4.47,4.47,0,0,1,1.91,1.63,5.47,5.47,0,0,1,.88,2.28,14.45,14.45,0,0,1,.09,2.19h-8a2.64,2.64,0,0,0,1.16,2.32,2.89,2.89,0,0,0,1.58.42,2.46,2.46,0,0,0,1.61-.51,2.36,2.36,0,0,0,.59-.76h2.94a3.6,3.6,0,0,1-1.07,2,5.34,5.34,0,0,1-4.14,1.6,6,6,0,0,1-3.89-1.35,5.37,5.37,0,0,1-1.68-4.42A6,6,0,0,1,75,298a5.31,5.31,0,0,1,3.94-1.53A6.18,6.18,0,0,1,81.51,297Zm-4.31,2.49a3,3,0,0,0-.77,1.71h5a2.41,2.41,0,0,0-.77-1.75,2.56,2.56,0,0,0-1.71-.59A2.29,2.29,0,0,0,77.2,299.51Z"/><path class="cls-1" d="M92.18,296.54h.25v3a4.81,4.81,0,0,0-.49,0H91.6a2.39,2.39,0,0,0-2.34,1.13,4.44,4.44,0,0,0-.33,2v5.27H86v-11h2.75v1.92a5.93,5.93,0,0,1,1.16-1.51,3.17,3.17,0,0,1,2.1-.68Z"/><path class="cls-1" d="M96.56,304.3a1.85,1.85,0,0,0,.4,1.09,2.64,2.64,0,0,0,2,.58,3.12,3.12,0,0,0,1.35-.25.84.84,0,0,0,.1-1.5,16.16,16.16,0,0,0-3-.87,6.28,6.28,0,0,1-2.65-1.16,2.54,2.54,0,0,1-.77-2,3.44,3.44,0,0,1,1.2-2.62,4.84,4.84,0,0,1,3.38-1.1,6.21,6.21,0,0,1,3.37.83,3.52,3.52,0,0,1,1.5,2.84h-2.89a1.7,1.7,0,0,0-.31-.88,2,2,0,0,0-1.62-.58,2.33,2.33,0,0,0-1.35.29.86.86,0,0,0-.4.69.75.75,0,0,0,.43.72,18.59,18.59,0,0,0,3,.79,5.46,5.46,0,0,1,2.58,1.23,2.75,2.75,0,0,1,.85,2.07,3.37,3.37,0,0,1-1.22,2.68,5.77,5.77,0,0,1-3.78,1,5.7,5.7,0,0,1-3.84-1.09,3.58,3.58,0,0,1-1.24-2.8Z"/><path class="cls-1" d="M122.25,301.37a5.66,5.66,0,0,1-3.73,1.09h-3.11v5.36h-3.09V292.91h6.4a5.22,5.22,0,0,1,3.53,1.15,4.54,4.54,0,0,1,1.31,3.58A4.61,4.61,0,0,1,122.25,301.37ZM119.88,296a2.53,2.53,0,0,0-1.66-.5h-2.81v4.39h2.81a2.39,2.39,0,0,0,1.66-.54,2.18,2.18,0,0,0,.59-1.69A2.07,2.07,0,0,0,119.88,296Z"/><path class="cls-1" d="M130.4,301.11a4.27,4.27,0,0,0,1.15-.25.86.86,0,0,0,.62-.82,1,1,0,0,0-.47-.93,2.93,2.93,0,0,0-1.4-.26,1.88,1.88,0,0,0-1.47.5,2.17,2.17,0,0,0-.41,1h-2.78a4.21,4.21,0,0,1,.81-2.38c.77-1,2.08-1.46,3.94-1.46a7,7,0,0,1,3.23.72A2.74,2.74,0,0,1,135,300V305c0,.35,0,.77,0,1.27a1.52,1.52,0,0,0,.17.77.89.89,0,0,0,.42.33v.43h-3.13a2.75,2.75,0,0,1-.18-.63,5.68,5.68,0,0,1-.08-.66,6.24,6.24,0,0,1-1.39,1.1,4.24,4.24,0,0,1-2.11.53,3.64,3.64,0,0,1-2.49-.85,3,3,0,0,1-1-2.42,3.14,3.14,0,0,1,1.58-2.95,7,7,0,0,1,2.54-.7Zm1.76,1.35a3.57,3.57,0,0,1-.55.28,4.94,4.94,0,0,1-.78.19l-.65.13a4.27,4.27,0,0,0-1.33.39,1.32,1.32,0,0,0-.68,1.22,1.27,1.27,0,0,0,.42,1.07,1.55,1.55,0,0,0,1,.33,3,3,0,0,0,1.74-.55,2.29,2.29,0,0,0,.82-2Z"/><path class="cls-1" d="M143.89,296.54h.24v3a4.64,4.64,0,0,0-.48,0h-.35a2.37,2.37,0,0,0-2.33,1.13,4.41,4.41,0,0,0-.34,2v5.27h-2.9v-11h2.75v1.92a6.15,6.15,0,0,1,1.17-1.51,3.17,3.17,0,0,1,2.1-.68Z"/><path class="cls-1" d="M149,307.82h-2.88V292.91H149Z"/><path class="cls-1" d="M161.19,306.47a6.09,6.09,0,0,1-8.48,0,6.82,6.82,0,0,1,0-8.28,6,6,0,0,1,8.48,0,6.86,6.86,0,0,1,0,8.28Zm-2.31-1.59a5.14,5.14,0,0,0,0-5.11,2.57,2.57,0,0,0-3.89,0,5.14,5.14,0,0,0,0,5.11,2.55,2.55,0,0,0,3.89,0Z"/><path class="cls-1" d="M167.72,296.8v6.64a3.66,3.66,0,0,0,.22,1.42,1.54,1.54,0,0,0,1.54.84,2,2,0,0,0,2-1.2,4.3,4.3,0,0,0,.28-1.71v-6h2.92v11h-2.8v-1.56l-.2.31a2.67,2.67,0,0,1-.38.44,4,4,0,0,1-1.31.83,4.39,4.39,0,0,1-1.48.22,3.29,3.29,0,0,1-3.29-1.76,6.82,6.82,0,0,1-.47-2.86V296.8Z"/><path class="cls-1" d="M183.83,296.54h.25v3a4.64,4.64,0,0,0-.48,0h-.35a2.36,2.36,0,0,0-2.33,1.13,4.28,4.28,0,0,0-.34,2v5.27h-2.9v-11h2.75v1.92a6.17,6.17,0,0,1,1.16-1.51,3.18,3.18,0,0,1,2.11-.68Z"/><path class="cls-1" d="M1.11,343.14A8.05,8.05,0,0,1,4,340,21.52,21.52,0,0,0,6.6,338a3,3,0,0,0,.9-2.1A2.35,2.35,0,0,0,7,334.34a1.83,1.83,0,0,0-1.48-.61,1.8,1.8,0,0,0-1.79,1,4.78,4.78,0,0,0-.32,1.8H.6a7.08,7.08,0,0,1,.67-3,4.24,4.24,0,0,1,4.11-2.19,5.19,5.19,0,0,1,3.7,1.29A4.44,4.44,0,0,1,10.46,336a4.59,4.59,0,0,1-1,2.89,9.35,9.35,0,0,1-2.09,1.87l-1.16.82c-.72.52-1.22.89-1.48,1.12a3.16,3.16,0,0,0-.67.79h6.4V346H.43A7,7,0,0,1,1.11,343.14Z"/><path class="cls-1" d="M12.84,343.14a8.09,8.09,0,0,1,2.91-3.1A21,21,0,0,0,18.33,338a3,3,0,0,0,.9-2.1,2.35,2.35,0,0,0-.51-1.55,1.83,1.83,0,0,0-1.48-.61,1.79,1.79,0,0,0-1.79,1,4.78,4.78,0,0,0-.32,1.8H12.32a7.22,7.22,0,0,1,.68-3,4.23,4.23,0,0,1,4.1-2.19,5.22,5.22,0,0,1,3.71,1.29A4.43,4.43,0,0,1,22.18,336a4.58,4.58,0,0,1-1,2.89,9.21,9.21,0,0,1-2.1,1.87l-1.15.82c-.72.52-1.22.89-1.48,1.12a3.2,3.2,0,0,0-.68.79h6.4V346h-10A6.86,6.86,0,0,1,12.84,343.14Z"/><path class="cls-1" d="M25.59,335.42h3.06v3H25.59Zm0,7.58h3.06v3H25.59Z"/><path class="cls-1" d="M40,333.23a14.44,14.44,0,0,1,0,11.2,4.16,4.16,0,0,1-3.93,2,4.16,4.16,0,0,1-3.93-2,14.44,14.44,0,0,1,0-11.2,4.13,4.13,0,0,1,3.93-2A4.13,4.13,0,0,1,40,333.23Zm-5.63,9.47a1.67,1.67,0,0,0,1.7,1.34,1.64,1.64,0,0,0,1.68-1.34,19.16,19.16,0,0,0,0-7.79,1.62,1.62,0,0,0-1.68-1.28,1.66,1.66,0,0,0-1.7,1.28,18.71,18.71,0,0,0,0,7.79Z"/><path class="cls-1" d="M51.71,333.23a14.56,14.56,0,0,1,0,11.2,4.18,4.18,0,0,1-3.93,2,4.16,4.16,0,0,1-3.93-2,14.44,14.44,0,0,1,0-11.2,4.13,4.13,0,0,1,3.93-2A4.15,4.15,0,0,1,51.71,333.23Zm-5.63,9.47a1.74,1.74,0,0,0,3.38,0,19.16,19.16,0,0,0,0-7.79,1.76,1.76,0,0,0-3.38,0,18.27,18.27,0,0,0,0,7.79Z"/><path class="cls-1" d="M60.24,338.88h5.64v2.73H60.24Z"/><path class="cls-1" d="M82.46,333.23a14.44,14.44,0,0,1,0,11.2,4.92,4.92,0,0,1-7.86,0,14.44,14.44,0,0,1,0-11.2,4.13,4.13,0,0,1,3.93-2A4.13,4.13,0,0,1,82.46,333.23Zm-5.63,9.47a1.68,1.68,0,0,0,1.7,1.34,1.66,1.66,0,0,0,1.69-1.34,19.16,19.16,0,0,0,0-7.79,1.64,1.64,0,0,0-1.69-1.28,1.67,1.67,0,0,0-1.7,1.28,18.71,18.71,0,0,0,0,7.79Z"/><path class="cls-1" d="M87.93,341.52a3.3,3.3,0,0,0,.29,1.46,1.91,1.91,0,0,0,1.9,1.06,2.09,2.09,0,0,0,1.48-.58,2.17,2.17,0,0,0,.63-1.67,1.9,1.9,0,0,0-1.17-1.94,6,6,0,0,0-2.1-.27v-2.06a5.51,5.51,0,0,0,2-.28,1.67,1.67,0,0,0,1-1.71,2,2,0,0,0-.49-1.37,1.81,1.81,0,0,0-1.38-.53,1.75,1.75,0,0,0-1.5.65,2.77,2.77,0,0,0-.46,1.73H85.36a7.37,7.37,0,0,1,.38-2.07,4.51,4.51,0,0,1,1.11-1.59,3.9,3.9,0,0,1,1.34-.79,5.9,5.9,0,0,1,1.91-.27,5.06,5.06,0,0,1,3.39,1.09,3.6,3.6,0,0,1,1.29,2.91,3.25,3.25,0,0,1-.77,2.19,2.66,2.66,0,0,1-1,.76,2.06,2.06,0,0,1,1.13.67,3.61,3.61,0,0,1,1.1,2.79A4.74,4.74,0,0,1,94,345a4.92,4.92,0,0,1-3.82,1.41q-3.1,0-4.32-2a6,6,0,0,1-.71-2.83Z"/><path class="cls-1" d="M98.63,335.42h3.06v3H98.63Zm0,7.58h3.06v3H98.63Z"/><path class="cls-1" d="M113,333.23a14.44,14.44,0,0,1,0,11.2,4.92,4.92,0,0,1-7.86,0,14.44,14.44,0,0,1,0-11.2,4.91,4.91,0,0,1,7.86,0Zm-5.63,9.47a1.67,1.67,0,0,0,1.7,1.34,1.64,1.64,0,0,0,1.68-1.34,19.16,19.16,0,0,0,0-7.79,1.62,1.62,0,0,0-1.68-1.28,1.66,1.66,0,0,0-1.7,1.28,18.71,18.71,0,0,0,0,7.79Z"/><path class="cls-1" d="M124.75,333.23a14.56,14.56,0,0,1,0,11.2,4.92,4.92,0,0,1-7.86,0,14.44,14.44,0,0,1,0-11.2,4.91,4.91,0,0,1,7.86,0Zm-5.63,9.47a1.74,1.74,0,0,0,3.38,0,19.16,19.16,0,0,0,0-7.79,1.76,1.76,0,0,0-3.38,0,18.27,18.27,0,0,0,0,7.79Z"/><path class="cls-1" d="M1.37,369.34H12V372H4.46v3.43h6.6V378H4.46v6.25H1.37Z"/><path class="cls-1" d="M20.12,373h.24v3l-.48,0h-.35A2.38,2.38,0,0,0,17.2,377a4.38,4.38,0,0,0-.34,2v5.27H14v-11h2.75v1.93a6.15,6.15,0,0,1,1.17-1.51,3.17,3.17,0,0,1,2.1-.68Z"/><path class="cls-1" d="M29.44,373.43a4.4,4.4,0,0,1,1.91,1.63,5.47,5.47,0,0,1,.88,2.28,14.3,14.3,0,0,1,.09,2.18h-8a2.64,2.64,0,0,0,1.16,2.33,2.89,2.89,0,0,0,1.58.42,2.45,2.45,0,0,0,1.61-.51,2.48,2.48,0,0,0,.59-.76h2.94a3.55,3.55,0,0,1-1.07,2A5.31,5.31,0,0,1,27,384.6a6,6,0,0,1-3.89-1.35,5.37,5.37,0,0,1-1.68-4.42,6,6,0,0,1,1.52-4.39,5.31,5.31,0,0,1,3.94-1.53A6.18,6.18,0,0,1,29.44,373.43Zm-4.31,2.49a3,3,0,0,0-.77,1.7h5a2.41,2.41,0,0,0-.77-1.74,2.51,2.51,0,0,0-1.71-.59A2.29,2.29,0,0,0,25.13,375.92Z"/><path class="cls-1" d="M41.17,373.43a4.46,4.46,0,0,1,1.91,1.63,5.33,5.33,0,0,1,.87,2.28,14,14,0,0,1,.1,2.18H36a2.64,2.64,0,0,0,1.15,2.33,2.9,2.9,0,0,0,1.59.42,2.42,2.42,0,0,0,1.6-.51A2.5,2.5,0,0,0,41,381H43.9a3.61,3.61,0,0,1-1.07,2,5.34,5.34,0,0,1-4.15,1.61,6,6,0,0,1-3.88-1.35,5.37,5.37,0,0,1-1.68-4.42,5.93,5.93,0,0,1,1.52-4.39,5.3,5.3,0,0,1,3.94-1.53A6.18,6.18,0,0,1,41.17,373.43Zm-4.31,2.49a3,3,0,0,0-.77,1.7h5a2.45,2.45,0,0,0-.77-1.74,2.51,2.51,0,0,0-1.71-.59A2.29,2.29,0,0,0,36.86,375.92Z"/><path class="cls-1" d="M61.09,374.53a6.34,6.34,0,0,1,1.24,4,7.09,7.09,0,0,1-1.22,4.26A4.43,4.43,0,0,1,55.49,384a4.2,4.2,0,0,1-1.07-1.13v1.39H51.57V369.34h2.89v5.3a4.17,4.17,0,0,1,1.21-1.17,3.59,3.59,0,0,1,2-.51A4.12,4.12,0,0,1,61.09,374.53Zm-2.41,6.71a4.11,4.11,0,0,0,.62-2.36,5.38,5.38,0,0,0-.3-1.94,2.14,2.14,0,0,0-2.15-1.46,2.16,2.16,0,0,0-2.17,1.43,5.35,5.35,0,0,0-.3,2,4.08,4.08,0,0,0,.63,2.34,2.17,2.17,0,0,0,1.93.93A2,2,0,0,0,58.68,381.24Z"/><path class="cls-1" d="M71.72,373.43a4.38,4.38,0,0,1,1.9,1.63,5.34,5.34,0,0,1,.88,2.28,14,14,0,0,1,.1,2.18h-8a2.64,2.64,0,0,0,1.15,2.33,2.9,2.9,0,0,0,1.59.42,2.42,2.42,0,0,0,1.6-.51,2.48,2.48,0,0,0,.59-.76h3a3.61,3.61,0,0,1-1.07,2,5.34,5.34,0,0,1-4.15,1.61,6,6,0,0,1-3.88-1.35,5.37,5.37,0,0,1-1.69-4.42,6,6,0,0,1,1.52-4.39,5.34,5.34,0,0,1,3.95-1.53A6.18,6.18,0,0,1,71.72,373.43Zm-4.31,2.49a3,3,0,0,0-.77,1.7h5a2.4,2.4,0,0,0-.76-1.74,2.51,2.51,0,0,0-1.71-.59A2.27,2.27,0,0,0,67.41,375.92Z"/><path class="cls-1" d="M80.82,369.18l.61.05v2.35a6.29,6.29,0,0,0-.81-.05.92.92,0,0,0-.79.25.9.9,0,0,0-.22.59v.93H81.5v2H79.61v8.89H76.75v-8.89H75.13v-2h1.58v-.7a3.78,3.78,0,0,1,.59-2.44q.63-1,3-1Z"/><path class="cls-1" d="M92.56,382.88a6.09,6.09,0,0,1-8.48,0,6.86,6.86,0,0,1,0-8.28,6,6,0,0,1,8.48,0,6.82,6.82,0,0,1,0,8.28Zm-2.31-1.59a5.14,5.14,0,0,0,0-5.11,2.28,2.28,0,0,0-1.94-.89,2.31,2.31,0,0,0-2,.89,5.14,5.14,0,0,0,0,5.11,2.31,2.31,0,0,0,2,.89A2.28,2.28,0,0,0,90.25,381.29Z"/><path class="cls-1" d="M102.35,373h.25v3l-.49,0h-.34A2.39,2.39,0,0,0,99.43,377a4.41,4.41,0,0,0-.33,2v5.27H96.2v-11H99v1.93a5.93,5.93,0,0,1,1.16-1.51,3.17,3.17,0,0,1,2.1-.68Z"/><path class="cls-1" d="M111.68,373.43a4.38,4.38,0,0,1,1.9,1.63,5.34,5.34,0,0,1,.88,2.28,14,14,0,0,1,.1,2.18h-8a2.64,2.64,0,0,0,1.15,2.33,2.9,2.9,0,0,0,1.59.42,2.42,2.42,0,0,0,1.6-.51,2.48,2.48,0,0,0,.59-.76h3a3.61,3.61,0,0,1-1.07,2,5.34,5.34,0,0,1-4.15,1.61,6,6,0,0,1-3.88-1.35,5.34,5.34,0,0,1-1.69-4.42,6,6,0,0,1,1.52-4.39,5.31,5.31,0,0,1,3.94-1.53A6.22,6.22,0,0,1,111.68,373.43Zm-4.31,2.49a3,3,0,0,0-.77,1.7h5a2.44,2.44,0,0,0-.76-1.74,2.51,2.51,0,0,0-1.71-.59A2.27,2.27,0,0,0,107.37,375.92Z"/><path class="cls-1" d="M122.16,381.35a8.11,8.11,0,0,1,2.91-3.11,21.3,21.3,0,0,0,2.58-2,3,3,0,0,0,.9-2.11,2.33,2.33,0,0,0-.51-1.54,2.1,2.1,0,0,0-3.27.36,4.86,4.86,0,0,0-.32,1.8h-2.8a7,7,0,0,1,.67-3,4.22,4.22,0,0,1,4.1-2.2,5.2,5.2,0,0,1,3.71,1.29,4.45,4.45,0,0,1,1.38,3.41,4.64,4.64,0,0,1-1,2.9,9.6,9.6,0,0,1-2.09,1.87l-1.16.82c-.72.51-1.22.88-1.48,1.11a3.21,3.21,0,0,0-.67.8h6.4v2.54h-10A7,7,0,0,1,122.16,381.35Z"/><path class="cls-1" d="M135.94,379.73a3.4,3.4,0,0,0,.28,1.45,1.94,1.94,0,0,0,1.91,1.07,2.1,2.1,0,0,0,1.48-.59,2.14,2.14,0,0,0,.63-1.67,1.88,1.88,0,0,0-1.17-1.93,6,6,0,0,0-2.1-.27v-2.07a5.34,5.34,0,0,0,2-.27,1.69,1.69,0,0,0,1-1.72,2,2,0,0,0-.49-1.37,1.8,1.8,0,0,0-1.38-.52,1.72,1.72,0,0,0-1.5.65,2.74,2.74,0,0,0-.46,1.72h-2.69a7.15,7.15,0,0,1,.38-2.07,4.6,4.6,0,0,1,1.11-1.59,4,4,0,0,1,1.34-.79,5.9,5.9,0,0,1,1.91-.27,5.06,5.06,0,0,1,3.39,1.09,3.62,3.62,0,0,1,1.29,2.92,3.23,3.23,0,0,1-.77,2.18,2.57,2.57,0,0,1-1,.76,2.1,2.1,0,0,1,1.13.68,3.59,3.59,0,0,1,1.1,2.79,4.73,4.73,0,0,1-1.28,3.27,4.92,4.92,0,0,1-3.82,1.41q-3.1,0-4.32-2a6,6,0,0,1-.71-2.83Z"/><path class="cls-1" d="M146.64,373.63h3.06v3h-3.06Zm0,7.57h3.06v3h-3.06Z"/><path class="cls-1" d="M161,371.43a14.44,14.44,0,0,1,0,11.2,4.92,4.92,0,0,1-7.86,0,14.44,14.44,0,0,1,0-11.2,4.91,4.91,0,0,1,7.86,0Zm-5.63,9.48a1.67,1.67,0,0,0,1.7,1.34,1.64,1.64,0,0,0,1.68-1.34,14.23,14.23,0,0,0,.4-3.87,14,14,0,0,0-.4-3.93,1.62,1.62,0,0,0-1.68-1.27,1.65,1.65,0,0,0-1.7,1.27A13.6,13.6,0,0,0,155,377,13.78,13.78,0,0,0,155.4,380.91Z"/><path class="cls-1" d="M172.76,371.43a14.56,14.56,0,0,1,0,11.2,4.92,4.92,0,0,1-7.86,0,14.44,14.44,0,0,1,0-11.2,4.91,4.91,0,0,1,7.86,0Zm-5.63,9.48a1.74,1.74,0,0,0,3.38,0,14.23,14.23,0,0,0,.4-3.87,14,14,0,0,0-.4-3.93,1.76,1.76,0,0,0-3.38,0,13.53,13.53,0,0,0-.42,3.93A13.72,13.72,0,0,0,167.13,380.91Z"/><path class="cls-1" d="M187.35,373.2h2.93l1.68,7.94,1.72-7.94h3l-3.2,11h-3l-1.73-8-1.75,8h-3l-3.1-11h3.1l1.72,7.91Z"/><path class="cls-1" d="M201.77,368.86h2.4l-5.8,15.37H196Z"/><path class="cls-1" d="M214.22,369.7a3.72,3.72,0,0,1,1.4,1.05,4.78,4.78,0,0,1,.75,1.25,4.27,4.27,0,0,1,.27,1.57,4.56,4.56,0,0,1-.53,2.09,3,3,0,0,1-1.77,1.45,2.79,2.79,0,0,1,1.46,1.18,4.82,4.82,0,0,1,.43,2.33v1a8,8,0,0,0,.08,1.38,1.2,1.2,0,0,0,.58.85v.38h-3.44c-.1-.33-.16-.6-.21-.8a7.83,7.83,0,0,1-.13-1.29l0-1.38a2.76,2.76,0,0,0-.49-1.9,2.5,2.5,0,0,0-1.77-.48h-3.05v5.85h-3V369.32h7.13A6.62,6.62,0,0,1,214.22,369.7Zm-6.44,2.21v4h3.36a3.57,3.57,0,0,0,1.49-.24,1.68,1.68,0,0,0,.89-1.68,1.89,1.89,0,0,0-.86-1.82,3.16,3.16,0,0,0-1.44-.26Z"/><path class="cls-1" d="M222.08,379.63a2.94,2.94,0,0,0,.57,1.52,3.27,3.27,0,0,0,2.65.92,5.8,5.8,0,0,0,1.83-.24,1.73,1.73,0,0,0,1.33-1.73,1.28,1.28,0,0,0-.65-1.14,7.2,7.2,0,0,0-2.07-.7l-1.62-.35a10,10,0,0,1-3.26-1.15,3.61,3.61,0,0,1-1.51-3.22,4.28,4.28,0,0,1,1.47-3.33,6.32,6.32,0,0,1,4.33-1.33,6.65,6.65,0,0,1,4.07,1.25,4.46,4.46,0,0,1,1.77,3.63h-3a2.14,2.14,0,0,0-1.21-1.91,4.06,4.06,0,0,0-1.85-.38,3.54,3.54,0,0,0-2,.49,1.53,1.53,0,0,0-.74,1.35,1.27,1.27,0,0,0,.73,1.2,9.48,9.48,0,0,0,2,.62l2.61.61a6.66,6.66,0,0,1,2.58,1.08,3.66,3.66,0,0,1,1.33,3.05,4.27,4.27,0,0,1-1.57,3.39,6.69,6.69,0,0,1-4.47,1.35,7.29,7.29,0,0,1-4.63-1.33,4.39,4.39,0,0,1-1.68-3.65Z"/><path class="cls-1" d="M242.58,369.32h3.24l-5.09,14.91h-2.94l-5-14.91h3.33l3.23,11.32Z"/><path class="cls-1" d="M257.89,377.77a5.69,5.69,0,0,1-3.74,1.1H251v5.36H248V369.32h6.4a5.16,5.16,0,0,1,3.53,1.15A4.5,4.5,0,0,1,259.2,374,4.62,4.62,0,0,1,257.89,377.77Zm-2.38-5.37a2.53,2.53,0,0,0-1.66-.49H251v4.39h2.81a2.39,2.39,0,0,0,1.66-.54,2.2,2.2,0,0,0,.59-1.7A2.08,2.08,0,0,0,255.51,372.4Z"/><path class="cls-1" d="M5.69,407.39l.61,0v2.35c-.16,0-.43,0-.81,0a.93.93,0,0,0-.79.26.88.88,0,0,0-.22.59v.93H6.37v2H4.48v8.89H1.62v-8.89H0v-2H1.58v-.71a3.8,3.8,0,0,1,.59-2.44q.63-1,3-1Z"/><path class="cls-1" d="M11.2,410.09H8.28v-2.66H11.2Zm-2.92,1.32H11.2v11H8.28Z"/><path class="cls-1" d="M20.32,411.15h.25v3a4.64,4.64,0,0,0-.48,0h-.35a2.38,2.38,0,0,0-2.33,1.13,4.3,4.3,0,0,0-.34,2v5.27h-2.9v-11h2.75v1.92a5.93,5.93,0,0,1,1.16-1.51,3.18,3.18,0,0,1,2.11-.68Z"/><path class="cls-1" d="M24.7,418.91a1.92,1.92,0,0,0,.4,1.09,2.66,2.66,0,0,0,2,.58,3.06,3.06,0,0,0,1.36-.25.82.82,0,0,0,.5-.76.84.84,0,0,0-.4-.74,16.68,16.68,0,0,0-3-.87,6.35,6.35,0,0,1-2.65-1.16,2.53,2.53,0,0,1-.77-2,3.44,3.44,0,0,1,1.2-2.63,4.84,4.84,0,0,1,3.38-1.1,6.18,6.18,0,0,1,3.37.83,3.54,3.54,0,0,1,1.5,2.85H28.68a1.64,1.64,0,0,0-.32-.88,2,2,0,0,0-1.62-.59,2.35,2.35,0,0,0-1.34.29.85.85,0,0,0-.4.69.76.76,0,0,0,.42.72,19.64,19.64,0,0,0,3,.8A5.45,5.45,0,0,1,31,417a2.75,2.75,0,0,1,.85,2.07,3.33,3.33,0,0,1-1.22,2.68,5.73,5.73,0,0,1-3.77,1,5.71,5.71,0,0,1-3.85-1.1,3.57,3.57,0,0,1-1.24-2.8Z"/><path class="cls-1" d="M33.06,413.56v-2.05H34.6v-3.08h2.85v3.08h1.79v2.05H37.45v5.83a1.33,1.33,0,0,0,.17.84,1.92,1.92,0,0,0,1.05.17h.57v2.15l-1.36.05a3.71,3.71,0,0,1-2.8-.7,2.13,2.13,0,0,1-.48-1.53v-6.79Z"/><path class="cls-1" d="M45.86,407.39l.61,0v2.35c-.17,0-.44,0-.82,0a.94.94,0,0,0-.79.26.93.93,0,0,0-.21.59v.93h1.89v2H44.65v8.89H41.78v-8.89H40.17v-2h1.57v-.71a3.73,3.73,0,0,1,.6-2.44c.42-.66,1.43-1,3-1Z"/><path class="cls-1" d="M52.77,415.73a4.6,4.6,0,0,0,1.15-.26.85.85,0,0,0,.62-.82,1,1,0,0,0-.47-.93,3.06,3.06,0,0,0-1.4-.26,1.84,1.84,0,0,0-1.47.51,2.13,2.13,0,0,0-.41,1H48a4.21,4.21,0,0,1,.81-2.38c.77-1,2.08-1.46,3.94-1.46a7,7,0,0,1,3.23.72,2.76,2.76,0,0,1,1.41,2.71v5.06c0,.35,0,.78,0,1.27a1.5,1.5,0,0,0,.18.77A1,1,0,0,0,58,422v.42H54.89a3.43,3.43,0,0,1-.19-.63c0-.19-.06-.41-.08-.66a5.92,5.92,0,0,1-1.38,1.1,4.15,4.15,0,0,1-2.12.54,3.63,3.63,0,0,1-2.48-.86,3,3,0,0,1-1-2.42,3.13,3.13,0,0,1,1.58-2.94,7.06,7.06,0,0,1,2.55-.71Zm1.76,1.34a2.66,2.66,0,0,1-.56.28,4.38,4.38,0,0,1-.77.2l-.66.12a4.58,4.58,0,0,0-1.32.39,1.31,1.31,0,0,0-.68,1.23,1.29,1.29,0,0,0,.41,1.06,1.59,1.59,0,0,0,1,.33,3.09,3.09,0,0,0,1.75-.54,2.33,2.33,0,0,0,.82-2Z"/><path class="cls-1" d="M73.88,411.45a3.23,3.23,0,0,1,1.29,1,3.19,3.19,0,0,1,.63,1.42,10.62,10.62,0,0,1,.1,1.62l0,6.95h-3v-7a2.23,2.23,0,0,0-.2-1,1.43,1.43,0,0,0-1.41-.77,1.65,1.65,0,0,0-1.65,1,3.06,3.06,0,0,0-.24,1.27v6.56h-2.9v-6.56a3.81,3.81,0,0,0-.2-1.43,1.42,1.42,0,0,0-1.43-.8,1.72,1.72,0,0,0-1.66.8A3.2,3.2,0,0,0,63,415.8v6.63H60.08v-11h2.8V413a4.71,4.71,0,0,1,1-1.23,3.49,3.49,0,0,1,2.18-.65,3.44,3.44,0,0,1,2,.56,3.31,3.31,0,0,1,1,1.33,3.66,3.66,0,0,1,1.41-1.43,4.31,4.31,0,0,1,2-.46A3.81,3.81,0,0,1,73.88,411.45Z"/><path class="cls-1" d="M81.72,410.09H78.79v-2.66h2.93Zm-2.93,1.32h2.93v11H78.79Z"/><path class="cls-1" d="M87.66,422.43H84.78V407.52h2.88Z"/><path class="cls-1" d="M91.11,424.55l.37,0a5.39,5.39,0,0,0,.81,0,1.53,1.53,0,0,0,.64-.24,1.46,1.46,0,0,0,.47-.72,1.63,1.63,0,0,0,.19-.66l-4-11.51h3.21l2.4,8.13,2.28-8.13h3.06l-3.78,10.84A15.07,15.07,0,0,1,95,426.14a3.3,3.3,0,0,1-2.55.75h-.62l-.7,0Z"/><path class="cls-1" d="M108.25,411.58a3.51,3.51,0,0,1,1.26,1.22v-5.26h2.93v14.89h-2.8V420.9a4.1,4.1,0,0,1-1.41,1.43,3.92,3.92,0,0,1-2,.45,4.1,4.1,0,0,1-3.25-1.57,6,6,0,0,1-1.32-4,6.89,6.89,0,0,1,1.3-4.44,4.21,4.21,0,0,1,3.47-1.62A3.59,3.59,0,0,1,108.25,411.58Zm.71,7.86a4.06,4.06,0,0,0,.64-2.36,3.58,3.58,0,0,0-1-2.89,2.18,2.18,0,0,0-1.45-.53,2,2,0,0,0-1.86,1,4.48,4.48,0,0,0-.59,2.37,4.38,4.38,0,0,0,.6,2.44,2,2,0,0,0,1.83.92A2.16,2.16,0,0,0,109,419.44Z"/><path class="cls-1" d="M121.86,415.36a2.54,2.54,0,0,0-.42-1.11,1.73,1.73,0,0,0-1.51-.67,2,2,0,0,0-2,1.45,6.26,6.26,0,0,0-.28,2,5.73,5.73,0,0,0,.28,1.94,1.94,1.94,0,0,0,1.95,1.38,1.69,1.69,0,0,0,1.44-.55,2.62,2.62,0,0,0,.52-1.41h2.94a4.8,4.8,0,0,1-1,2.48,4.6,4.6,0,0,1-4,1.9,4.73,4.73,0,0,1-3.92-1.58,6.41,6.41,0,0,1-1.25-4.09,6.5,6.5,0,0,1,1.38-4.42,4.85,4.85,0,0,1,3.83-1.58,5.72,5.72,0,0,1,3.4.94,4.31,4.31,0,0,1,1.56,3.28Z"/><path class="cls-1" d="M126.94,419.41H130v3h-3.06Z"/><path class="cls-1" d="M139.55,415.36a2.67,2.67,0,0,0-.42-1.11,1.73,1.73,0,0,0-1.51-.67,2,2,0,0,0-2,1.45,6,6,0,0,0-.28,2,5.49,5.49,0,0,0,.28,1.94,1.94,1.94,0,0,0,1.95,1.38,1.69,1.69,0,0,0,1.44-.55,2.71,2.71,0,0,0,.52-1.41h2.94a4.8,4.8,0,0,1-.95,2.48,4.63,4.63,0,0,1-4,1.9,4.71,4.71,0,0,1-3.92-1.58,6.36,6.36,0,0,1-1.25-4.09,6.5,6.5,0,0,1,1.38-4.42,4.85,4.85,0,0,1,3.83-1.58,5.72,5.72,0,0,1,3.4.94,4.31,4.31,0,0,1,1.56,3.28Z"/><path class="cls-1" d="M153.87,421.08a6,6,0,0,1-8.47,0,6.82,6.82,0,0,1,0-8.28,6,6,0,0,1,8.47,0,6.82,6.82,0,0,1,0,8.28Zm-2.3-1.59a4.2,4.2,0,0,0,.67-2.56,4.13,4.13,0,0,0-.67-2.54,2.55,2.55,0,0,0-3.89,0,4.06,4.06,0,0,0-.68,2.54,4.13,4.13,0,0,0,.68,2.56,2.55,2.55,0,0,0,3.89,0Z"/><path class="cls-1" d="M171.29,411.45a3.23,3.23,0,0,1,1.29,1,3.19,3.19,0,0,1,.63,1.42,10.62,10.62,0,0,1,.1,1.62l0,6.95h-3v-7a2.23,2.23,0,0,0-.2-1,1.45,1.45,0,0,0-1.42-.77,1.65,1.65,0,0,0-1.64,1,3.06,3.06,0,0,0-.24,1.27v6.56h-2.9v-6.56a3.81,3.81,0,0,0-.2-1.43,1.42,1.42,0,0,0-1.43-.8,1.72,1.72,0,0,0-1.66.8,3.2,3.2,0,0,0-.23,1.36v6.63h-2.92v-11h2.8V413a4.52,4.52,0,0,1,1-1.23,3.49,3.49,0,0,1,2.18-.65,3.44,3.44,0,0,1,2,.56,3.31,3.31,0,0,1,.95,1.33,3.66,3.66,0,0,1,1.41-1.43,4.31,4.31,0,0,1,2-.46A3.81,3.81,0,0,1,171.29,411.45Z"/></g></g></svg>